<svg xmlns="http://www.w3.org/2000/svg" xmlns:xlink="http://www.w3.org/1999/xlink" viewBox="0 0 34.8 40.55"><defs><style>.cls-1{fill:url(#linear-gradient);}.cls-2{fill:#5f1800;}</style><linearGradient id="linear-gradient" x1="16.53" y1="13.56" x2="18.84" y2="29.34" gradientUnits="userSpaceOnUse"><stop offset="0" stop-color="#e31f26"/><stop offset="1" stop-color="#8f0000"/></linearGradient></defs><g id="Layer_2" data-name="Layer 2"><g id="Layer_4" data-name="Layer 4"><path class="cls-1" d="M32.35,13C30,9.6,27.85,9.3,25.75,9.3c-1.68,0-2.65,1-3.3.84-4.57-1.68-7.36.45-7.94.14A12.53,12.53,0,0,0,8.12,9.16C6.77,9.41.53,10.63.88,20.57c.3,8.32,7.37,15.3,10.81,17.5a12.72,12.72,0,0,0,6.86,1.62h.14a13.85,13.85,0,0,0,4.4-.76c2.46-1,5.88-3.31,8.5-9.47S34.9,16.73,32.35,13Z"/><path d="M18.69,40.55H18.6v-.26l0,.26h-.27a13.27,13.27,0,0,1-7.07-1.75h0C7.6,36.45.38,29.42,0,20.61H0c0-.29,0-.57,0-.83H0C0,15,1.58,12.09,3.43,10.46h0A9.08,9.08,0,0,1,8,8.31H8A6.46,6.46,0,0,1,9.2,8.2h0a14.37,14.37,0,0,1,5.53,1.23h0L15,9.35h0l.93-.29h0a10.73,10.73,0,0,1,3-.44h0a11,11,0,0,1,3.7.67h0a1.18,1.18,0,0,0,.21-.07h0c.16-.06.39-.17.66-.29h0a5.67,5.67,0,0,1,2.24-.5h0c2.18,0,4.88.46,7.31,4.1h0l-.71.49-.72.49c-2.28-3.2-3.86-3.29-5.88-3.34h0a3.85,3.85,0,0,0-1.56.36h0a4.33,4.33,0,0,1-1.57.5h0a1.48,1.48,0,0,1-.39,0h-.05l0,0a9.17,9.17,0,0,0-3.2-.6h0a8.71,8.71,0,0,0-2.53.38h0a8.52,8.52,0,0,1-1.75.45h0a1.41,1.41,0,0,1-.55-.13h0A12.76,12.76,0,0,0,9.2,9.94h0a5.11,5.11,0,0,0-.93.07h0a7.4,7.4,0,0,0-3.69,1.74h0c-1.45,1.31-2.84,3.6-2.85,8h0c0,.25,0,.5,0,.76h0C2,28.37,8.89,35.28,12.15,37.35h0a11.79,11.79,0,0,0,6.14,1.47h.38a13,13,0,0,0,4.1-.71h0c2.27-.91,5.46-3,8-9h0a26.57,26.57,0,0,0,2.28-10h0a9.94,9.94,0,0,0-1.44-5.63h0l.72-.49.71-.49a11.6,11.6,0,0,1,1.74,6.61h0a28,28,0,0,1-2.42,10.64h0c-2.68,6.35-6.31,8.9-9,9.94h0a13.66,13.66,0,0,1-3.85.78h0v0Z"/><path class="cls-2" d="M22.84,5.59s-.44-.4-.53-.51a17.79,17.79,0,0,0-2.82,1.53,17,17,0,0,1,1-3.16,3,3,0,0,1,.82-1.27c.32-.25.81-.86,1-.88s.37-.26-.06-.55A6.47,6.47,0,0,0,19.51.51c-.28.11-.69,1.4-.75,1.89a14.51,14.51,0,0,1-.69,2.3,48.19,48.19,0,0,0-.68,8.12,6,6,0,0,0,1.61,0,28.92,28.92,0,0,1,.2-4.48A10.28,10.28,0,0,1,22.84,5.59Z"/><path d="M17.33,13.27l-.32,0-.07-.32a2.6,2.6,0,0,1-.05-.66h0a50.47,50.47,0,0,1,.75-7.7h0a16.17,16.17,0,0,0,.66-2.2h0a5.85,5.85,0,0,1,.32-1.2h0c.21-.43.21-.78.7-1.06h0A2.41,2.41,0,0,1,20.15,0h0a5.34,5.34,0,0,1,2.28.37h0a.89.89,0,0,1,.47.72h0a.69.69,0,0,1-.51.65h0l0,0h0L22.13,2h0a7.67,7.67,0,0,1-.58.56h0a2.44,2.44,0,0,0-.68,1.08h0a16.19,16.19,0,0,0-.68,2h0a9.07,9.07,0,0,1,2.07-1h0l.25,0,.16.2s.48.47.48.47h0l-.31.33.31-.33.73.67-.94.12-.06,0h0l-.3.15h0c-.25.13-.58.32-.95.56h0a7.76,7.76,0,0,0-2,1.71h0a25.37,25.37,0,0,0-.21,3.36h0c0,.3,0,.6,0,.92h0v.4l-.39.07a5.56,5.56,0,0,1-1,.08h0a6.22,6.22,0,0,1-.79-.05Zm.79-.88h.4v-.53h0a29,29,0,0,1,.22-3.6h0l0-.11.06-.1a7.4,7.4,0,0,1,1.09-1.15h0L19.73,7h0l-.92.56L19,6.52a18.4,18.4,0,0,1,1-3.24h0a3.46,3.46,0,0,1,1-1.47h0a6.55,6.55,0,0,0,.5-.48h0a2.94,2.94,0,0,0,.25-.26h0A9,9,0,0,0,20.15.92h0l-.42,0h0a.21.21,0,0,0,0,.06h0a2.75,2.75,0,0,0-.2.47h0a5.16,5.16,0,0,0-.27,1h0a15.42,15.42,0,0,1-.71,2.4h0a52.49,52.49,0,0,0-.69,7.4h0v.14h.3ZM23,6Z"/></g></g></svg>