<?xml version="1.0" encoding="utf-8"?>
<!-- Generator: Adobe Illustrator 17.0.0, SVG Export Plug-In . SVG Version: 6.00 Build 0)  -->
<!DOCTYPE svg PUBLIC "-//W3C//DTD SVG 1.1//EN" "http://www.w3.org/Graphics/SVG/1.1/DTD/svg11.dtd">
<svg version="1.1" id="Layer_1" xmlns="http://www.w3.org/2000/svg" xmlns:xlink="http://www.w3.org/1999/xlink" x="0px" y="0px"
	 width="146.454px" height="146.454px" viewBox="0 0 146.454 146.454" enable-background="new 0 0 146.454 146.454"
	 xml:space="preserve">
<g>
	<path fill="#B65627" d="M115.934,54.59c-1.132-2.75-1.388-7.779-1.52-10.747c-0.084-1.86,1.383-5.029,1.04-6.549
		c-0.354-1.572-3.471-3.314-4.929-3.574c-1.635-0.291-5.353,0.195-6.642,1.055c-2.195,1.464-2.407,6.388-3.176,8.674
		c-1.104,3.282-2.342,5.603-5.154,7.671c-2.502,1.842-5.617,3.54-7.569,6.053c-8.867,11.413-26.112,16.42-38.899,8.598
		c-12.398-7.584-20.674-15.199-23.362-18.527c-0.176-0.217-0.351-0.414-0.524-0.596c-0.054-0.055-0.107-0.1-0.159-0.151
		c-0.098-0.095-0.195-0.194-0.293-0.278c-0.022-0.02-0.046-0.037-0.068-0.057c-0.057-0.049-0.115-0.09-0.173-0.135
		c-0.078-0.061-0.156-0.126-0.234-0.18c-0.035-0.024-0.07-0.046-0.105-0.068c-0.055-0.036-0.108-0.066-0.162-0.099
		c-0.067-0.04-0.134-0.081-0.199-0.115c-0.049-0.025-0.096-0.046-0.145-0.068c-0.048-0.022-0.097-0.044-0.145-0.063
		c-0.058-0.024-0.113-0.047-0.17-0.067c-0.06-0.021-0.12-0.036-0.18-0.054c-0.042-0.012-0.083-0.023-0.125-0.033
		c-0.049-0.012-0.098-0.021-0.146-0.029c-0.068-0.012-0.136-0.019-0.205-0.025c-0.012-0.001-0.024-0.003-0.036-0.004
		c-0.026-0.002-0.052-0.008-0.076-0.01c-0.041-0.002-0.081,0.001-0.12,0.001c-0.069,0-0.135,0.004-0.201,0.009
		c-0.076,0.007-0.152,0.016-0.226,0.029c-0.065,0.012-0.13,0.025-0.193,0.042c-0.057,0.015-0.112,0.028-0.167,0.046
		c-0.008,0.003-0.017,0.004-0.024,0.01c-0.01,0.004-0.019,0.008-0.029,0.012c-0.063,0.024-0.125,0.047-0.188,0.074
		c-0.072,0.032-0.143,0.068-0.213,0.107c-0.06,0.031-0.119,0.065-0.179,0.103c-0.071,0.044-0.139,0.094-0.206,0.144
		c-0.058,0.043-0.114,0.085-0.171,0.131c-0.066,0.057-0.133,0.119-0.198,0.182c-0.055,0.051-0.108,0.101-0.16,0.156
		c-0.066,0.068-0.13,0.145-0.194,0.22c-0.049,0.058-0.099,0.114-0.146,0.175c-0.064,0.084-0.128,0.175-0.191,0.266
		c-0.044,0.063-0.088,0.121-0.131,0.187c-0.066,0.104-0.133,0.216-0.196,0.327c-0.035,0.061-0.071,0.115-0.104,0.176
		c-0.097,0.178-0.19,0.361-0.28,0.555c-1.374,2.965-3.709,12.214,1.896,22.821c-0.034,0.003-0.067,0.009-0.102,0.014
		c-0.078,0.009-0.154,0.023-0.231,0.038c-0.014,0.002-0.028,0.004-0.042,0.006c-0.026,0.006-0.054,0.008-0.079,0.014
		c-0.044,0.01-0.085,0.024-0.127,0.037c-0.075,0.02-0.147,0.045-0.218,0.072c-0.078,0.028-0.155,0.06-0.231,0.095
		c-0.067,0.032-0.136,0.067-0.201,0.105c-0.056,0.031-0.111,0.062-0.164,0.098c-0.008,0.005-0.016,0.008-0.021,0.016
		c-0.009,0.007-0.018,0.013-0.026,0.02c-0.063,0.043-0.126,0.088-0.184,0.136c-0.066,0.054-0.132,0.11-0.194,0.17
		c-0.058,0.053-0.114,0.107-0.168,0.165c-0.062,0.064-0.12,0.134-0.177,0.205c-0.051,0.062-0.104,0.124-0.151,0.19
		c-0.056,0.076-0.107,0.159-0.159,0.24c-0.044,0.07-0.09,0.14-0.132,0.215c-0.051,0.088-0.098,0.184-0.143,0.277
		c-0.038,0.076-0.078,0.15-0.113,0.23c-0.046,0.104-0.086,0.214-0.129,0.323c-0.031,0.079-0.064,0.154-0.091,0.236
		c-0.044,0.126-0.081,0.259-0.121,0.392c-0.02,0.072-0.044,0.141-0.063,0.217c-0.056,0.21-0.106,0.427-0.148,0.651
		c-0.021,0.104-0.039,0.218-0.058,0.336c-0.012,0.073-0.021,0.149-0.032,0.227c-0.006,0.037-0.012,0.071-0.016,0.108
		c-0.543,4.15,0.061,14.408,9.672,23.339c0.344,0.327,0.697,0.653,1.066,0.976c0.381,0.333,0.784,0.642,1.178,0.961
		c0.004,0.023,0.007,0.047,0.01,0.074c0.565,4.389,4.005,14.801,16.587,21.019c0.191,0.097,0.368,0.198,0.563,0.294
		c13.546,6.565,31.563,5.588,45.384-1.537c13.817-7.125,22.081-16.905,25.739-23.193c3.088-5.305,7.814-15.588,7.586-24.378
		c-0.008-0.308-0.023-0.615-0.043-0.92c-0.002-0.015-0.002-0.028-0.003-0.043c-0.037-0.54-0.1-1.071-0.18-1.597
		c-0.015-0.102-0.026-0.203-0.043-0.304c-0.009-0.049-0.021-0.097-0.028-0.147c-0.101-0.567-0.225-1.126-0.383-1.675
		C121.818,59.204,116.75,59.887,115.934,54.59z M104.656,36.647 M110.661,37.581l-0.078,0.008c0.033-0.043,0.067-0.095,0.101-0.14
		C110.676,37.492,110.668,37.542,110.661,37.581z"/>
	<g>
		<g>
			
				<radialGradient id="SVGID_1_" cx="-182.2" cy="-160.8231" r="145.4924" gradientTransform="matrix(0.2718 0.1683 -0.1607 0.2846 86.4909 124.461)" gradientUnits="userSpaceOnUse">
				<stop  offset="0.691" style="stop-color:#FFCA06"/>
				<stop  offset="0.8371" style="stop-color:#F8991D"/>
				<stop  offset="1" style="stop-color:#FEBF10"/>
			</radialGradient>
			<path fill="url(#SVGID_1_)" d="M102.802,41.856c0,0,0.143,1.574-1.078,4.195c-1.222,2.618-2.077,6.355-6.7,8.18
				c-4.623,1.823-7.244,8.978-14.475,12.874c-7.229,3.896-18.395,8.597-30.069,1.638C38.804,61.786,31.013,54.801,28.48,51.749
				c-2.531-3.053-4.887-2.08-6.277,0.84c-1.391,2.92-3.825,12.484,3.075,23.104c6.899,10.618,20.004,17.785,32.633,18.717
				c12.627,0.932,22.411-2.463,27.533-5.369c5.123-2.905,14.694-9.807,16.625-17.794c1.93-7.987-0.81-10.899,0.764-15.056
				c1.574-4.158,3.221-8.674,5.945-11.443L102.802,41.856z"/>
			
				<radialGradient id="SVGID_2_" cx="-154.2424" cy="-91.9501" r="98.5478" gradientTransform="matrix(0.271 0.1678 -0.1611 0.2853 86.277 124.2889)" gradientUnits="userSpaceOnUse">
				<stop  offset="0.6348" style="stop-color:#FEC40D"/>
				<stop  offset="1" style="stop-color:#F8991D"/>
			</radialGradient>
			<path fill="url(#SVGID_2_)" d="M101.86,69.559c-1.869,7.904-11.394,14.666-16.496,17.503c-5.103,2.837-14.866,6.119-27.509,5.088
				c-12.643-1.032-25.812-8.253-32.799-18.841c-2.142-3.243-3.403-6.38-4.087-9.256c0.434,3.545,1.687,7.605,4.422,11.834
				c6.866,10.611,19.933,17.754,32.538,18.655c12.605,0.901,22.381-2.521,27.501-5.441c5.121-2.921,14.692-9.853,16.639-17.853
				L101.86,69.559z"/>
			<path fill="#FEBD11" d="M98.436,56.438c2.463-4.512,4.982-10.211,6.422-13.587l-2.057-0.995c0,0,0.143,1.574-1.078,4.195
				c-1.222,2.618-2.077,6.355-6.7,8.18c-4.623,1.823-7.244,8.978-14.475,12.874c-7.229,3.896-18.395,8.597-30.069,1.638
				C38.804,61.786,31.013,54.801,28.48,51.749c-1.374-1.658-2.696-2.127-3.841-1.742c1.941,3.79,6.436,11.458,14.228,18.975
				c10.937,10.551,24.463,12.174,35.521,8.354C85.443,73.51,94.69,63.301,98.436,56.438z"/>
			
				<linearGradient id="SVGID_3_" gradientUnits="userSpaceOnUse" x1="-96.1358" y1="-97.9771" x2="-45.7925" y2="-97.9771" gradientTransform="matrix(0.8697 0.5208 -0.4964 0.8431 77.8253 183.6643)">
				<stop  offset="0" style="stop-color:#FEE218"/>
				<stop  offset="0.4663" style="stop-color:#FEF6B2"/>
				<stop  offset="1" style="stop-color:#FFDE00"/>
			</linearGradient>
			<path fill="url(#SVGID_3_)" d="M35.344,66.357C45.38,78.11,58.741,81.405,70.089,79.033c11.347-2.37,21.417-11.251,25.724-17.53
				c0.186-0.273,0.373-0.55,0.561-0.83c-4.938,6.444-14.823,14.74-25.818,17.141c-11.778,2.568-25.597-0.744-35.902-12.894
				L35.344,66.357z"/>
			
				<linearGradient id="SVGID_4_" gradientUnits="userSpaceOnUse" x1="-48.393" y1="-112.7886" x2="-54.7723" y2="-84.234" gradientTransform="matrix(0.8608 0.5089 -0.5089 0.8608 80.2464 177.4375)">
				<stop  offset="0.2191" style="stop-color:#FFF6BD"/>
				<stop  offset="0.2406" style="stop-color:#FFF4B7"/>
				<stop  offset="0.4369" style="stop-color:#FFEB88"/>
				<stop  offset="0.6178" style="stop-color:#FFE55E"/>
				<stop  offset="0.7778" style="stop-color:#FFE136"/>
				<stop  offset="0.9106" style="stop-color:#FFDF12"/>
				<stop  offset="1" style="stop-color:#FFDE00"/>
			</linearGradient>
			<path opacity="0.7" fill="url(#SVGID_4_)" d="M80.563,68.011c0,0,5.353-2.627,8.649-7.249c3.797-5.32,6.512-6.051,7.14-5.031
				c0.629,1.02-0.644,4.643-3.343,7.293c-2.7,2.648-11.588,10.471-16.986,11.809C76.023,74.833,88.623,68.049,80.563,68.011z"/>
			
				<linearGradient id="SVGID_5_" gradientUnits="userSpaceOnUse" x1="-103.9294" y1="-78.8691" x2="-82.3788" y2="-73.4056" gradientTransform="matrix(0.8608 0.5089 -0.5089 0.8608 80.2464 177.4375)">
				<stop  offset="0" style="stop-color:#FFF9D0"/>
				<stop  offset="1" style="stop-color:#FFDE00"/>
			</linearGradient>
			<path opacity="0.7" fill="url(#SVGID_5_)" d="M41.767,64.247c0,0-7.065-5.453-9.312-7.565c-2.248-2.11-3.563-1.304-1.05,2.772
				c2.513,4.076,12.033,12.49,12.033,12.49S37.827,63.61,41.767,64.247z"/>
			
				<linearGradient id="SVGID_6_" gradientUnits="userSpaceOnUse" x1="-113.1109" y1="-81.3027" x2="-111.0804" y2="-79.2724" gradientTransform="matrix(0.8608 0.5089 -0.5089 0.8608 80.2464 177.4375)">
				<stop  offset="0" style="stop-color:#8B5D29"/>
				<stop  offset="1" style="stop-color:#9D9A36"/>
			</linearGradient>
			<path fill="url(#SVGID_6_)" d="M22.244,52.804c-0.128,0.677-0.233,1.444-0.124,2.067c0.32-0.432,0.375-1.151,0.594-1.652
				c0.188-0.428,0.433-0.833,0.662-1.244c-0.098,0.383,0.085,1.102,0.406,1.313c0.03-0.556,0.182-1.13,0.212-1.695
				c0.235,0.792,0.813,2.142,1.692,2.284c-0.249-0.711-0.551-1.481-0.526-2.156c0.256,0.318,0.436,0.792,0.809,0.982
				c0.135-0.492,0.067-1.113,0.095-1.594c0.285,0.435,1.355,1.297,1.889,0.902c-0.301-0.377-1.045-0.656-1.233-1.078
				c0.442,0.254,0.85,0.348,1.297,0.297c-2.353-2.407-4.507-1.383-5.813,1.357c-0.075,0.158-0.153,0.339-0.232,0.534
				C22.058,53.047,22.164,52.931,22.244,52.804z"/>
			
				<linearGradient id="SVGID_7_" gradientUnits="userSpaceOnUse" x1="-38.6006" y1="-111.0498" x2="-37.6812" y2="-77.9485" gradientTransform="matrix(0.8608 0.5089 -0.5089 0.8608 80.2464 177.4375)">
				<stop  offset="0" style="stop-color:#FEED78"/>
				<stop  offset="0.2381" style="stop-color:#FDDA58"/>
				<stop  offset="0.551" style="stop-color:#FDC634"/>
				<stop  offset="0.8143" style="stop-color:#FDB91C"/>
				<stop  offset="0.9944" style="stop-color:#FDB515"/>
			</linearGradient>
			<path fill="url(#SVGID_7_)" d="M101.601,62.042c0,0,3.181,12.637-13.655,23.953C87.946,85.995,101.498,76.157,101.601,62.042z"/>
			
				<linearGradient id="SVGID_8_" gradientUnits="userSpaceOnUse" x1="-104.013" y1="-75.2232" x2="-103.5159" y2="-57.326" gradientTransform="matrix(0.8608 0.5089 -0.5089 0.8608 80.2464 177.4375)">
				<stop  offset="0" style="stop-color:#FEED78"/>
				<stop  offset="0.2381" style="stop-color:#FDDA58"/>
				<stop  offset="0.551" style="stop-color:#FDC634"/>
				<stop  offset="0.8143" style="stop-color:#FDB91C"/>
				<stop  offset="0.9944" style="stop-color:#FDB515"/>
			</linearGradient>
			<path fill="url(#SVGID_8_)" d="M21.815,56.262c0,0-1.888,11.794,6.715,20.766C28.53,77.028,21.166,65.177,21.815,56.262z"/>
		</g>
		<g>
			
				<radialGradient id="SVGID_9_" cx="-73.2586" cy="-105.0183" r="162.1387" gradientTransform="matrix(0.3043 0.0824 -0.0824 0.3043 76.6918 98.646)" gradientUnits="userSpaceOnUse">
				<stop  offset="0.7811" style="stop-color:#FEBD11"/>
				<stop  offset="0.8879" style="stop-color:#F99E1C"/>
				<stop  offset="1" style="stop-color:#FDE700"/>
			</radialGradient>
			<path fill="url(#SVGID_9_)" d="M104.175,42.465c0,0,0.599,1.57,0.03,4.615c-0.567,3.045-0.429,7.127-4.87,10.364
				c-4.442,3.237-5.229,11.343-11.88,17.476c-6.651,6.132-17.295,14.255-31.786,10.588c-14.49-3.668-24.823-8.512-28.402-10.889
				c-3.579-2.377-5.83-0.683-6.494,2.721c-0.666,3.402-0.57,13.921,9.835,22.752c10.405,8.831,26.487,12.29,40.295,9.502
				c13.807-2.789,23.339-9.166,28.009-13.659c4.673-4.493,12.984-14.399,12.795-23.151c-0.189-8.753-3.953-10.923-3.441-15.647
				c0.512-4.724,1-9.838,3.139-13.481L104.175,42.465z"/>
			
				<radialGradient id="SVGID_10_" cx="-41.2815" cy="-25.9255" r="109.8272" gradientTransform="matrix(0.3034 0.0821 -0.0826 0.305 76.4723 97.7104)" gradientUnits="userSpaceOnUse">
				<stop  offset="0.6348" style="stop-color:#FEC40D"/>
				<stop  offset="1" style="stop-color:#F8991D"/>
			</radialGradient>
			<path fill="url(#SVGID_10_)" d="M111.005,71.12c0.231,8.648-8.068,18.396-12.738,22.814
				c-4.669,4.418-14.212,10.673-28.063,13.362c-13.852,2.689-30.018-0.804-40.509-9.578c-3.213-2.688-5.454-5.526-7.001-8.27
				c1.468,3.501,3.962,7.29,8.091,10.811c10.366,8.834,26.402,12.278,40.177,9.466c13.773-2.813,23.29-9.214,27.954-13.723
				c4.666-4.508,12.97-14.445,12.793-23.215L111.005,71.12z"/>
			<path fill="#FFC808" d="M103.62,58.694c1.365-5.35,2.455-11.935,3.042-15.819l-2.487-0.409c0,0,0.599,1.57,0.03,4.615
				c-0.567,3.045-0.429,7.127-4.87,10.364c-4.442,3.237-5.229,11.343-11.88,17.476c-6.651,6.132-17.295,14.255-31.786,10.588
				c-14.49-3.668-24.823-8.512-28.402-10.889c-1.944-1.29-3.494-1.379-4.613-0.646c3.155,3.307,10.146,9.829,20.63,15.22
				c14.714,7.567,29.681,5.22,40.458-1.972C94.517,80.03,101.544,66.835,103.62,58.694z"/>
			
				<linearGradient id="SVGID_11_" gradientUnits="userSpaceOnUse" x1="-11.1827" y1="-19.1612" x2="44.9372" y2="-19.1612" gradientTransform="matrix(0.977 0.2703 -0.254 0.9448 48.3675 89.9323)">
				<stop  offset="0" style="stop-color:#FEE218"/>
				<stop  offset="0.5225" style="stop-color:#FFF9D3"/>
				<stop  offset="1" style="stop-color:#FFDE00"/>
			</linearGradient>
			<path fill="url(#SVGID_11_)" d="M38.761,87.549c14.089,9.063,29.353,8.479,40.851,2.688
				c11.499-5.791,19.786-17.871,22.627-25.578c0.123-0.334,0.245-0.673,0.366-1.017c-3.471,8.063-11.726,19.491-22.84,25.206
				C67.86,94.969,52.103,95.67,37.611,86.28L38.761,87.549z"/>
			
				<linearGradient id="SVGID_12_" gradientUnits="userSpaceOnUse" x1="42.1063" y1="-38.7939" x2="35.1695" y2="-7.7434" gradientTransform="matrix(0.9653 0.2613 -0.2613 0.9653 49.7127 84.9928)">
				<stop  offset="0" style="stop-color:#FFF9CD"/>
				<stop  offset="1" style="stop-color:#FFDE00"/>
			</linearGradient>
			<path opacity="0.7" fill="url(#SVGID_12_)" d="M87.727,75.844c0,0,4.996-4.277,7.224-9.987c2.567-6.573,5.271-8.127,6.234-7.27
				c0.962,0.858,0.623,4.946-1.522,8.46c-2.146,3.514-9.464,14.157-14.875,17.129C84.788,84.176,96.381,73.497,87.727,75.844z"/>
			
				<linearGradient id="SVGID_13_" gradientUnits="userSpaceOnUse" x1="-19.3054" y1="-1.3145" x2="4.0794" y2="4.614" gradientTransform="matrix(0.9653 0.2613 -0.2613 0.9653 49.7127 84.9928)">
				<stop  offset="0" style="stop-color:#FFFCE6"/>
				<stop  offset="0.2138" style="stop-color:#FFF2B7"/>
				<stop  offset="0.4935" style="stop-color:#FFE87E"/>
				<stop  offset="0.7274" style="stop-color:#FFE24A"/>
				<stop  offset="0.9029" style="stop-color:#FFDF1D"/>
				<stop  offset="1" style="stop-color:#FFDE00"/>
			</linearGradient>
			<path opacity="0.7" fill="url(#SVGID_13_)" d="M45.052,83.485c0,0-9.121-3.492-12.128-4.989
				c-3.007-1.497-4.189-0.281-0.341,3.149c3.849,3.43,16.44,9.228,16.44,9.228S40.647,83.999,45.052,83.485z"/>
			
				<linearGradient id="SVGID_14_" gradientUnits="userSpaceOnUse" x1="-29.3845" y1="-3.4669" x2="-27.2438" y2="-1.3265" gradientTransform="matrix(0.9653 0.2613 -0.2613 0.9653 49.7127 84.9928)">
				<stop  offset="0" style="stop-color:#8B5D29"/>
				<stop  offset="1" style="stop-color:#9D9A36"/>
			</linearGradient>
			<path fill="url(#SVGID_14_)" d="M20.876,77.549c0.056,0.73,0.16,1.549,0.452,2.153c0.222-0.536,0.076-1.289,0.17-1.868
				c0.08-0.494,0.227-0.981,0.357-1.471c0.003,0.423,0.403,1.104,0.808,1.226c-0.124-0.577-0.126-1.212-0.252-1.8
				c0.476,0.741,1.478,1.953,2.461,1.84c-0.468-0.654-1.009-1.354-1.175-2.054c0.364,0.25,0.691,0.683,1.146,0.767
				c0.005-0.543-0.243-1.161-0.35-1.661c0.43,0.362,1.821,0.927,2.281,0.366c-0.43-0.299-1.307-0.362-1.628-0.739
				c0.546,0.128,1.009,0.104,1.474-0.081c-3.204-1.769-5.224-0.08-5.848,3.113c-0.036,0.184-0.07,0.393-0.1,0.616
				C20.744,77.854,20.826,77.702,20.876,77.549z"/>
			
				<linearGradient id="SVGID_15_" gradientUnits="userSpaceOnUse" x1="52.7259" y1="-37.0129" x2="53.7139" y2="-1.4422" gradientTransform="matrix(0.9653 0.2613 -0.2613 0.9653 49.7127 84.9928)">
				<stop  offset="0" style="stop-color:#FEED78"/>
				<stop  offset="0.2381" style="stop-color:#FDDA58"/>
				<stop  offset="0.551" style="stop-color:#FDC634"/>
				<stop  offset="0.8143" style="stop-color:#FDB91C"/>
				<stop  offset="0.9944" style="stop-color:#FDB515"/>
			</linearGradient>
			<path fill="url(#SVGID_15_)" d="M108.6,63.496c0,0,6.987,12.001-7.866,28.581C100.734,92.077,112.483,77.983,108.6,63.496z"/>
			
				<linearGradient id="SVGID_16_" gradientUnits="userSpaceOnUse" x1="-19.7181" y1="3.0817" x2="-19.1953" y2="21.903" gradientTransform="matrix(0.9653 0.2613 -0.2613 0.9653 49.7127 84.9928)">
				<stop  offset="0" style="stop-color:#FEED78"/>
				<stop  offset="0.2381" style="stop-color:#FDDA58"/>
				<stop  offset="0.551" style="stop-color:#FDC634"/>
				<stop  offset="0.8143" style="stop-color:#FDB91C"/>
				<stop  offset="0.9944" style="stop-color:#FDB515"/>
			</linearGradient>
			<path fill="url(#SVGID_16_)" d="M21.395,81.217c0,0,1.313,12.64,13.078,19.28C34.474,100.498,23.222,90.542,21.395,81.217z"/>
		</g>
		
			<radialGradient id="SVGID_17_" cx="27.3128" cy="-11.0167" r="175.4714" gradientTransform="matrix(0.3152 0 0 0.3152 60.97 71.2833)" gradientUnits="userSpaceOnUse">
			<stop  offset="0.7811" style="stop-color:#FEBD11"/>
			<stop  offset="0.8879" style="stop-color:#F99E1C"/>
			<stop  offset="1" style="stop-color:#FDE700"/>
		</radialGradient>
		<path fill="url(#SVGID_17_)" d="M121.524,71.415c-2.559-8.694-6.909-9.846-7.677-14.703c-0.768-4.859-1.663-10.102-0.511-14.321
			l-0.01,0.001c0.01-0.027,0.021-0.055,0.027-0.082c0.423-1.748,1.82-5.232,1.82-5.232l-3.867-1.974
			c-1.702,1.622-2.595,6.261-2.849,7.782l-2.672,0.271c0,0,1.024,1.407,1.28,4.604c0.256,3.195,1.5,7.236-2.065,11.674
			c-3.564,4.437-2.157,12.747-7.147,20.674c-4.989,7.928-13.434,18.924-28.915,19.18c-15.481,0.255-27.125-1.791-31.347-3.197
			c-4.223-1.406-6.013,0.895-5.758,4.476c0.256,3.579,3.198,14.063,15.993,20.073s29.811,5.114,42.862-1.406
			c13.051-6.52,20.854-15.471,24.31-21.225C118.454,92.254,124.084,80.108,121.524,71.415z"/>
		
			<radialGradient id="SVGID_18_" cx="55.1344" cy="84.0269" r="109.8311" gradientTransform="matrix(0.3256 0 0 0.3271 61.6512 69.8862)" gradientUnits="userSpaceOnUse">
			<stop  offset="0.6348" style="stop-color:#FEC40D"/>
			<stop  offset="1" style="stop-color:#F8991D"/>
		</radialGradient>
		<path fill="url(#SVGID_18_)" d="M120.373,69.94c2.573,8.58-3.088,20.565-6.561,26.243c-3.474,5.677-11.321,14.509-24.443,20.942
			c-13.121,6.435-30.231,7.318-43.097,1.388c-3.939-1.815-6.949-4.046-9.238-6.368c2.416,3.102,5.935,6.213,11.017,8.613
			c12.756,6.023,29.722,5.126,42.733-1.41c13.012-6.536,20.793-15.507,24.236-21.273c3.444-5.768,9.058-17.942,6.507-26.657
			L120.373,69.94z"/>
		<path fill="#FFCA06" d="M109.626,59.523c-0.084-5.714-0.776-12.589-1.241-16.629l-2.598,0.263c0,0,1.024,1.407,1.28,4.604
			c0.256,3.195,1.5,7.236-2.065,11.674c-3.564,4.437-2.157,12.747-7.147,20.674c-4.989,7.928-13.434,18.924-28.915,19.18
			c-15.481,0.255-27.125-1.791-31.347-3.197c-2.293-0.764-3.867-0.433-4.788,0.602c4.05,2.451,12.807,7.076,24.748,9.627
			c16.76,3.58,31.09-2.813,39.918-12.913C106.299,83.305,109.754,68.217,109.626,59.523z"/>
		
			<linearGradient id="SVGID_19_" gradientUnits="userSpaceOnUse" x1="48.9052" y1="82.06" x2="107.0408" y2="82.06" gradientTransform="matrix(1.0137 0.0056 0.0018 0.9784 1.3353 5.6514)">
			<stop  offset="0" style="stop-color:#FEE218"/>
			<stop  offset="0.5225" style="stop-color:#FFF9D3"/>
			<stop  offset="1" style="stop-color:#FFDE00"/>
		</linearGradient>
		<path fill="url(#SVGID_19_)" d="M52.585,105.901c16.542,5.244,31.645,0.531,41.574-8.365c9.93-8.896,14.945-23.209,15.699-31.68
			c0.032-0.365,0.063-0.738,0.092-1.113c-1.288,8.995-6.448,22.646-16.014,31.363c-10.245,9.337-25.812,14.301-42.844,8.838
			L52.585,105.901z"/>
		<path fill="#D1C929" d="M111.302,35.13l-6.104,0.21c0,0-2.481,5.227-2.395,6.678c0.041,0.688,0.578,1.632,1.699,1.804
			c1.12,0.172,2.896,0.299,3.882-0.928C110.229,40.639,111.302,35.13,111.302,35.13z"/>
		<linearGradient id="SVGID_20_" gradientUnits="userSpaceOnUse" x1="106.4626" y1="60.206" x2="99.2812" y2="92.3509">
			<stop  offset="0.0449" style="stop-color:#FFFFFF"/>
			<stop  offset="1" style="stop-color:#FFDE00"/>
		</linearGradient>
		<path opacity="0.7" fill="url(#SVGID_20_)" d="M98.377,80.958c0,0,3.838-5.625,4.521-11.933c0.786-7.263,3.071-9.546,4.265-8.95
			c1.193,0.597,1.962,4.773,0.769,8.865c-1.195,4.092-5.63,16.707-10.236,21.139C97.694,90.079,106.394,76.27,98.377,80.958z"/>
		<linearGradient id="SVGID_21_" gradientUnits="userSpaceOnUse" x1="42.8288" y1="99.0166" x2="67.0518" y2="105.1577">
			<stop  offset="0.0056" style="stop-color:#FFFFFF"/>
			<stop  offset="1" style="stop-color:#FFDE00"/>
		</linearGradient>
		<path opacity="0.7" fill="url(#SVGID_21_)" d="M57.774,100.137c0,0-10.065-1.022-13.477-1.705
			c-3.411-0.682-4.264,0.854,0.513,3.24c4.775,2.386,18.936,4.772,18.936,4.772S53.51,101.842,57.774,100.137z"/>
		<linearGradient id="SVGID_22_" gradientUnits="userSpaceOnUse" x1="32.3904" y1="96.7799" x2="34.6065" y2="98.9958">
			<stop  offset="0" style="stop-color:#8B5D29"/>
			<stop  offset="1" style="stop-color:#9D9A36"/>
		</linearGradient>
		<path fill="url(#SVGID_22_)" d="M31.997,100.747c0.252,0.715,0.578,1.504,1.033,2.029c0.077-0.596-0.271-1.309-0.334-1.912
			c-0.055-0.516-0.039-1.042-0.042-1.566c0.118,0.422,0.702,0.994,1.14,1.006c-0.281-0.543-0.453-1.177-0.74-1.729
			c0.677,0.61,2.007,1.552,2.959,1.172c-0.645-0.528-1.374-1.079-1.73-1.735c0.433,0.152,0.876,0.496,1.353,0.457
			c-0.143-0.544-0.558-1.095-0.8-1.565c0.528,0.247,2.072,0.435,2.381-0.251c-0.511-0.182-1.405-0.009-1.828-0.299
			c0.58-0.02,1.037-0.168,1.451-0.479c-3.683-0.899-5.245,1.333-5.005,4.693c0.015,0.193,0.038,0.411,0.068,0.643
			C31.947,101.086,31.987,100.913,31.997,100.747z"/>
		<linearGradient id="SVGID_23_" gradientUnits="userSpaceOnUse" x1="117.4625" y1="62.0459" x2="118.4853" y2="98.8683">
			<stop  offset="0" style="stop-color:#FEED78"/>
			<stop  offset="0.2381" style="stop-color:#FDDA58"/>
			<stop  offset="0.551" style="stop-color:#FDC634"/>
			<stop  offset="0.8143" style="stop-color:#FDB91C"/>
			<stop  offset="0.9944" style="stop-color:#FDB515"/>
		</linearGradient>
		<path fill="url(#SVGID_23_)" d="M115.905,62.973c0,0,10.235,10.101-0.129,30.685C115.776,93.659,123.709,76.399,115.905,62.973z"
			/>
		<linearGradient id="SVGID_24_" gradientUnits="userSpaceOnUse" x1="42.4184" y1="103.5557" x2="42.9596" y2="123.0411">
			<stop  offset="0" style="stop-color:#FEED78"/>
			<stop  offset="0.2381" style="stop-color:#FDDA58"/>
			<stop  offset="0.551" style="stop-color:#FDC634"/>
			<stop  offset="0.8143" style="stop-color:#FDB91C"/>
			<stop  offset="0.9944" style="stop-color:#FDB515"/>
		</linearGradient>
		<path fill="url(#SVGID_24_)" d="M33.509,104.27c0,0,4.733,12.275,18.296,15.729C51.805,119.999,37.858,113.094,33.509,104.27z"/>
	</g>
</g>
</svg>
