<svg xmlns="http://www.w3.org/2000/svg" xmlns:xlink="http://www.w3.org/1999/xlink" viewBox="0 0 47.95 21.55"><defs><style>.cls-1{fill:url(#linear-gradient);}.cls-2{fill:url(#linear-gradient-2);}</style><linearGradient id="linear-gradient" x1="23.98" x2="23.98" y2="21.55" gradientUnits="userSpaceOnUse"><stop offset="0" stop-color="#ff2929"/><stop offset="0.13" stop-color="#fa2828"/><stop offset="0.29" stop-color="#eb2323"/><stop offset="0.46" stop-color="#d31c1c"/><stop offset="0.64" stop-color="#b21313"/><stop offset="0.83" stop-color="#870707"/><stop offset="0.92" stop-color="#700000"/></linearGradient><linearGradient id="linear-gradient-2" x1="24.82" y1="16.29" x2="24.82" y2="5.09" gradientUnits="userSpaceOnUse"><stop offset="0" stop-color="#ffb700"/><stop offset="0" stop-color="#ffc000"/><stop offset="0" stop-color="#ffc700"/><stop offset="0" stop-color="#ffc900"/><stop offset="0.05" stop-color="#f6b700"/><stop offset="0.17" stop-color="#e29300"/><stop offset="0.29" stop-color="#d37700"/><stop offset="0.4" stop-color="#c86200"/><stop offset="0.52" stop-color="#c15600"/><stop offset="0.64" stop-color="#bf5200"/><stop offset="0.78" stop-color="#c25400"/><stop offset="0.89" stop-color="#cc5b00"/><stop offset="0.98" stop-color="#dc6600"/><stop offset="1" stop-color="#df6800"/></linearGradient></defs><g id="Layer_2" data-name="Layer 2"><g id="Layer_4" data-name="Layer 4"><polygon points="47.53 21.15 0.61 21.15 0.41 0.5 47.21 0.4 47.53 21.15"/><path class="cls-1" d="M.2,21.55,0,.11,47.61,0l.33,21.15v.4Zm47.33-.4v0ZM1,20.75H47.12L46.8.8.82.9,1,20.75Z"/><path class="cls-2" d="M15.74,10.19a2.35,2.35,0,0,0,1-1.9,2.93,2.93,0,0,0-.29-1.18,3.29,3.29,0,0,0-3.15-1.85H8l.12,11h5.69a3.42,3.42,0,0,0,3.69-3.4A2.94,2.94,0,0,0,15.74,10.19ZM10.12,7.08h3.15a1.22,1.22,0,1,1,0,2.43H10.15Zm3.67,7.36H10.2l0-3.06h3.59a1.51,1.51,0,0,1,1.62,1.52A1.49,1.49,0,0,1,13.79,14.44Zm9.83-9.35L18.69,16.28H21l.05-.11c.36-.85.93-2.08,1.38-3h4.16l1.51,3.16h2.29L25.14,5.09Zm-.42,6.23L24.43,8.2l1.29,3.12ZM40.59,8.79c0-1.79-1.48-3.58-4.23-3.58H31.72l.15,11.07H34l-.13-9.16h2.54c1.41,0,2,.85,2.07,1.68s-.61,1.69-2,1.7H34.19v1l4.65,4.81h2.79l-4-4.09A3.44,3.44,0,0,0,40.59,8.79Z"/></g></g></svg>