<svg xmlns="http://www.w3.org/2000/svg" xmlns:xlink="http://www.w3.org/1999/xlink" viewBox="0 0 40.29 41.43"><defs><style>.cls-1{fill:url(#linear-gradient);}.cls-2{fill:url(#linear-gradient-2);}.cls-3{fill:url(#linear-gradient-3);}.cls-4{fill:url(#linear-gradient-4);}</style><linearGradient id="linear-gradient" x1="11.44" y1="10.98" x2="22.16" y2="46.1" gradientUnits="userSpaceOnUse"><stop offset="0" stop-color="#ffb700"/><stop offset="0.26" stop-color="#ffb700"/><stop offset="0.76" stop-color="#bf5200"/><stop offset="0.85" stop-color="#c25400"/><stop offset="0.93" stop-color="#cc5b00"/><stop offset="0.99" stop-color="#dc6600"/><stop offset="1" stop-color="#df6800"/></linearGradient><linearGradient id="linear-gradient-2" x1="14.95" y1="5.34" x2="39.19" y2="27.25" gradientUnits="userSpaceOnUse"><stop offset="0" stop-color="#ffb700"/><stop offset="0.04" stop-color="#ffc000"/><stop offset="0.09" stop-color="#ffc700"/><stop offset="0.26" stop-color="#ffc900"/><stop offset="0.76" stop-color="#bf5200"/><stop offset="0.85" stop-color="#c25400"/><stop offset="0.93" stop-color="#cc5b00"/><stop offset="0.99" stop-color="#dc6600"/><stop offset="1" stop-color="#df6800"/></linearGradient><linearGradient id="linear-gradient-3" x1="43.08" y1="-8.5" x2="4.64" y2="52.12" xlink:href="#linear-gradient"/><linearGradient id="linear-gradient-4" x1="8.38" y1="13.89" x2="32.06" y2="35.3" xlink:href="#linear-gradient-2"/></defs><g id="Layer_2" data-name="Layer 2"><g id="Layer_4" data-name="Layer 4"><path class="cls-1" d="M18.16,36.38c6.15,3.67,12.71,5.4,14.11,3.59,1.56-2-2.93-8.3-10.14-13.57-2,2.85-2.89,4.72-3.6,5.73A3.93,3.93,0,0,1,18.16,36.38Zm-4.9-3.88a3.45,3.45,0,0,1,3.24-1.11c.62-1.5,2.58-3.2,4.16-6.28-8.46-6.42-17.77-11.4-19.59-9S5,26,13.26,32.5Z"/><path d="M17.78,37l-.5-.3.17-.56a1.8,1.8,0,0,1,.14-.27h0l.09-.13h0a4.23,4.23,0,0,0,.25-.42h0A3.19,3.19,0,0,0,18.26,34h0a3.16,3.16,0,0,0-.38-1.49h0l-.22-.4.27-.37c.65-.9,1.6-2.84,3.6-5.72h0l.43-.62.61.44a42.85,42.85,0,0,1,7.7,7.1h0c1.86,2.31,3,4.32,3,6h0a2.37,2.37,0,0,1-.46,1.49h0a3.38,3.38,0,0,1-2.77,1h0c-3,0-7.73-1.7-12.3-4.41Zm13.9,2.5a1,1,0,0,0,.16-.59h0c0-1-.92-2.94-2.72-5.09h0a41,41,0,0,0-6.81-6.39h0c-1.48,2.19-2.27,3.71-2.93,4.74h0A4.55,4.55,0,0,1,19.74,34h0a4.54,4.54,0,0,1-.55,2.16h0C23.37,38.52,27.71,40,30.08,40h0c1,0,1.47-.24,1.6-.43ZM12.81,33.08a58.07,58.07,0,0,1-9.1-8.72h0C1.45,21.56,0,19.14,0,17.2H0a2.51,2.51,0,0,1,.49-1.57h0a2.56,2.56,0,0,1,2.16-.89h0C6.57,14.8,14,19.18,21.1,24.52h0l.5.37-.29.55c-1.64,3.19-3.66,5-4.13,6.23h0l-.22.54-.57-.09a3.12,3.12,0,0,0-.52,0h0a2.57,2.57,0,0,0-2,.89h0l-.46.55-.56-.44Zm.45-.58.46-.58-.46.58ZM2.65,16.22c-.61,0-.87.15-1,.31h0a1,1,0,0,0-.18.67h0c0,1.16,1.19,3.57,3.38,6.22h0a55.45,55.45,0,0,0,8.35,8.09h0a4.2,4.2,0,0,1,2.66-.91h.19c.83-1.48,2.34-2.92,3.65-5.3h0c-6.71-5-14-9.09-17-9.09H2.65Z"/><path class="cls-2" d="M37.54,16.61c4.73-10-.23-13.71-1.26-14.42l-.08,0C34.66,1,30-1.45,22.4,5.05,14,12.23,11,11,8.92,11.89c-1.9.85-5.45,2.74-7.49,3.73a12.69,12.69,0,0,1,9.33,1.47,116.09,116.09,0,0,1,9.74,6.53c2.14,1.73,6.07,5,8.18,7.16,4.12,4.27,4,8.2,4,8.07a37,37,0,0,0,1.67-8.32C34.68,27.92,32.8,26.61,37.54,16.61Z"/><path d="M32,39.13A1.19,1.19,0,0,1,32,39h0a.46.46,0,0,1,0-.1h0s0-.09,0-.14h0c0-.11,0-.26-.06-.46h0a9.36,9.36,0,0,0-.41-1.67h0a14.27,14.27,0,0,0-3.35-5.33h0c-2.06-2.12-6-5.37-8.08-7.08h0c-1.93-1.4-6.78-4.88-9.67-6.47h0A13,13,0,0,0,4.09,16h0a9.8,9.8,0,0,0-2.4.27h0l-.05,0H1.58A.74.74,0,0,1,1,16.2H1a.74.74,0,0,1-.28-.58h0a.78.78,0,0,1,.21-.53h0a1,1,0,0,1,.24-.15h0c2-1,5.54-2.86,7.48-3.72h0c2.52-1.08,4.87.37,13.29-6.74h0C25.91,1.07,29.22,0,31.76,0h0a8.15,8.15,0,0,1,4.78,1.49h0l.07,0,.09.06A8.6,8.6,0,0,1,40.29,9h0a18.87,18.87,0,0,1-2.08,8h0C35.45,22.74,35,25.49,35,27.25h0c0,1,.16,1.75.16,2.69h0a5.24,5.24,0,0,1,0,.67h0a36.69,36.69,0,0,1-1.72,8.53h0l-.15.35-.35.07h0l-.15,0h0c-.65-.1-.64-.43-.69-.46ZM11.11,16.44c3,1.68,7.87,5.15,9.86,6.6h0c2.15,1.75,6.08,5,8.24,7.23h0a15.66,15.66,0,0,1,3.61,5.64h0c.37-1.76.67-3.87.84-5.46h0a4.36,4.36,0,0,0,0-.51h0c0-.72-.17-1.52-.17-2.69h0c0-2.05.55-5.05,3.35-11h0A17.36,17.36,0,0,0,38.81,9h0a7.12,7.12,0,0,0-2.87-6.12h0l-.08,0-.1-.07a6.56,6.56,0,0,0-4-1.28h0c-2.11,0-5.06.87-8.89,4.13h0c-8.4,7.25-12,6.18-13.65,7h0c-1,.46-2.59,1.25-4.12,2h0a14.78,14.78,0,0,1,6,1.84Z"/><path class="cls-3" d="M12.89,33.61a3.13,3.13,0,0,1,3.53-2.44c.53-1.28,1.47-3.16,3-6,.13-.26.26-.5.39-.73l2.5,2-.11.21a33.62,33.62,0,0,1-3.65,5.82A3.09,3.09,0,0,1,19,34.92a3.14,3.14,0,1,1-6.14-1.31Z"/><path d="M15.19,37.88a3.71,3.71,0,0,1-2.93-3.62h0a3.59,3.59,0,0,1,.09-.78h0a3.67,3.67,0,0,1,3.6-2.9h.12c.56-1.29,1.46-3.08,2.83-5.67h0c.13-.26.26-.5.39-.74h0l.31-.58L23,26.27l-.22.41-.11.21h0A36.76,36.76,0,0,1,19.2,32.5h0a3.7,3.7,0,0,1,.46,1.77h0a4.11,4.11,0,0,1-.08.77h0A3.71,3.71,0,0,1,16,38h0a4,4,0,0,1-.77-.08Zm-1.76-4.15a2.33,2.33,0,0,0-.06.53h0a2.58,2.58,0,0,0,2.05,2.53h0a2.48,2.48,0,0,0,.54.06h0a2.59,2.59,0,0,0,2.53-2h0a2.48,2.48,0,0,0,.06-.54h0a2.61,2.61,0,0,0-.49-1.5h0l-.25-.35.28-.33a32.11,32.11,0,0,0,3.49-5.52h0L20,25.28l-.07.15h0c-1.5,2.83-2.43,4.71-2.95,5.95h0l-.17.4-.43-.06a2.34,2.34,0,0,0-.38,0h0a2.57,2.57,0,0,0-2.52,2h0l-.54-.11.54.12Z"/><path class="cls-4" d="M32.73,39.21l1.51-8a52.4,52.4,0,0,0-26.06-19L1.43,15.25c4.07-.5,11,3.52,17,8C25.4,28.49,31.56,32.75,32.73,39.21Z"/><path d="M32.73,39.59a.38.38,0,0,1-.37-.31h0C31.25,33,25.2,28.8,18.21,23.56h0c-5.59-4.23-12.14-8-16.07-8h0c-.23,0-.45,0-.66,0h0a.37.37,0,0,1-.41-.27h0a.37.37,0,0,1,.2-.44h0L8,11.82h.27A52.86,52.86,0,0,1,34.55,31h0a.35.35,0,0,1,.06.28h0l-1.51,8a.37.37,0,0,1-.36.31h0Zm0-.38.37-.06-.37.06ZM18.66,23c6.35,4.79,12.13,8.77,14,14.52h0l1.16-6.18A52.19,52.19,0,0,0,8.2,12.57h0L3.12,14.89C7.42,15.41,13.4,19,18.66,23Z"/></g></g></svg>