<?xml version="1.0" encoding="utf-8"?>
<!-- Generator: Adobe Illustrator 17.0.0, SVG Export Plug-In . SVG Version: 6.00 Build 0)  -->
<!DOCTYPE svg PUBLIC "-//W3C//DTD SVG 1.1//EN" "http://www.w3.org/Graphics/SVG/1.1/DTD/svg11.dtd">
<svg version="1.1" id="Layer_1" xmlns="http://www.w3.org/2000/svg" xmlns:xlink="http://www.w3.org/1999/xlink" x="0px" y="0px"
	 width="146.454px" height="146.454px" viewBox="0 0 146.454 146.454" enable-background="new 0 0 146.454 146.454"
	 xml:space="preserve">
<g>
	<g>
		<path fill="#F99D1C" d="M62.242,67.194c0,3.696-1.156,6.76-3.466,9.19c-2.632,2.792-7.253,4.188-13.861,4.188
			c-0.503,0-1.226-0.011-2.169-0.03c-0.965,0-1.679,0-2.14,0c-7.413,0-11.822-0.151-13.229-0.452
			c-0.583-0.12-0.874-0.432-0.874-0.935c0-2.148,0.126-5.403,0.377-9.763c0.251-4.358,0.377-7.623,0.377-9.793
			c0-2.33-0.121-6.708-0.362-13.137c-0.06-1.647-0.171-4.118-0.331-7.412l-0.029-0.422c-0.022-0.381,0.296-0.612,0.948-0.692
			c0.653-0.081,2.977-0.121,6.975-0.121c6.408,0,10.154,0.021,11.239,0.061c4.942,0.181,8.588,0.984,10.938,2.411
			c3.113,1.908,4.67,5.133,4.67,9.673c0,1.186-0.361,2.44-1.084,3.766c-0.522,0.944-1.205,1.89-2.049,2.833
			c-0.744,0.824-1.115,1.205-1.115,1.144c0,0.142,0.261,0.362,0.783,0.664c1.406,0.804,2.511,2.078,3.314,3.826
			C61.88,63.759,62.242,65.426,62.242,67.194z M49.284,50.23c0-1.728-0.863-2.872-2.591-3.435c-0.965-0.302-2.552-0.452-4.761-0.452
			c-2.17,0-3.255,0.161-3.255,0.482c0,0.382-0.035,0.959-0.105,1.733c-0.07,0.773-0.105,1.351-0.105,1.732
			c0,2.009,0.171,3.134,0.513,3.375c0.221,0.181,1.496,0.271,3.827,0.271C47.125,53.936,49.284,52.7,49.284,50.23z M50.188,67.073
			c0-1.807-0.753-3.033-2.26-3.676c-0.965-0.401-2.531-0.602-4.7-0.602c-2.592,0-3.999,0.096-4.22,0.287
			c-0.221,0.189-0.331,1.421-0.331,3.69c0,2.371,0.13,3.682,0.392,3.933c0.261,0.251,1.708,0.377,4.339,0.377
			c2.17,0,3.696-0.171,4.58-0.513C49.455,69.986,50.188,68.821,50.188,67.073z"/>
		<path fill="#3D1312" d="M44.915,82.872c-0.514,0-1.252-0.011-2.218-0.031l-2.091,0.001c-10.183,0-12.701-0.287-13.71-0.503
			c-1.628-0.336-2.691-1.587-2.691-3.183c0-2.183,0.129-5.512,0.381-9.895c0.247-4.299,0.373-7.55,0.373-9.661
			c0-2.299-0.121-6.689-0.36-13.051c-0.06-1.643-0.171-4.104-0.33-7.387l-0.027-0.373c-0.075-1.388,0.813-2.87,2.962-3.135
			c0.521-0.064,1.817-0.138,7.256-0.138c6.492,0,10.197,0.02,11.323,0.062c5.391,0.197,9.331,1.094,12.047,2.743
			c3.836,2.352,5.776,6.265,5.776,11.638c0,1.567-0.46,3.205-1.365,4.866c-0.483,0.874-1.078,1.741-1.777,2.593
			c1.133,0.981,2.067,2.258,2.782,3.813c0.858,1.86,1.295,3.867,1.295,5.962c0,4.288-1.379,7.913-4.098,10.774
			C57.335,81.265,52.254,82.872,44.915,82.872z M28.814,77.968c1.476,0.135,4.705,0.275,11.792,0.275h2.14
			c0.971,0.02,1.677,0.03,2.169,0.03c5.92,0,10.02-1.166,12.188-3.467c1.913-2.013,2.84-4.501,2.84-7.613
			c0-1.444-0.286-2.765-0.874-4.038c-0.604-1.316-1.379-2.229-2.367-2.794c-0.151-0.088-0.354-0.204-0.568-0.355l-1.369,0.001
			l-0.005-2.294c0-0.004,0-0.008,0-0.012h2.299l0.004-2.291c-0.861,0-1.4,0.48-1.459,0.535c0.018-0.018,0.192-0.184,0.863-0.928
			c0.717-0.802,1.307-1.613,1.744-2.405c0.527-0.966,0.798-1.863,0.798-2.653c0-3.716-1.169-6.239-3.573-7.713
			c-1.991-1.208-5.299-1.908-9.821-2.073c-1.057-0.039-4.81-0.059-11.155-0.059c-2.936,0-4.6,0.022-5.54,0.047
			c0.131,2.719,0.222,4.781,0.273,6.218c0.241,6.417,0.363,10.866,0.363,13.221c0,2.199-0.127,5.538-0.38,9.925
			C28.972,73.079,28.85,75.909,28.814,77.968z M43.408,73.379c-4.137,0-5.15-0.267-5.933-1.019c-0.86-0.825-1.097-2.026-1.097-5.589
			c0-3.584,0.222-4.649,1.13-5.432c0.754-0.653,1.597-0.844,5.72-0.844c2.532,0,4.307,0.247,5.584,0.779
			c2.376,1.014,3.675,3.069,3.675,5.797c0,2.696-1.296,4.696-3.65,5.632C47.641,73.168,45.922,73.379,43.408,73.379z M41.02,68.73
			c0.521,0.029,1.284,0.053,2.388,0.053c2.551,0,3.474-0.251,3.751-0.358c0.42-0.166,0.73-0.366,0.73-1.352
			c0-1.104-0.392-1.36-0.863-1.562c-0.288-0.12-1.277-0.418-3.798-0.418c-0.996,0-1.713,0.015-2.226,0.034
			c-0.015,0.406-0.026,0.941-0.026,1.644C40.976,67.651,40.995,68.281,41.02,68.73z M42.807,56.234
			c-3.626,0-4.504-0.179-5.228-0.746c-1.184-0.895-1.411-2.527-1.411-5.198c0-0.459,0.038-1.095,0.116-1.943
			c0.079-0.87,0.095-1.308,0.095-1.522c0-2.781,3.342-2.781,5.554-2.781c2.501,0,4.232,0.177,5.446,0.558
			c2.682,0.873,4.204,2.921,4.204,5.628C51.583,52.472,50.442,56.234,42.807,56.234z M40.8,51.605
			c0.457,0.019,1.103,0.032,2.007,0.032c1.56,0,4.179-0.183,4.179-1.407c0-0.65-0.139-0.967-1.004-1.249
			c-0.39-0.122-1.47-0.339-4.049-0.339c-0.426,0-0.776,0.006-1.062,0.017c-0.003,0.035-0.006,0.071-0.009,0.107
			c-0.08,0.871-0.097,1.31-0.097,1.525C40.766,50.852,40.779,51.28,40.8,51.605z"/>
	</g>
	<g>
		<path fill="#F99D1C" d="M78.303,57.944c0,2.37,0.06,5.935,0.18,10.696c0.121,4.762,0.181,8.327,0.181,10.697
			c0,0.402-0.09,0.652-0.271,0.753c-0.04,0.021-0.301,0.061-0.782,0.121c-1.307,0.16-3.054,0.24-5.244,0.24
			c-2.933,0-4.801-0.08-5.604-0.24c-0.583-0.121-0.874-0.433-0.874-0.935c0,0.321,0.091-1.446,0.271-5.304
			C66.52,65.837,66.7,60.495,66.7,57.944c0-2.15-0.069-5.374-0.211-9.673c-0.141-4.299-0.211-7.522-0.211-9.672
			c0-0.441,0.231-0.663,0.693-0.663c0.622,0,1.563,0.03,2.817,0.09c1.256,0.06,2.194,0.09,2.818,0.09c0.622,0,1.541-0.03,2.756-0.09
			c1.216-0.061,2.135-0.09,2.758-0.09c0.582,0,0.873,0.221,0.873,0.663c0,2.15-0.115,5.374-0.347,9.672
			C78.417,52.57,78.303,55.794,78.303,57.944z"/>
		<path fill="#3D1312" d="M72.365,82.751c-4.103,0-5.391-0.153-6.055-0.286c-0.685-0.141-1.269-0.438-1.719-0.852h-0.966
			l-0.036-2.269c0-0.006-0.001-0.014-0.001-0.02v-0.048h1.938l-1.924-0.197c0.01-0.124,0.056-0.879,0.259-5.214
			c0.358-8.052,0.54-13.411,0.54-15.922c0-2.124-0.071-5.352-0.21-9.598c-0.141-4.294-0.212-7.574-0.212-9.747
			c0-1.716,1.258-2.962,2.991-2.962c0.666,0,1.624,0.031,2.928,0.093c1.213,0.058,2.124,0.087,2.708,0.087
			c0.581,0,1.471-0.03,2.642-0.087c1.267-0.063,2.205-0.093,2.872-0.093c2.082,0,3.172,1.49,3.172,2.962
			c0,2.175-0.117,5.471-0.35,9.795c-0.228,4.233-0.343,7.446-0.343,9.55c0,2.34,0.061,5.918,0.18,10.638
			c0.12,4.759,0.182,8.377,0.182,10.756c0,1.702-0.911,2.462-1.456,2.764l-0.104,0.055c-0.391,0.191-0.725,0.238-1.508,0.336
			C76.479,82.666,74.672,82.751,72.365,82.751z M68.263,78.065c0.764,0.047,2.026,0.088,4.103,0.088
			c1.576,0,2.915-0.043,3.994-0.127c-0.017-2.293-0.075-5.419-0.175-9.327c-0.12-4.759-0.181-8.377-0.181-10.755
			c0-2.186,0.117-5.482,0.349-9.796c0.174-3.241,0.282-5.88,0.324-7.879c-0.358,0.014-0.76,0.031-1.199,0.053
			c-1.266,0.063-2.203,0.093-2.87,0.093s-1.624-0.031-2.929-0.093c-0.396-0.019-0.76-0.035-1.09-0.047
			c0.025,2.019,0.092,4.672,0.198,7.921c0.141,4.296,0.212,7.575,0.212,9.749c0,2.579-0.183,8.007-0.545,16.132
			C68.372,75.844,68.308,77.172,68.263,78.065z"/>
	</g>
	<g>
		<path fill="#F99D1C" d="M124.102,79.247c0.04,0.542-0.241,0.813-0.843,0.813c-0.382,0-1.482-0.221-3.3-0.663
			c-1.818-0.441-2.938-0.743-3.36-0.903c-4.198,1.647-8.226,2.471-12.083,2.471c-6.207,0-11.3-2.068-15.277-6.207
			c-3.937-4.078-5.905-9.23-5.905-15.458c0-6.368,1.908-11.65,5.725-15.85c3.938-4.339,9.05-6.508,15.338-6.508
			c3.053,0,5.925,0.583,8.618,1.748c2.912,1.286,5.202,3.093,6.869,5.423c0.342,0.482,0.513,0.824,0.513,1.024
			c0,0.644-0.899,2.084-2.697,4.325c-1.797,2.24-2.957,3.359-3.479,3.359c-0.12,0-0.583-0.412-1.387-1.235
			c-0.984-0.984-1.988-1.748-3.014-2.29c-1.526-0.824-3.213-1.236-5.062-1.236c-3.014,0-5.403,1.125-7.172,3.375
			c-1.646,2.068-2.471,4.65-2.471,7.744c0,3.274,0.853,5.865,2.561,7.773c1.767,1.969,4.269,2.953,7.503,2.953
			c2.049,0,4.339-0.513,6.87-1.537c-0.06-0.662-0.241-2.35-0.542-5.063c-0.262-2.088-0.393-3.776-0.393-5.061
			c0-0.381,0.131-0.613,0.393-0.693c0.1-0.04,0.261-0.061,0.482-0.061c0.582,0,1.461,0.056,2.636,0.166
			c1.176,0.11,2.064,0.165,2.667,0.165c0.643,0,1.607-0.045,2.893-0.135c1.285-0.09,2.25-0.136,2.893-0.136
			c0.502,0,0.753,0.332,0.753,0.994c0,0.965-0.055,2.421-0.165,4.369c-0.11,1.949-0.166,3.405-0.166,4.369
			c0,2.592,0.191,6.469,0.573,11.632L124.102,79.247z M85.58,65.501c3.322-0.01,6.658-0.145,9.975,0.103
			c-0.957,0.179-2.012,0.732-3.043,0.918c1.681,1.394,4.437,1.439,6.721,1.379c-4.695,1.275-10.259-0.046-14.868-0.539
			c0.807-0.125,2.047-0.675,2.915-0.83c-0.75-0.19-1.493-0.417-2.217-0.687c2.323-0.545,4.96-0.345,7.414-0.345"/>
		<path fill="#3D1312" d="M104.517,83.263c-6.828,0-12.525-2.326-16.935-6.913c-4.344-4.498-6.547-10.237-6.547-17.051
			c0-6.927,2.127-12.781,6.323-17.396c4.371-4.817,10.104-7.261,17.038-7.261c3.354,0,6.56,0.651,9.531,1.937
			c3.296,1.456,5.924,3.538,7.826,6.195c0.469,0.664,0.941,1.454,0.941,2.362c0,1.094-0.536,2.44-3.203,5.763
			c-2.562,3.194-3.844,4.22-5.272,4.22c-1.101,0-1.76-0.626-3.031-1.929c-0.799-0.798-1.628-1.433-2.444-1.864
			c-1.213-0.654-2.513-0.969-3.986-0.969c-2.321,0-4.025,0.793-5.364,2.497c-1.335,1.678-1.979,3.742-1.979,6.324
			c0,2.714,0.646,4.755,1.976,6.241c1.32,1.471,3.215,2.187,5.79,2.187c1.315,0,2.79-0.263,4.401-0.782
			c-0.09-0.835-0.209-1.924-0.357-3.265c-0.273-2.174-0.407-3.923-0.407-5.315c0-1.622,0.979-2.533,1.926-2.861
			c0.359-0.13,0.76-0.191,1.248-0.191c0.657,0,1.589,0.058,2.852,0.177c1.363,0.128,2.086,0.155,2.451,0.155
			c0.59,0,1.51-0.044,2.731-0.131c1.36-0.095,2.358-0.141,3.054-0.141c1.47,0,3.052,1.031,3.052,3.292
			c0,1.009-0.057,2.523-0.169,4.5c-0.107,1.901-0.162,3.327-0.162,4.238c0,2.519,0.19,6.375,0.566,11.462l0.026,0.296
			c0.069,0.928-0.202,1.753-0.764,2.357c-0.407,0.438-1.147,0.96-2.368,0.96c-0.411,0-1.08-0.057-3.843-0.728
			c-1.357-0.329-2.198-0.551-2.743-0.706C112.494,82.477,108.407,83.263,104.517,83.263z M104.396,39.24
			c-5.662,0-10.122,1.882-13.635,5.754c-3.452,3.797-5.129,8.475-5.129,14.305c0,5.661,1.72,10.194,5.261,13.861
			c3.561,3.706,8.016,5.505,13.623,5.505c3.552,0,7.334-0.777,11.243-2.312l0.827-0.325l0.831,0.316
			c0.117,0.045,0.688,0.236,3.084,0.818c0.454,0.11,0.838,0.201,1.161,0.274c-0.308-4.41-0.462-7.812-0.462-10.154
			c0-1.012,0.056-2.483,0.17-4.499c0.063-1.128,0.109-2.09,0.136-2.879c-0.35,0.02-0.736,0.044-1.161,0.074
			c-1.346,0.095-2.346,0.141-3.053,0.141c-0.685,0-1.626-0.058-2.882-0.175c-0.355-0.033-0.666-0.061-0.937-0.081
			c0.06,0.909,0.165,1.964,0.313,3.156c0.308,2.769,0.49,4.472,0.552,5.141l0.153,1.697l-1.581,0.641
			c-2.795,1.131-5.396,1.705-7.732,1.705c-3.9,0-7.001-1.251-9.213-3.717c-2.092-2.335-3.15-5.467-3.15-9.309
			c0-3.612,0.999-6.699,2.972-9.175c2.208-2.811,5.229-4.243,8.97-4.243c2.224,0,4.294,0.508,6.153,1.511
			c1.168,0.618,2.329,1.488,3.438,2.58c0.373-0.401,0.881-0.985,1.558-1.83c1.153-1.436,1.716-2.277,1.988-2.738
			c-1.402-1.897-3.358-3.411-5.809-4.493C109.711,39.765,107.119,39.24,104.396,39.24z"/>
	</g>
	<g>
		<path fill="#F99D1C" d="M69.865,97.497c0,0.06-1.869,4.107-5.605,12.143c-3.797,8.196-5.966,12.807-6.509,13.831
			c-0.18,0.361-0.291,0.562-0.331,0.603c-0.081,0.101-0.271,0.191-0.572,0.271c-0.502,0.12-1.929,0.18-4.279,0.18
			c-2.189,0-3.525-0.06-4.008-0.18c-0.401-0.101-0.643-0.181-0.723-0.241c-0.081-0.061-0.211-0.251-0.392-0.572
			c-0.121-0.222-0.693-1.638-1.718-4.249l-3.284-8.377l-3.345,8.468c-0.342,0.964-0.904,2.35-1.688,4.158
			c-0.201,0.342-0.342,0.547-0.422,0.617c-0.08,0.071-0.313,0.136-0.693,0.196c-0.683,0.12-1.999,0.18-3.947,0.18
			c-2.41,0-3.857-0.06-4.339-0.18c-0.342-0.08-0.623-0.372-0.844-0.874c-7.875-16.171-11.812-24.829-11.812-25.974
			c0-1.607,0.055-4.013,0.166-7.218c0.109-3.203,0.165-5.609,0.165-7.216c0-0.664,0.201-0.995,0.603-0.995
			c1.145,0,2.878,0.05,5.197,0.15c2.32,0.101,4.064,0.151,5.229,0.151c0.462,0,0.693,0.191,0.693,0.572
			c0,1.607-0.075,4.033-0.227,7.277c-0.15,3.244-0.226,5.67-0.226,7.277c0,0.602,0.733,2.521,2.199,5.755
			c1.326,2.893,2.291,4.852,2.894,5.876c0.301,0.522,0.502,0.783,0.603,0.783c0.16,0,0.572-0.965,1.235-2.894
			c1.888-5.403,2.852-8.597,2.893-9.581c0.08-1.849,0.09-4.198,0.03-7.051c-0.06-4.118-0.09-6.479-0.09-7.082
			c0-0.381,0.029-0.607,0.09-0.678c0.06-0.07,0.28-0.136,0.663-0.196c1.024-0.12,2.792-0.18,5.303-0.18
			c3.837,0,5.756,0.271,5.756,0.813c0,1.346-0.051,3.435-0.151,6.267c-0.101,2.753-0.141,4.842-0.12,6.268v1.537
			c0,1.024,1.034,4.289,3.104,9.793c0.703,1.909,1.125,2.862,1.266,2.862c0.101,0,0.301-0.261,0.602-0.783
			c0.563-0.984,1.466-2.933,2.712-5.846c1.386-3.174,2.079-5.063,2.079-5.664c0-1.628-0.075-4.063-0.226-7.308
			c-0.15-3.244-0.225-5.67-0.225-7.277c0-0.361,0.229-0.542,0.692-0.542c1.185,0,2.968-0.051,5.349-0.151
			c2.38-0.101,4.163-0.15,5.349-0.15c0.381,0,0.572,0.402,0.572,1.206c0,1.586,0.055,3.962,0.165,7.125
			C69.809,93.563,69.865,95.929,69.865,97.497z"/>
		<path fill="#3D1312" d="M52.568,126.823c-3.135,0-4.046-0.119-4.564-0.249c-0.671-0.168-1.139-0.325-1.549-0.635
			c-0.422-0.318-0.709-0.743-1.013-1.283c-0.122-0.223-0.262-0.476-1.854-4.535l-1.152-2.939l-1.199,3.036
			c-0.336,0.951-0.906,2.358-1.717,4.228l-0.127,0.25c-0.357,0.607-0.598,0.928-0.889,1.182c-0.513,0.451-1.11,0.621-1.849,0.738
			c-0.485,0.085-1.507,0.208-4.307,0.208c-3.426,0-4.377-0.119-4.896-0.249c-0.71-0.166-1.734-0.686-2.391-2.178
			C13.057,99.744,13.057,98.444,13.057,97.497c0-1.644,0.057-4.099,0.168-7.298c0.108-3.179,0.163-5.58,0.163-7.136
			c0-2.263,1.504-3.294,2.901-3.294c1.188,0,2.922,0.051,5.297,0.152c2.276,0.1,4.002,0.149,5.129,0.149
			c1.734,0,2.992,1.208,2.992,2.871c0,1.636-0.077,4.119-0.23,7.384c-0.144,3.119-0.22,5.492-0.224,7.059
			c0.059,0.264,0.37,1.336,1.995,4.918c0.382,0.834,0.734,1.589,1.054,2.263c1.938-5.656,2.16-6.958,2.181-7.232
			c0.077-1.786,0.087-4.109,0.028-6.899c-0.062-4.151-0.091-6.524-0.091-7.13c0-0.735,0.077-1.507,0.636-2.165
			c0.572-0.667,1.328-0.864,2.059-0.979c1.213-0.145,3.036-0.208,5.66-0.208c3.96,0,8.055,0,8.055,3.112
			c0,1.367-0.052,3.503-0.153,6.349c-0.099,2.709-0.138,4.777-0.118,6.152v1.57c0.016,0.268,0.242,1.621,2.327,7.293
			c0.274-0.62,0.588-1.337,0.943-2.17c1.557-3.563,1.843-4.61,1.895-4.861c-0.003-1.586-0.078-3.974-0.224-7.1
			c-0.151-3.252-0.228-5.736-0.228-7.385c0-1.411,1.027-2.841,2.991-2.841c1.148,0,2.914-0.05,5.251-0.149
			c2.401-0.101,4.233-0.152,5.446-0.152c0.293,0,2.871,0.099,2.871,3.505c0,1.562,0.055,3.932,0.163,7.045
			c0.113,3.229,0.168,5.577,0.168,7.178c0,0.597,0,0.597-5.819,13.111c-3.851,8.314-5.997,12.874-6.561,13.937
			c-0.249,0.499-0.412,0.791-0.635,1.043c-0.527,0.607-1.226,0.849-1.713,0.978C56.855,126.706,55.906,126.823,52.568,126.823z
			 M49.344,122.141c0.364,0.033,1.245,0.085,3.225,0.085c1.817,0,2.778-0.038,3.275-0.072c0.726-1.442,2.845-5.957,6.331-13.48
			c3.613-7.773,4.963-10.702,5.39-11.649c-0.01-1.522-0.064-3.72-0.162-6.545c-0.089-2.504-0.142-4.545-0.16-6.088
			c-0.973,0.024-2.153,0.066-3.533,0.124c-1.498,0.063-2.774,0.107-3.817,0.132c0.032,1.437,0.1,3.255,0.2,5.436
			c0.152,3.265,0.229,5.759,0.229,7.414c0,0.729-0.175,1.781-2.271,6.585c-1.284,3.003-2.21,4.992-2.822,6.064
			c-0.423,0.733-1.121,1.942-2.599,1.942c-1.815,0-2.353-1.459-3.423-4.366c-2.851-7.585-3.245-9.572-3.245-10.588v-1.537
			c-0.021-1.439,0.019-3.528,0.122-6.351c0.066-1.842,0.11-3.374,0.133-4.581c-0.681-0.063-1.76-0.118-3.44-0.118
			c-1.727,0-2.922,0.03-3.746,0.069c0.014,1.188,0.04,3.102,0.078,5.735c0.06,2.872,0.051,5.295-0.031,7.184
			c-0.037,0.894-0.425,2.813-3.02,10.24c-0.981,2.854-1.523,4.433-3.405,4.433c-1.481,0-2.205-1.259-2.595-1.935
			c-0.636-1.081-1.617-3.07-2.99-6.064c-2.226-4.907-2.409-5.976-2.409-6.713c0-1.636,0.077-4.119,0.229-7.385
			c0.103-2.199,0.17-4.029,0.202-5.466c-1.016-0.024-2.254-0.068-3.701-0.131c-1.332-0.058-2.473-0.1-3.412-0.123
			c-0.021,1.531-0.071,3.495-0.156,5.965c-0.105,3.045-0.161,5.392-0.165,6.981c0.228,0.903,1.86,5.155,11.432,24.821
			c0.518,0.032,1.486,0.066,3.265,0.066c1.735,0,2.667-0.05,3.163-0.098c0.65-1.512,1.127-2.697,1.42-3.525l5.52-13.975
			l5.416,13.813C48.746,120.677,49.153,121.686,49.344,122.141z"/>
	</g>
	<g>
		<path fill="#F99D1C" d="M86.528,102.077c0,2.37,0.061,5.936,0.181,10.696c0.12,4.762,0.181,8.327,0.181,10.697
			c0,0.402-0.09,0.652-0.271,0.753c-0.04,0.021-0.301,0.061-0.782,0.121c-1.307,0.16-3.054,0.24-5.244,0.24
			c-2.933,0-4.801-0.08-5.605-0.24c-0.583-0.121-0.874-0.433-0.874-0.935c0,0.321,0.091-1.446,0.272-5.304
			c0.361-8.136,0.542-13.478,0.542-16.029c0-2.15-0.069-5.374-0.211-9.674c-0.141-4.298-0.211-7.521-0.211-9.672
			c0-0.441,0.231-0.663,0.693-0.663c0.622,0,1.563,0.03,2.817,0.091c1.256,0.06,2.194,0.091,2.817,0.091
			c0.623,0,1.542-0.031,2.757-0.091c1.216-0.061,2.135-0.091,2.758-0.091c0.582,0,0.873,0.222,0.873,0.663
			c0,2.15-0.115,5.374-0.347,9.672C86.643,96.703,86.528,99.926,86.528,102.077z"/>
		<path fill="#3D1312" d="M80.592,126.883c-4.103,0-5.391-0.153-6.056-0.286c-0.685-0.141-1.269-0.438-1.718-0.852h-0.966
			l-0.036-2.269c0-0.006-0.001-0.014-0.001-0.02v-0.048h1.938l-1.924-0.197c0.01-0.124,0.056-0.879,0.259-5.214
			c0.358-8.052,0.54-13.411,0.54-15.922c0-2.124-0.071-5.353-0.211-9.598c-0.14-4.295-0.212-7.574-0.212-9.748
			c0-1.717,1.259-2.962,2.992-2.962c0.66,0,1.617,0.03,2.928,0.094c1.219,0.059,2.13,0.088,2.707,0.088
			c0.577,0,1.466-0.029,2.642-0.088c1.272-0.063,2.211-0.094,2.872-0.094c2.082,0,3.172,1.49,3.172,2.962
			c0,2.176-0.117,5.471-0.351,9.795c-0.227,4.233-0.342,7.446-0.342,9.551c0,2.34,0.061,5.918,0.18,10.638
			c0.12,4.759,0.182,8.377,0.182,10.756c0,1.702-0.911,2.462-1.456,2.764l-0.104,0.055c-0.391,0.191-0.725,0.238-1.508,0.336
			C84.706,126.798,82.898,126.883,80.592,126.883z M76.489,122.198c0.764,0.047,2.026,0.088,4.103,0.088
			c1.576,0,2.914-0.043,3.994-0.127c-0.018-2.293-0.076-5.419-0.175-9.327c-0.12-4.759-0.181-8.377-0.181-10.755
			c0-2.187,0.117-5.482,0.349-9.796c0.174-3.241,0.282-5.881,0.324-7.88c-0.359,0.014-0.76,0.032-1.199,0.054
			c-1.271,0.063-2.21,0.093-2.871,0.093c-0.659,0-1.617-0.03-2.928-0.093c-0.395-0.02-0.76-0.035-1.09-0.048
			c0.025,2.019,0.092,4.673,0.198,7.921c0.141,4.296,0.212,7.575,0.212,9.749c0,2.579-0.183,8.007-0.545,16.132
			C76.598,119.977,76.534,121.305,76.489,122.198z"/>
	</g>
	<g>
		<path fill="#F99D1C" d="M132.992,83.003c0,2.29-0.096,5.73-0.286,10.32c-0.191,4.59-0.286,8.041-0.286,10.35v19.858
			c0,0.542-0.291,0.813-0.874,0.813c-0.482,0-1.21,0.02-2.185,0.06c-0.975,0.041-1.702,0.061-2.185,0.061
			c-0.522,0-1.307-0.041-2.351-0.12c-1.044-0.08-1.828-0.121-2.35-0.121c-0.362,0-0.794-0.331-1.296-0.994
			c-1.446-1.949-4.701-6.267-9.764-12.957c-1.386-1.868-3.495-4.62-6.327-8.256c-0.081-0.121-0.231-0.241-0.453-0.362
			c-0.16,0.142-0.24,0.362-0.24,0.663c0,2.331,0.064,5.826,0.195,10.486c0.131,4.66,0.196,8.155,0.196,10.485
			c0,0.704-0.271,1.056-0.813,1.056H93.549c-0.582,0-0.874-0.313-0.874-0.935c0-2.17,0.105-5.443,0.316-9.823
			c0.212-4.379,0.316-7.664,0.316-9.854c0-2.31-0.095-5.765-0.286-10.365c-0.191-4.6-0.286-8.045-0.286-10.336
			c0-0.441,0.392-0.662,1.175-0.662c1.165,0,2.602-0.08,4.309-0.242c0.402-0.039,1.195-0.169,2.382-0.391
			c1.004-0.181,1.797-0.271,2.38-0.271c0.241,0,0.612,0.342,1.114,1.024l11.24,15.397c1.005,1.387,2.521,3.416,4.549,6.087
			c0.502,0.623,0.936,0.934,1.297,0.934c0.261,0,0.392-0.782,0.392-2.35c0-2.109-0.116-5.283-0.347-9.521
			c-0.231-4.238-0.347-7.423-0.347-9.552c0-0.744,0.211-1.115,0.633-1.115c1.205,0,3.023-0.051,5.454-0.151
			c2.431-0.101,4.249-0.15,5.454-0.15C132.801,82.068,132.992,82.379,132.992,83.003z"/>
		<path fill="#3D1312" d="M127.177,126.762c-0.583,0-1.409-0.041-2.525-0.126c-0.985-0.075-1.717-0.114-2.175-0.114
			c-1.686,0-2.771-1.435-3.129-1.907c-1.452-1.956-4.643-6.188-9.763-12.955c-0.739-0.997-1.671-2.228-2.815-3.719
			c0.03,1.436,0.071,3.037,0.12,4.798c0.131,4.671,0.197,8.22,0.197,10.55c0,2.304-1.614,3.354-3.112,3.354H93.549
			c-1.868,0-3.173-1.328-3.173-3.232c0-2.22,0.104-5.47,0.319-9.934c0.209-4.316,0.313-7.594,0.313-9.743
			c0-2.274-0.096-5.729-0.284-10.271c-0.19-4.588-0.287-8.098-0.287-10.431c0-1.1,0.731-2.961,3.473-2.961
			c1.094,0,2.471-0.078,4.093-0.231c0.181-0.018,0.716-0.089,2.175-0.362c1.167-0.21,2.078-0.311,2.803-0.311
			c1.523,0,2.498,1.324,2.966,1.961l11.245,15.405c0.535,0.738,1.209,1.651,2.018,2.73c-0.057-1.696-0.15-3.736-0.278-6.102
			c-0.232-4.248-0.351-7.505-0.351-9.677c0-2.694,1.843-3.414,2.932-3.414c1.168,0,2.972-0.05,5.359-0.149
			c2.451-0.101,4.317-0.152,5.549-0.152c1.383,0,2.871,1.012,2.871,3.233c0,2.329-0.095,5.736-0.288,10.415
			c-0.189,4.53-0.285,7.98-0.285,10.255v19.858c0,1.803-1.334,3.111-3.172,3.111c-0.462,0-1.157,0.021-2.089,0.059
			C128.439,126.743,127.68,126.762,127.177,126.762z M123.087,121.937c0.51,0.018,1.143,0.056,1.914,0.114
			c0.985,0.075,1.718,0.114,2.176,0.114c0.462,0,1.156-0.02,2.09-0.059c0.309-0.013,0.593-0.023,0.854-0.032v-18.402
			c0-2.338,0.097-5.853,0.288-10.445c0.153-3.694,0.245-6.656,0.274-8.836c-0.994,0.023-2.206,0.066-3.623,0.124
			c-1.518,0.063-2.812,0.106-3.87,0.131c0.031,2.078,0.143,4.834,0.33,8.265c0.236,4.327,0.351,7.482,0.351,9.647
			c0,1.509,0,4.648-2.69,4.648c-1.644,0-2.729-1.348-3.087-1.79c-2.046-2.692-3.587-4.755-4.62-6.181l-11.235-15.392
			c-0.008-0.01-0.015-0.019-0.021-0.028c-0.311,0.035-0.707,0.093-1.21,0.184c-1.663,0.311-2.261,0.387-2.563,0.416
			c-1.263,0.12-2.399,0.197-3.396,0.231c0.031,2.176,0.122,5.067,0.271,8.626c0.191,4.603,0.288,8.123,0.288,10.46
			c0,2.223-0.107,5.575-0.319,9.964c-0.168,3.487-0.269,6.286-0.302,8.349h7.499c-0.019-2.248-0.082-5.324-0.189-9.178
			c-0.131-4.639-0.197-8.188-0.197-10.551c0-0.963,0.364-1.812,1.023-2.391l1.206-1.059l1.41,0.769
			c0.517,0.281,0.91,0.613,1.198,1.01c2.872,3.687,4.942,6.388,6.328,8.257c5.115,6.76,8.313,11.005,9.762,12.956
			C123.049,121.887,123.068,121.914,123.087,121.937z"/>
	</g>
</g>
</svg>
