<?xml version="1.0" encoding="utf-8"?>
<!-- Generator: Adobe Illustrator 25.2.0, SVG Export Plug-In . SVG Version: 6.00 Build 0)  -->
<svg version="1.1" id="Layer_1" xmlns="http://www.w3.org/2000/svg" xmlns:xlink="http://www.w3.org/1999/xlink" x="0px" y="0px"
	 viewBox="0 0 181.6 132.1" style="enable-background:new 0 0 181.6 132.1;" xml:space="preserve">
<style type="text/css">
	.st0{opacity:5.340000e-04;}
	.st1{fill:#DF7200;}
	.st2{opacity:1.609000e-03;}
	.st3{opacity:3.240000e-03;}
	.st4{opacity:5.451000e-03;}
	.st5{opacity:8.275000e-03;}
	.st6{opacity:1.176100e-02;}
	.st7{opacity:1.597500e-02;}
	.st8{opacity:2.100800e-02;}
	.st9{opacity:2.699200e-02;}
	.st10{opacity:3.412300e-02;}
	.st11{opacity:4.270900e-02;}
	.st12{opacity:5.329100e-02;}
	.st13{opacity:6.697600e-02;}
	.st14{opacity:8.686200e-02;}
	.st15{fill:#FFFFFF;}
</style>
<g>
	<g class="st0">
		<g>
			<path class="st1" d="M126.4,129.9c-6.1,0-11.8-4.1-13.3-10.4l-2.8-10.8c-1.3-5.1,0.5-10.6,4.5-14l15.4-12.8l-22.3-1.4
				c-5.5-0.3-10.3-4-12.1-9.2l-6.4-18.2l-8.5,19.2c-2.1,4.7-6.6,7.8-11.6,8.1l-18,1.2l15.6,13c4.1,3.4,5.9,8.8,4.5,14l-2.8,10.8
				c-1.9,7.4-9.4,11.8-16.7,10c-7.4-1.9-11.8-9.4-10-16.7l0.6-2.4L7.2,81c-4.3-3.6-6-9.5-4.3-14.8C4.6,60.8,9.4,57,15,56.6l44-3
				l19.2-43.2c2.3-5.2,7.5-8.4,13.1-8.2c5.6,0.2,10.6,3.9,12.4,9.2l14.9,42.2l47.8,3c5.6,0.4,10.5,4.1,12.2,9.5
				c1.8,5.4,0.1,11.3-4.3,14.9l-35.4,29.4l0.6,2.4c1.9,7.4-2.6,14.9-10,16.7C128.6,129.8,127.5,129.9,126.4,129.9z"/>
		</g>
	</g>
	<g class="st2">
		<g>
			<path class="st1" d="M126.4,129.1c-5.8,0-11.1-3.9-12.6-9.8l-2.8-10.8c-1.2-4.8,0.4-10,4.3-13.2l17-14.1L108,79.7
				c-5.2-0.3-9.7-3.7-11.4-8.6L89.4,51l-9.4,21.1c-2,4.4-6.2,7.3-11,7.7l-20,1.4l17.2,14.3c3.8,3.2,5.5,8.3,4.3,13.2l-2.8,10.8
				c-1.8,6.9-8.8,11.1-15.8,9.4c-6.9-1.8-11.1-8.8-9.4-15.8l0.7-2.9L7.7,80.3c-4.1-3.4-5.7-8.9-4-14c1.6-5,6.2-8.6,11.4-8.9l44.5-3
				L79,10.7C81.1,5.8,86,2.8,91.3,3c5.3,0.2,9.9,3.6,11.7,8.6l15.1,42.7l48.4,3c5.3,0.3,9.9,3.9,11.5,8.9c1.6,5,0,10.6-4,14
				l-35.8,29.7l0.7,2.9c1.8,6.9-2.4,14-9.4,15.8C128.5,129,127.4,129.1,126.4,129.1z"/>
		</g>
	</g>
	<g class="st3">
		<g>
			<path class="st1" d="M126.4,128.3c-5.4,0-10.4-3.7-11.8-9.2l-2.8-10.8c-1.2-4.5,0.4-9.3,4-12.3l18.5-15.4L108,78.9
				c-4.9-0.3-9.1-3.5-10.7-8.1l-7.8-22L79.3,71.7c-1.8,4.1-5.8,6.9-10.3,7.2l-22,1.5L65.8,96c3.6,3,5.2,7.8,4,12.3l-2.8,10.8
				c-1.7,6.5-8.3,10.4-14.8,8.8c-6.5-1.7-10.4-8.3-8.8-14.8l0.9-3.4L8.2,79.7c-3.8-3.2-5.3-8.4-3.8-13.1c1.5-4.7,5.8-8,10.7-8.4
				l45-3.1L79.7,11c2-4.5,6.6-7.4,11.6-7.2c5,0.2,9.3,3.4,11,8.1l15.3,43.2l48.9,3.1c5,0.3,9.2,3.6,10.8,8.4c1.5,4.7,0,9.9-3.8,13.1
				l-36.2,30.1l0.9,3.4c1.7,6.5-2.3,13.1-8.8,14.8C128.4,128.2,127.4,128.3,126.4,128.3z"/>
		</g>
	</g>
	<g class="st4">
		<g>
			<path class="st1" d="M126.4,127.5c-5.1,0-9.7-3.4-11-8.5l-2.8-10.8c-1.1-4.2,0.4-8.7,3.7-11.5l20.1-16.7l-28.4-1.8
				c-4.5-0.3-8.5-3.3-10-7.5l-8.5-24l-11,24.8c-1.7,3.8-5.4,6.4-9.6,6.7l-24,1.6l20.3,16.9c3.4,2.8,4.8,7.3,3.7,11.5L66.3,119
				c-1.5,6.1-7.7,9.7-13.8,8.2c-6.1-1.5-9.7-7.7-8.2-13.8l1-3.9L8.7,79.1c-3.6-3-5-7.8-3.5-12.2c1.4-4.4,5.4-7.5,10-7.8l45.4-3.1
				l19.8-44.6c1.9-4.2,6.2-6.9,10.8-6.7c4.6,0.2,8.7,3.2,10.2,7.6L117,55.9l49.4,3.1c4.6,0.3,8.6,3.4,10.1,7.8
				c1.4,4.4,0,9.3-3.5,12.2l-36.6,30.4l1,3.9c1.5,6.1-2.1,12.2-8.2,13.8C128.2,127.4,127.3,127.5,126.4,127.5z"/>
		</g>
	</g>
	<g class="st5">
		<g>
			<path class="st1" d="M126.4,126.7c-4.7,0-9-3.2-10.2-7.9l-2.8-10.8c-1-3.9,0.3-8.1,3.5-10.7l21.7-18l-30.5-1.9
				c-4.2-0.3-7.9-3-9.3-7l-9.1-25.9L77.8,71.1c-1.6,3.6-5,6-8.9,6.2l-26,1.8l21.8,18.2c3.1,2.6,4.5,6.8,3.5,10.7l-2.8,10.8
				c-1.4,5.6-7.2,9-12.8,7.6c-5.6-1.4-9-7.2-7.6-12.8l1.1-4.4l-37-30.7c-3.3-2.8-4.6-7.2-3.3-11.3c1.3-4.1,5-7,9.3-7.3l45.9-3.1
				l20-45c1.8-3.9,5.7-6.4,10-6.2c4.3,0.2,8.1,3,9.5,7l15.6,44.3l50,3.1c4.3,0.3,8,3.1,9.4,7.2c1.3,4.1,0,8.6-3.3,11.4l-37,30.7
				l1.1,4.4c1.4,5.6-2,11.4-7.6,12.8C128.1,126.6,127.2,126.7,126.4,126.7z"/>
		</g>
	</g>
	<g class="st6">
		<g>
			<path class="st1" d="M127.4,125.6c-4.3,0-8.3-2.9-9.4-7.3l-2.8-10.8c-0.9-3.6,0.3-7.5,3.2-9.9l23.3-19.3l-32.5-2
				c-3.9-0.2-7.3-2.8-8.6-6.5l-9.8-27.8L78.1,70.4c-1.5,3.3-4.6,5.5-8.2,5.7l-28,1.9l23.4,19.5c2.9,2.4,4.1,6.2,3.2,9.9l-2.8,10.8
				c-1.3,5.2-6.6,8.4-11.8,7c-5.2-1.3-8.3-6.6-7-11.8l1.2-4.9L10.7,77.5C7.7,75,6.5,70.8,7.7,67c1.2-3.8,4.6-6.4,8.6-6.7l46.4-3.2
				l20.2-45.5c1.6-3.6,5.3-5.9,9.3-5.8c4,0.2,7.5,2.7,8.8,6.5l15.8,44.8l50.5,3.2c4,0.2,7.4,2.9,8.6,6.7c1.2,3.8,0,7.9-3,10.5
				l-37.3,31.1l1.2,4.9c1.3,5.2-1.8,10.5-7,11.8C129,125.5,128.2,125.6,127.4,125.6z"/>
		</g>
	</g>
	<g class="st7">
		<g>
			<path class="st1" d="M126.4,125.1c-4,0-7.6-2.7-8.6-6.7l-2.8-10.8c-0.8-3.3,0.3-6.9,2.9-9.1l24.8-20.6l-34.5-2.2
				c-3.6-0.2-6.7-2.6-7.8-5.9L89.9,40L76.4,70.4c-1.3,3-4.2,5-7.5,5.3l-30.1,2.1l25,20.8c2.6,2.2,3.8,5.7,2.9,9.1l-2.8,10.8
				c-1.2,4.8-6.1,7.7-10.8,6.4c-4.8-1.2-7.7-6.1-6.4-10.8l1.4-5.4L10.3,77.2c-2.8-2.3-3.9-6.1-2.8-9.6c1.1-3.5,4.2-5.9,7.9-6.2
				l46.9-3.2l20.4-45.9c1.5-3.3,4.9-5.4,8.5-5.3c3.6,0.1,6.8,2.5,8.1,5.9l16,45.3l51,3.2c3.6,0.2,6.8,2.7,7.9,6.1
				c1.1,3.5,0,7.3-2.8,9.6l-37.7,31.4l1.4,5.4c1.2,4.8-1.7,9.6-6.4,10.8C127.8,125,127.1,125.1,126.4,125.1z"/>
		</g>
	</g>
	<g class="st8">
		<g>
			<path class="st1" d="M126.4,124.3c-3.6,0-6.9-2.4-7.8-6.1l-2.8-10.8c-0.8-3,0.3-6.2,2.7-8.2l26.4-21.9l-36.6-2.3
				c-3.2-0.2-6.1-2.3-7.1-5.4L90,37.9L75.6,70.1c-1.2,2.7-3.9,4.6-6.9,4.8l-32.1,2.2l26.5,22c2.4,2,3.4,5.2,2.7,8.2l-2.8,10.8
				c-1.1,4.3-5.5,7-9.8,5.9c-4.3-1.1-7-5.5-5.9-9.9l1.5-5.9L10.8,76.6c-2.5-2.1-3.5-5.6-2.5-8.7c1-3.2,3.9-5.4,7.2-5.6L62.8,59
				l20.6-46.4c1.3-3,4.4-4.9,7.7-4.8c3.3,0.1,6.2,2.3,7.3,5.4L114.6,59l51.6,3.2c3.3,0.2,6.2,2.4,7.2,5.6c1,3.2,0,6.6-2.5,8.7
				l-38.1,31.7l1.5,5.9c1.1,4.3-1.5,8.7-5.9,9.9C127.7,124.2,127,124.3,126.4,124.3z"/>
		</g>
	</g>
	<g class="st9">
		<g>
			<path class="st1" d="M126.4,123.5c-3.3,0-6.2-2.2-7.1-5.5l-2.8-10.8c-0.7-2.7,0.2-5.6,2.4-7.4l28-23.2l-38.6-2.4
				c-2.9-0.2-5.4-2.1-6.4-4.9L90,35.7L74.9,69.7c-1.1,2.5-3.5,4.1-6.2,4.3l-34.1,2.3l28.1,23.3c2.2,1.8,3.1,4.7,2.4,7.4L62.3,118
				c-1,3.9-5,6.3-8.9,5.3c-3.9-1-6.3-5-5.3-8.9l1.6-6.4L11.3,76C9,74.1,8.1,71,9,68.1c0.9-2.8,3.5-4.8,6.4-5l47.9-3.3L84.2,13
				c1.2-2.7,4-4.4,7-4.3c3,0.1,5.6,2,6.6,4.9L114,59.8l52.1,3.3c3,0.2,5.5,2.2,6.5,5c0.9,2.8,0,6-2.3,7.9l-38.5,32l1.6,6.4
				c1,3.9-1.4,7.9-5.3,8.9C127.6,123.4,127,123.5,126.4,123.5z"/>
		</g>
	</g>
	<g class="st10">
		<g>
			<path class="st1" d="M126.4,122.6c-2.9,0-5.5-2-6.3-4.9l-2.8-10.8c-0.6-2.4,0.2-5,2.1-6.6L149,75.8l-40.6-2.6
				c-2.6-0.2-4.8-1.9-5.7-4.3L90.1,33.5l-16,35.9c-1,2.2-3.1,3.7-5.5,3.8l-36.1,2.5l29.6,24.6c1.9,1.6,2.8,4.2,2.1,6.6l-2.8,10.8
				c-0.9,3.5-4.4,5.6-7.9,4.7c-3.5-0.9-5.6-4.4-4.7-7.9l1.7-6.9L11.8,75.3c-2-1.7-2.8-4.5-2-7c0.8-2.5,3.1-4.3,5.7-4.5l48.4-3.3
				l21-47.3c1.1-2.4,3.5-3.9,6.2-3.8c2.7,0.1,5,1.8,5.9,4.3l16.5,46.8l52.6,3.3c2.7,0.2,4.9,1.9,5.8,4.5c0.8,2.5,0,5.3-2,7
				l-38.9,32.4l1.7,6.9c0.9,3.5-1.2,7-4.7,7.9C127.4,122.6,126.9,122.6,126.4,122.6z"/>
		</g>
	</g>
	<g class="st11">
		<g>
			<path class="st1" d="M126.4,121.8c-2.5,0-4.8-1.7-5.5-4.3l-2.8-10.8c-0.5-2.1,0.2-4.4,1.9-5.8l31.1-25.9l-42.7-2.7
				c-2.3-0.1-4.2-1.6-5-3.8L90.2,31.3L73.4,69.1c-0.9,1.9-2.7,3.2-4.8,3.4l-38.1,2.6L61.7,101c1.7,1.4,2.4,3.6,1.9,5.8l-2.8,10.8
				c-0.8,3-3.9,4.9-6.9,4.1c-3-0.8-4.9-3.9-4.1-6.9l1.9-7.3L12.3,74.7c-1.8-1.5-2.5-3.9-1.8-6.1c0.7-2.2,2.7-3.8,5-3.9l48.9-3.3
				l21.2-47.7c0.9-2.1,3.1-3.4,5.4-3.4c2.3,0.1,4.4,1.6,5.1,3.8l16.7,47.3l53.2,3.3c2.3,0.1,4.3,1.7,5,3.9c0.7,2.2,0,4.6-1.8,6.1
				L130,107.4l1.9,7.3c0.8,3-1.1,6.1-4.1,6.9C127.3,121.8,126.8,121.8,126.4,121.8z"/>
		</g>
	</g>
	<g class="st12">
		<g>
			<path class="st1" d="M126.4,121c-2.2,0-4.1-1.5-4.7-3.7l-2.8-10.8c-0.5-1.8,0.2-3.7,1.6-4.9l32.7-27.2l-44.7-2.8
				c-1.9-0.1-3.6-1.4-4.3-3.2L90.3,29.1L72.7,68.8c-0.7,1.6-2.3,2.8-4.1,2.9l-40.2,2.7l32.7,27.2c1.4,1.2,2.1,3.1,1.6,4.9L60,117.4
				c-0.7,2.6-3.3,4.2-5.9,3.5c-2.6-0.7-4.2-3.3-3.5-5.9l2-7.8l-39.7-33c-1.5-1.3-2.1-3.3-1.5-5.2c0.6-1.9,2.3-3.2,4.3-3.4L65,62.1
				L86.4,14c0.8-1.8,2.7-3,4.6-2.9c2,0.1,3.7,1.4,4.4,3.2l16.9,47.8l53.7,3.4c2,0.1,3.7,1.4,4.3,3.3c0.6,1.9,0,4-1.5,5.2l-39.7,33
				l2,7.8c0.7,2.6-0.9,5.2-3.5,5.9C127.2,121,126.8,121,126.4,121z"/>
		</g>
	</g>
	<g class="st13">
		<g>
			<path class="st1" d="M126.4,120.2c-1.8,0-3.5-1.2-3.9-3.1l-2.8-10.8c-0.4-1.5,0.1-3.1,1.3-4.1l34.2-28.5l-46.7-2.9
				c-1.6-0.1-3-1.2-3.6-2.7L90.4,26.9L71.9,68.4c-0.6,1.4-1.9,2.3-3.4,2.4l-42.2,2.9l34.3,28.5c1.2,1,1.7,2.6,1.3,4.1l-2.8,10.8
				c-0.6,2.2-2.8,3.5-4.9,2.9c-2.2-0.6-3.5-2.8-2.9-4.9l2.1-8.3L13.4,73.5c-1.3-1.1-1.8-2.8-1.3-4.4c0.5-1.6,1.9-2.7,3.6-2.8
				l49.8-3.4l21.6-48.6c0.7-1.5,2.2-2.5,3.9-2.4c1.7,0.1,3.1,1.1,3.7,2.7l17,48.3l54.2,3.4c1.7,0.1,3.1,1.2,3.6,2.8
				c0.5,1.6,0,3.3-1.3,4.4l-40.1,33.3l2.1,8.3c0.6,2.2-0.8,4.4-2.9,4.9C127,120.2,126.7,120.2,126.4,120.2z"/>
		</g>
	</g>
	<g class="st14">
		<g>
			<path class="st1" d="M126.4,119.4c-1.4,0-2.8-1-3.1-2.4l-2.8-10.8c-0.3-1.2,0.1-2.5,1.1-3.3l35.8-29.8L108.6,70
				c-1.3-0.1-2.4-0.9-2.9-2.2L90.5,24.7L71.2,68.1c-0.5,1.1-1.5,1.8-2.7,1.9l-44.2,3l35.8,29.8c1,0.8,1.4,2.1,1.1,3.3L58.4,117
				c-0.4,1.7-2.2,2.8-3.9,2.3c-1.7-0.4-2.8-2.2-2.3-3.9l2.2-8.8L13.9,72.9c-1-0.8-1.4-2.2-1-3.5c0.4-1.3,1.5-2.1,2.9-2.2l50.3-3.4
				l21.8-49c0.5-1.2,1.7-2,3.1-1.9c1.3,0.1,2.5,0.9,2.9,2.2l17.2,48.8l54.8,3.4c1.3,0.1,2.5,1,2.9,2.2c0.4,1.3,0,2.6-1,3.5
				l-40.5,33.7l2.2,8.8c0.4,1.7-0.6,3.5-2.3,3.9C126.9,119.4,126.6,119.4,126.4,119.4z"/>
		</g>
	</g>
	<g>
		<g>
			<path class="st1" d="M126.4,117.8c-0.7,0-1.4-0.5-1.6-1.2l-2.8-10.8c-0.2-0.6,0.1-1.2,0.5-1.6l38.9-32.4l-52.8-3.3
				c-0.6,0-1.2-0.5-1.4-1.1l-16.6-47L69.7,67.4c-0.2,0.5-0.8,0.9-1.4,1l-48.2,3.3l39,32.4c0.5,0.4,0.7,1,0.5,1.6l-2.8,10.8
				c-0.2,0.9-1.1,1.4-2,1.2c-0.9-0.2-1.4-1.1-1.2-2l2.5-9.8L14.9,71.6c-0.5-0.4-0.7-1.1-0.5-1.7c0.2-0.6,0.8-1.1,1.4-1.1l51.3-3.5
				l22.2-49.9c0.3-0.6,0.9-1,1.5-1c0.7,0,1.2,0.5,1.5,1.1l17.6,49.8l55.9,3.5c0.7,0,1.2,0.5,1.4,1.1c0.2,0.6,0,1.3-0.5,1.7
				l-41.3,34.3l2.5,9.8c0.2,0.9-0.3,1.7-1.2,2C126.6,117.8,126.5,117.8,126.4,117.8z"/>
		</g>
	</g>
	<g>
		<g>
			<path class="st15" d="M126.4,116.7c-0.2,0-0.5-0.2-0.5-0.4l-2.8-10.8c-0.1-0.2,0-0.4,0.2-0.5l41-34.1l-55.6-3.5
				c-0.2,0-0.4-0.2-0.5-0.4L90.8,17.4L68.7,67c-0.1,0.2-0.3,0.3-0.5,0.3l-50.9,3.5l41,34.1c0.2,0.1,0.2,0.3,0.2,0.5l-2.8,10.8
				c-0.1,0.3-0.4,0.5-0.7,0.4c-0.3-0.1-0.5-0.4-0.4-0.7l2.7-10.5L15.6,70.8c-0.2-0.1-0.2-0.4-0.2-0.6c0.1-0.2,0.3-0.4,0.5-0.4
				l51.9-3.6l22.5-50.5c0.1-0.2,0.3-0.3,0.5-0.3c0.2,0,0.4,0.2,0.5,0.4l17.8,50.5l56.6,3.6c0.2,0,0.4,0.2,0.5,0.4
				c0.1,0.2,0,0.4-0.2,0.6l-41.8,34.8l2.7,10.5c0.1,0.3-0.1,0.6-0.4,0.7C126.5,116.7,126.4,116.7,126.4,116.7z"/>
		</g>
	</g>
</g>
</svg>
