<?xml version="1.0" encoding="utf-8"?>
<!-- Generator: Adobe Illustrator 25.2.0, SVG Export Plug-In . SVG Version: 6.00 Build 0)  -->
<svg version="1.1" id="admire" xmlns="http://www.w3.org/2000/svg" xmlns:xlink="http://www.w3.org/1999/xlink" x="0px" y="0px"
	 viewBox="0 0 139 37" style="enable-background:new 0 0 139 37;" xml:space="preserve">
<style type="text/css">
	.st0{fill-rule:evenodd;clip-rule:evenodd;}
</style>
<path id="e" class="st0" d="M125.4,18.1c1-1.1,2.3-1.7,3.9-1.7c1.5,0,2.8,0.5,3.8,1.6c1,1,1.5,2.5,1.5,4.2v0.4h-10.9
	C123.8,20.7,124.4,19.2,125.4,18.1 M135.1,34c-0.9,0.5-2.1,0.8-3.4,0.8c-1.4,0-2.7-0.5-4-1.4s-2.3-2.2-2.9-3.8c-0.7-1.6-1-3.5-1-5.8
	v-0.3h14.7v-0.4c0-2.2-0.9-4-2.6-5.6c-1.7-1.6-3.8-2.3-6.1-2.3c-2.8,0-5.2,1-7.2,3.1c-1.9,2.1-2.9,4.6-2.9,7.7c0,3,1,5.5,3.1,7.5
	c2,2,4.6,2.9,7.8,2.9c1.8,0,3.3-0.3,4.6-1s2.5-1.8,3.7-3.3v-1.5C137.2,32.3,136,33.4,135.1,34"/>
<path id="r" class="st0" d="M102.6,34.2c-0.4,0.4-1.4,0.7-2.8,0.7v0.9h10.6v-0.9c-1.3,0-2.2-0.2-2.7-0.6c-0.5-0.4-0.7-1.1-0.7-2.2
	V21c1.7-1.6,3.1-2.4,4.3-2.4c1,0,2.6,0.6,4.8,1.8l1.5-3.6c-1.2-1-2.4-1.6-3.7-1.6c-0.7,0-1.5,0.3-2.6,1c-1,0.6-2.5,1.8-4.3,3.4v-4.3
	h-1l-7,0.6v0.9c1.8,0,3,0.2,3.4,0.6c0.5,0.4,0.7,1.3,0.7,2.7V31C103.2,32.7,103,33.7,102.6,34.2"/>
<path id="i_1_" class="st0" d="M97.5,34.8c-1.3,0-2.1-0.2-2.6-0.6c-0.5-0.4-0.7-1.1-0.7-2.2V15.2h-1l-6.7,0.6v0.9
	c1.7,0,2.7,0.2,3.2,0.6c0.4,0.4,0.6,1.2,0.6,2.4V32c0,1.1-0.2,1.9-0.7,2.2c-0.5,0.4-1.5,0.5-3.1,0.5v0.9h11
	C97.5,35.6,97.5,34.8,97.5,34.8z"/>
<path id="i" class="st0" d="M92.3,9.8C93,9.8,93.5,9.5,94,9s0.7-1.1,0.7-1.8S94.5,5.9,94,5.5c-0.5-0.5-1-0.7-1.7-0.7S91,5,90.5,5.5
	s-0.7,1-0.7,1.7C89.8,8,90,8.6,90.5,9C91,9.5,91.6,9.8,92.3,9.8"/>
<path id="m" class="st0" d="M48.9,34.1c-0.4,0.5-1.3,0.7-2.8,0.7v1h10.7v-0.9c-1.3,0-2.2-0.2-2.7-0.6c-0.5-0.4-0.7-1.1-0.7-2.1v-11
	c0.7-1.2,1.5-2.1,2.6-2.8c1-0.7,2.1-1,3.2-1c1.3,0,2.3,0.4,3.1,1.2c0.8,0.8,1.2,1.8,1.2,3.2v9.3c0,1.6-0.2,2.6-0.5,3.1
	c-0.4,0.5-1.3,0.7-2.8,0.7v1h10.5v-1c-1.3,0-2.1-0.2-2.6-0.6c-0.5-0.4-0.7-1.2-0.7-2.3V21.2c1.7-2.6,3.6-3.9,5.7-3.9
	c1.3,0,2.4,0.4,3.2,1.1s1.2,1.7,1.2,3v9.5c0,1.6-0.2,2.7-0.6,3.1c-0.4,0.5-1.3,0.7-2.8,0.7v1h10.6v-1c-1.3,0-2.2-0.2-2.6-0.6
	c-0.5-0.4-0.7-1.1-0.7-2.2V22c0-2.1-0.6-3.7-1.9-4.9s-2.9-1.8-4.9-1.8c-2.8,0-5.3,1.5-7.4,4.5c-0.5-1.4-1.3-2.5-2.4-3.3
	s-2.4-1.2-3.9-1.2c-1.3,0-2.6,0.4-3.9,1.1c-1.3,0.8-2.4,1.8-3.2,3h-0.1v-4.2h-1l-6.9,0.6v0.9H47c1,0,1.7,0.2,2.1,0.7
	c0.4,0.5,0.7,1.2,0.7,2.2v11.9C49.4,32.8,49.2,33.6,48.9,34.1"/>
<path id="d" class="st0" d="M26.6,18.6c1.1-1.5,2.6-2.2,4.4-2.2c1,0,2.1,0.3,3.1,0.9s2,1.4,2.7,2.5v12.1c0,1.1-0.2,1.8-0.7,2.3
	s-1.3,0.7-2.4,0.7c-2.8,0-4.9-0.9-6.5-2.8c-1.5-1.9-2.3-4.4-2.3-7.5C24.9,22.1,25.5,20.1,26.6,18.6 M32.4,35.8H44v-0.9
	c-1.3,0-2.1-0.2-2.6-0.6c-0.5-0.4-0.7-1.2-0.7-2.3V0.3h-0.9L33.1,1v0.9h1.1c1.1,0,1.8,0.2,2.1,0.7c0.4,0.5,0.5,1.4,0.5,2.7v12.3
	c-2.4-1.6-4.7-2.4-6.8-2.4c-2.6,0-4.8,1-6.7,3c-1.8,2-2.8,4.4-2.8,7.2c0,3,1,5.5,3.1,7.4C25.9,34.8,28.8,35.8,32.4,35.8"/>
<path id="a" class="st0" d="M4.8,33.2c-0.6-0.7-0.9-1.6-0.9-2.6c0-1.1,0.3-2,0.8-2.7c0.6-0.7,1.8-1.3,3.9-2c1.1-0.4,1.9-0.7,2.5-0.9
	v6.8c-0.4,0.7-0.9,1.3-1.8,1.8C8.5,34,7.7,34.2,7,34.2C6.1,34.2,5.4,33.9,4.8,33.2 M11.1,33.6c0.6,1.9,1.8,2.8,3.4,2.8
	c1.1,0,2-0.4,2.7-1.1c0.7-0.7,1.1-1.7,1.2-3h-1c-0.2,0.8-0.5,1.3-0.6,1.6c-0.2,0.2-0.4,0.4-0.7,0.4c-0.4,0-0.7-0.2-0.9-0.6
	C15,33.2,15,32.3,15,31.1v-8.6c0-2.3-0.7-4.1-2-5.4s-3.1-1.9-5.2-1.9c-1.8,0-3.4,0.6-4.8,1.7s-2.2,2.6-2.6,4.5l1,0.3
	c0.4-1.3,1.1-2.4,2-3.1c1-0.8,2.1-1.2,3.3-1.2c1.4,0,2.5,0.4,3.3,1.3s1.2,2.1,1.2,3.5v1.5c-0.7,0.3-2,0.8-3.8,1.3
	c-3,0.8-4.9,1.7-5.9,2.6S0,29.7,0,31.1c0,1.5,0.6,2.7,1.7,3.8c1.1,1,2.5,1.6,4,1.6c1.1,0,2-0.2,2.7-0.6
	C9.2,35.4,10.1,34.6,11.1,33.6"/>
</svg>
