<?xml version="1.0" encoding="utf-8"?>
<!-- Generator: Adobe Illustrator 25.2.0, SVG Export Plug-In . SVG Version: 6.00 Build 0)  -->
<svg version="1.1" id="Layer_1" xmlns="http://www.w3.org/2000/svg" xmlns:xlink="http://www.w3.org/1999/xlink" x="0px" y="0px"
	 viewBox="0 0 118.3 61.1" style="enable-background:new 0 0 118.3 61.1;" xml:space="preserve">
<style type="text/css">
	.st0{opacity:5.340000e-04;}
	.st1{fill:#0B6BFF;animation: glowy 3s infinite cubic-bezier(0.4, 0, 1, 1);}
	.st2{opacity:1.609000e-03;}
	.st3{opacity:3.240000e-03;}
	.st4{opacity:5.451000e-03;}
	.st5{opacity:8.275000e-03;}
	.st6{opacity:1.176100e-02;}
	.st7{opacity:1.597500e-02;}
	.st8{opacity:2.100800e-02;}
	.st9{opacity:2.699200e-02;}
	.st10{opacity:3.412300e-02;}
	.st11{opacity:4.270900e-02;}
	.st12{opacity:5.329100e-02;}
	.st13{opacity:6.697600e-02;}
	.st14{opacity:8.686200e-02;}
	.st15{opacity:0.1531;}
	.st16{fill:#FFFFFF;}
	@keyframes glowy {
  0% {
    stroke: rgba(11,107,255,0.3);    
    stroke-width: 6%;
  }
  50% {
    stroke: rgba(11,107,255,0.0);    
    stroke-width: 0%;
  }
  100% {
    stroke: rgba(11,107,255,0.3);    
    stroke-width: 6%;
  }
}
</style>
<g>
	<g class="st0">
		<path class="st1" d="M103.7,61.1c-8.1,0-14.7-6.6-14.7-14.7V34.9c0-3.1-2.5-5.6-5.6-5.6H14.7C6.6,29.3,0,22.7,0,14.7S6.6,0,14.7,0
			h68.8c19.2,0,34.9,15.7,34.9,34.9v11.6C118.3,54.5,111.8,61.1,103.7,61.1z"/>
	</g>
	<g class="st2">
		<path class="st1" d="M103.7,60.2c-7.6,0-13.8-6.2-13.8-13.8V34.9c0-3.6-2.9-6.4-6.4-6.4H14.7C7,28.4,0.9,22.3,0.9,14.7
			S7,0.9,14.7,0.9h68.8c18.8,0,34,15.3,34,34v11.6C117.5,54.1,111.3,60.2,103.7,60.2z"/>
	</g>
	<g class="st3">
		<path class="st1" d="M103.7,59.4c-7.1,0-12.9-5.8-12.9-12.9V34.9c0-4-3.3-7.3-7.3-7.3H14.7c-7.1,0-12.9-5.8-12.9-12.9
			S7.5,1.7,14.7,1.7h68.8c18.3,0,33.2,14.9,33.2,33.2v11.6C116.6,53.6,110.8,59.4,103.7,59.4z"/>
	</g>
	<g class="st4">
		<path class="st1" d="M103.7,58.5c-6.7,0-12.1-5.4-12.1-12.1V34.9c0-4.5-3.7-8.2-8.2-8.2H14.7C8,26.7,2.6,21.3,2.6,14.7
			S8,2.6,14.7,2.6h68.8c17.8,0,32.3,14.5,32.3,32.3v11.6C115.8,53.1,110.4,58.5,103.7,58.5z"/>
	</g>
	<g class="st5">
		<path class="st1" d="M103.7,57.7c-6.2,0-11.2-5-11.2-11.2V34.9c0-5-4.1-9-9-9H14.7c-6.2,0-11.2-5-11.2-11.2s5-11.2,11.2-11.2h68.8
			c17.3,0,31.4,14.1,31.4,31.4v11.6C114.9,52.6,109.9,57.7,103.7,57.7z"/>
	</g>
	<g class="st6">
		<path class="st1" d="M103.7,56.8c-5.7,0-10.3-4.6-10.3-10.3V34.9c0-5.5-4.4-9.9-9.9-9.9H14.7C8.9,25,4.3,20.4,4.3,14.7
			S8.9,4.3,14.7,4.3h68.8C100.3,4.3,114,18,114,34.9v11.6C114,52.2,109.4,56.8,103.7,56.8z"/>
	</g>
	<g class="st7">
		<path class="st1" d="M103.7,55.9c-5.2,0-9.5-4.2-9.5-9.5V34.9c0-5.9-4.8-10.8-10.8-10.8H14.7c-5.2,0-9.5-4.2-9.5-9.5
			c0-5.2,4.2-9.5,9.5-9.5h68.8c16.4,0,29.7,13.3,29.7,29.7v11.6C113.2,51.7,108.9,55.9,103.7,55.9z"/>
	</g>
	<g class="st8">
		<path class="st1" d="M103.7,55.1c-4.8,0-8.6-3.9-8.6-8.6V34.9c0-6.4-5.2-11.6-11.6-11.6H14.7c-4.8,0-8.6-3.9-8.6-8.6S9.9,6,14.7,6
			h68.8c15.9,0,28.9,12.9,28.9,28.9v11.6C112.3,51.2,108.5,55.1,103.7,55.1z"/>
	</g>
	<g class="st9">
		<path class="st1" d="M103.7,54.2c-4.3,0-7.8-3.5-7.8-7.8V34.9c0-6.9-5.6-12.5-12.5-12.5H14.7c-4.3,0-7.8-3.5-7.8-7.8
			s3.5-7.8,7.8-7.8h68.8c15.4,0,28,12.6,28,28v11.6C111.4,50.7,108,54.2,103.7,54.2z"/>
	</g>
	<g class="st10">
		<path class="st1" d="M103.7,53.3c-3.8,0-6.9-3.1-6.9-6.9V34.9c0-7.4-6-13.3-13.3-13.3H14.7c-3.8,0-6.9-3.1-6.9-6.9
			s3.1-6.9,6.9-6.9h68.8c15,0,27.1,12.2,27.1,27.1v11.6C110.6,50.3,107.5,53.3,103.7,53.3z"/>
	</g>
	<g class="st11">
		<path class="st1" d="M103.7,52.5c-3.3,0-6-2.7-6-6V34.9c0-7.8-6.4-14.2-14.2-14.2H14.7c-3.3,0-6-2.7-6-6s2.7-6,6-6h68.8
			c14.5,0,26.3,11.8,26.3,26.3v11.6C109.7,49.8,107,52.5,103.7,52.5z"/>
	</g>
	<g class="st12">
		<path class="st1" d="M103.7,51.6c-2.9,0-5.2-2.3-5.2-5.2V34.9c0-8.3-6.8-15.1-15.1-15.1H14.7c-2.9,0-5.2-2.3-5.2-5.2
			c0-2.9,2.3-5.2,5.2-5.2h68.8c14,0,25.4,11.4,25.4,25.4v11.6C108.9,49.3,106.5,51.6,103.7,51.6z"/>
	</g>
	<g class="st13">
		<path class="st1" d="M103.7,50.8c-2.4,0-4.3-1.9-4.3-4.3V34.9c0-8.8-7.1-15.9-15.9-15.9H14.7c-2.4,0-4.3-1.9-4.3-4.3
			s1.9-4.3,4.3-4.3h68.8c13.5,0,24.5,11,24.5,24.5v11.6C108,48.8,106.1,50.8,103.7,50.8z"/>
	</g>
	<g class="st14">
		<path class="st1" d="M103.7,49.9c-1.9,0-3.4-1.5-3.4-3.4V34.9c0-9.3-7.5-16.8-16.8-16.8H14.7c-1.9,0-3.4-1.5-3.4-3.4
			s1.5-3.4,3.4-3.4h68.8c13.1,0,23.7,10.6,23.7,23.7v11.6C107.1,48.4,105.6,49.9,103.7,49.9z"/>
	</g>
	<g class="st15">
		<path class="st1" d="M103.7,49c-1.4,0-2.6-1.2-2.6-2.6V34.9c0-9.7-7.9-17.7-17.7-17.7H14.7c-1.4,0-2.6-1.2-2.6-2.6
			s1.2-2.6,2.6-2.6h68.8c12.6,0,22.8,10.2,22.8,22.8v11.6C106.3,47.9,105.1,49,103.7,49z"/>
	</g>
	<g>
		<path class="st1" d="M103.7,48.2c-1,0-1.7-0.8-1.7-1.7V34.9c0-10.2-8.3-18.5-18.5-18.5H14.7c-1,0-1.7-0.8-1.7-1.7s0.8-1.7,1.7-1.7
			h68.8c12.1,0,22,9.9,22,22v11.6C105.4,47.4,104.6,48.2,103.7,48.2z"/>
	</g>
	<g>
		<path class="st16" d="M103.7,47c-0.3,0-0.6-0.3-0.6-0.6V34.9c0-10.8-8.8-19.7-19.7-19.7H14.7c-0.3,0-0.6-0.3-0.6-0.6
			s0.3-0.6,0.6-0.6h68.8c11.5,0,20.8,9.3,20.8,20.8v11.6C104.3,46.8,104,47,103.7,47z"/>
	</g>
</g>
</svg>
