<?xml version="1.0" encoding="utf-8"?>
<!-- Generator: Adobe Illustrator 25.2.0, SVG Export Plug-In . SVG Version: 6.00 Build 0)  -->
<svg version="1.1" id="Layer_1" xmlns="http://www.w3.org/2000/svg" xmlns:xlink="http://www.w3.org/1999/xlink" x="0px" y="0px"
	 viewBox="0 0 118.3 61.1" style="enable-background:new 0 0 118.3 61.1;" xml:space="preserve">
<style type="text/css">
	.st0{opacity:5.340000e-04;}
	.st1{fill:#0B6BFF;animation: glowy 3s infinite cubic-bezier(0.4, 0, 1, 1);}
	.st2{opacity:1.609000e-03;}
	.st3{opacity:3.240000e-03;}
	.st4{opacity:5.451000e-03;}
	.st5{opacity:8.275000e-03;}
	.st6{opacity:1.176100e-02;}
	.st7{opacity:1.597500e-02;}
	.st8{opacity:2.100800e-02;}
	.st9{opacity:2.699200e-02;}
	.st10{opacity:3.412300e-02;}
	.st11{opacity:4.270900e-02;}
	.st12{opacity:5.329100e-02;}
	.st13{opacity:6.697600e-02;}
	.st14{opacity:8.686200e-02;}
	.st15{opacity:0.1531;}
	.st16{fill:#FFFFFF;}
	@keyframes glowy {
  0% {
    stroke: rgba(11,107,255,0.3);    
    stroke-width: 6%;
  }
  50% {
    stroke: rgba(11,107,255,0.0);    
    stroke-width: 0%;
  }
  100% {
    stroke: rgba(11,107,255,0.3);    
    stroke-width: 6%;
  }
}

</style>
<g>
	<g class="st0">
		<path class="st1" d="M14.7,61.1c8.1,0,14.7-6.6,14.7-14.7V34.9c0-3.1,2.5-5.6,5.6-5.6h68.8c8.1,0,14.7-6.6,14.7-14.7
			S111.8,0,103.7,0L34.9,0C15.7,0,0,15.7,0,34.9l0,11.6C0,54.5,6.6,61.1,14.7,61.1z"/>
	</g>
	<g class="st2">
		<path class="st1" d="M14.7,60.2c7.6,0,13.8-6.2,13.8-13.8V34.9c0-3.6,2.9-6.4,6.4-6.4h68.8c7.6,0,13.8-6.2,13.8-13.8
			s-6.2-13.8-13.8-13.8H34.9c-18.8,0-34,15.3-34,34v11.6C0.9,54.1,7,60.2,14.7,60.2z"/>
	</g>
	<g class="st3">
		<path class="st1" d="M14.7,59.4c7.1,0,12.9-5.8,12.9-12.9V34.9c0-4,3.3-7.3,7.3-7.3h68.8c7.1,0,12.9-5.8,12.9-12.9
			s-5.8-12.9-12.9-12.9H34.9C16.6,1.7,1.7,16.6,1.7,34.9v11.6C1.7,53.6,7.5,59.4,14.7,59.4z"/>
	</g>
	<g class="st4">
		<path class="st1" d="M14.7,58.5c6.7,0,12.1-5.4,12.1-12.1V34.9c0-4.5,3.7-8.2,8.2-8.2h68.8c6.7,0,12.1-5.4,12.1-12.1
			s-5.4-12.1-12.1-12.1H34.9C17.1,2.6,2.6,17.1,2.6,34.9v11.6C2.6,53.1,8,58.5,14.7,58.5z"/>
	</g>
	<g class="st5">
		<path class="st1" d="M14.7,57.7c6.2,0,11.2-5,11.2-11.2V34.9c0-5,4.1-9,9-9h68.8c6.2,0,11.2-5,11.2-11.2s-5-11.2-11.2-11.2H34.9
			C17.6,3.4,3.4,17.6,3.4,34.9v11.6C3.4,52.6,8.5,57.7,14.7,57.7z"/>
	</g>
	<g class="st6">
		<path class="st1" d="M14.7,56.8c5.7,0,10.3-4.6,10.3-10.3V34.9c0-5.5,4.4-9.9,9.9-9.9h68.8c5.7,0,10.3-4.6,10.3-10.3
			s-4.6-10.3-10.3-10.3H34.9C18,4.3,4.3,18,4.3,34.9v11.6C4.3,52.2,8.9,56.8,14.7,56.8z"/>
	</g>
	<g class="st7">
		<path class="st1" d="M14.7,55.9c5.2,0,9.5-4.2,9.5-9.5V34.9c0-5.9,4.8-10.8,10.8-10.8h68.8c5.2,0,9.5-4.2,9.5-9.5
			c0-5.2-4.2-9.5-9.5-9.5H34.9C18.5,5.2,5.2,18.5,5.2,34.9v11.6C5.2,51.7,9.4,55.9,14.7,55.9z"/>
	</g>
	<g class="st8">
		<path class="st1" d="M14.7,55.1c4.8,0,8.6-3.9,8.6-8.6V34.9c0-6.4,5.2-11.6,11.6-11.6h68.8c4.8,0,8.6-3.9,8.6-8.6S108.5,6,103.7,6
			H34.9C19,6,6,19,6,34.9v11.6C6,51.2,9.9,55.1,14.7,55.1z"/>
	</g>
	<g class="st9">
		<path class="st1" d="M14.7,54.2c4.3,0,7.8-3.5,7.8-7.8V34.9c0-6.9,5.6-12.5,12.5-12.5h68.8c4.3,0,7.8-3.5,7.8-7.8
			s-3.5-7.8-7.8-7.8H34.9c-15.4,0-28,12.6-28,28v11.6C6.9,50.7,10.4,54.2,14.7,54.2z"/>
	</g>
	<g class="st10">
		<path class="st1" d="M14.7,53.3c3.8,0,6.9-3.1,6.9-6.9V34.9c0-7.4,6-13.3,13.3-13.3h68.8c3.8,0,6.9-3.1,6.9-6.9s-3.1-6.9-6.9-6.9
			H34.9c-15,0-27.1,12.2-27.1,27.1v11.6C7.8,50.3,10.8,53.3,14.7,53.3z"/>
	</g>
	<g class="st11">
		<path class="st1" d="M14.7,52.5c3.3,0,6-2.7,6-6V34.9c0-7.8,6.4-14.2,14.2-14.2h68.8c3.3,0,6-2.7,6-6s-2.7-6-6-6H34.9
			C20.4,8.6,8.6,20.4,8.6,34.9v11.6C8.6,49.8,11.3,52.5,14.7,52.5z"/>
	</g>
	<g class="st12">
		<path class="st1" d="M14.7,51.6c2.9,0,5.2-2.3,5.2-5.2V34.9c0-8.3,6.8-15.1,15.1-15.1h68.8c2.9,0,5.2-2.3,5.2-5.2
			c0-2.9-2.3-5.2-5.2-5.2H34.9c-14,0-25.4,11.4-25.4,25.4v11.6C9.5,49.3,11.8,51.6,14.7,51.6z"/>
	</g>
	<g class="st13">
		<path class="st1" d="M14.7,50.8c2.4,0,4.3-1.9,4.3-4.3V34.9C19,26.1,26.1,19,34.9,19h68.8c2.4,0,4.3-1.9,4.3-4.3s-1.9-4.3-4.3-4.3
			H34.9c-13.5,0-24.5,11-24.5,24.5v11.6C10.3,48.8,12.3,50.8,14.7,50.8z"/>
	</g>
	<g class="st14">
		<path class="st1" d="M14.7,49.9c1.9,0,3.4-1.5,3.4-3.4V34.9c0-9.3,7.5-16.8,16.8-16.8h68.8c1.9,0,3.4-1.5,3.4-3.4
			s-1.5-3.4-3.4-3.4H34.9c-13.1,0-23.7,10.6-23.7,23.7v11.6C11.2,48.4,12.7,49.9,14.7,49.9z"/>
	</g>
	<g class="st15">
		<path class="st1" d="M14.7,49c1.4,0,2.6-1.2,2.6-2.6V34.9c0-9.7,7.9-17.7,17.7-17.7h68.8c1.4,0,2.6-1.2,2.6-2.6s-1.2-2.6-2.6-2.6
			H34.9c-12.6,0-22.8,10.2-22.8,22.8v11.6C12.1,47.9,13.2,49,14.7,49z"/>
	</g>
	<g>
		<path class="st1" d="M14.7,48.2c1,0,1.7-0.8,1.7-1.7V34.9c0-10.2,8.3-18.5,18.5-18.5h68.8c1,0,1.7-0.8,1.7-1.7s-0.8-1.7-1.7-1.7
			H34.9c-12.1,0-22,9.9-22,22v11.6C12.9,47.4,13.7,48.2,14.7,48.2z"/>
	</g>
	<g>
		<path class="st16" d="M14.7,47c0.3,0,0.6-0.3,0.6-0.6V34.9c0-10.8,8.8-19.7,19.7-19.7h68.8c0.3,0,0.6-0.3,0.6-0.6
			s-0.3-0.6-0.6-0.6H34.9c-11.5,0-20.8,9.3-20.8,20.8v11.6C14.1,46.8,14.3,47,14.7,47z"/>
	</g>
</g>
</svg>
