<?xml version="1.0" encoding="utf-8"?>
<!-- Generator: Adobe Illustrator 25.2.0, SVG Export Plug-In . SVG Version: 6.00 Build 0)  -->
<svg version="1.1" id="Layer_1" xmlns="http://www.w3.org/2000/svg" xmlns:xlink="http://www.w3.org/1999/xlink" x="0px" y="0px"
	 viewBox="0 0 338.2 246.5" style="enable-background:new 0 0 338.2 246.5;" xml:space="preserve">
<style type="text/css">
	.st0{opacity:5.340000e-04;}
	.st1{fill:#FF2154;}
	.st2{opacity:1.609000e-03;}
	.st3{opacity:3.240000e-03;}
	.st4{opacity:5.451000e-03;}
	.st5{opacity:8.275000e-03;}
	.st6{opacity:1.176100e-02;}
	.st7{opacity:1.597500e-02;}
	.st8{opacity:2.100800e-02;}
	.st9{opacity:2.699200e-02;}
	.st10{opacity:3.412300e-02;}
	.st11{opacity:4.270900e-02;}
	.st12{opacity:5.329100e-02;}
	.st13{opacity:6.697600e-02;}
	.st14{opacity:8.686200e-02;}
	.st15{opacity:0.1531;}
	.st16{fill:#FFFFFF;}
</style>
<g>
	<g class="st0">
		<path class="st1" d="M305.5,246.5H32.7C14.7,246.5,0,233.6,0,215.3V33.1C0,14.8,14.7,0,32.7,0h267.9c18.1,0,37.6,14.8,37.6,33.1
			v182.2C338.2,233.6,323.5,246.5,305.5,246.5z M32.7,27.8c-2.9,0-5.2,2.4-5.2,5.2v182.2c0,2.9,2.3,5.3,5.2,5.3h272.7
			c2.9,0,5.2-2.4,5.2-5.3V33.1c0-2.9-2.3-5.2-5.2-5.2H32.7z"/>
	</g>
	<g class="st2">
		<path class="st1" d="M305.5,245.7H32.7c-17.6,0-31.9-12.6-31.9-30.3V33.1c0-17.8,14.3-32.3,31.9-32.3h267.9
			c17.6,0,36.8,14.5,36.8,32.3v182.2C337.4,233.1,323.1,245.7,305.5,245.7z M32.7,27c-3.3,0-6,2.7-6,6.1v182.2c0,3.3,2.7,6.1,6,6.1
			h272.7c3.3,0,6-2.7,6-6.1V33.1c0-3.3-2.7-6.1-6-6.1H32.7z"/>
	</g>
	<g class="st3">
		<path class="st1" d="M305.5,244.9H32.7c-17.2,0-31.1-12.2-31.1-29.5V33.1c0-17.3,14-31.5,31.1-31.5h267.9c17.2,0,36,14.1,36,31.5
			v182.2C336.6,232.7,322.6,244.9,305.5,244.9z M32.7,26.2c-3.8,0-6.8,3.1-6.8,6.9v182.2c0,3.8,3.1,6.9,6.8,6.9h272.7
			c3.8,0,6.8-3.1,6.8-6.9V33.1c0-3.8-3.1-6.9-6.8-6.9H32.7z"/>
	</g>
	<g class="st4">
		<path class="st1" d="M305.5,244H32.7C16,244,2.4,232.2,2.4,215.3V33.1C2.4,16.2,16,2.5,32.7,2.5h267.9c16.7,0,35.2,13.7,35.2,30.6
			v182.2C335.8,232.2,322.2,244,305.5,244z M32.7,25.4c-4.2,0-7.6,3.5-7.6,7.7v182.2c0,4.3,3.4,7.7,7.6,7.7h272.7
			c4.2,0,7.6-3.5,7.6-7.7V33.1c0-4.2-3.4-7.7-7.6-7.7H32.7z"/>
	</g>
	<g class="st5">
		<path class="st1" d="M305.5,243.2H32.7c-16.3,0-29.5-11.5-29.5-27.9V33.1c0-16.4,13.2-29.8,29.5-29.8h267.9
			c16.3,0,34.4,13.4,34.4,29.8v182.2C335,231.8,321.7,243.2,305.5,243.2z M32.7,24.6c-4.7,0-8.4,3.8-8.4,8.5v182.2
			c0,4.7,3.8,8.5,8.4,8.5h272.7c4.7,0,8.4-3.8,8.4-8.5V33.1c0-4.7-3.8-8.5-8.4-8.5H32.7z"/>
	</g>
	<g class="st6">
		<path class="st1" d="M305.5,242.4H32.7c-15.8,0-28.7-11.1-28.7-27.1V33.1c0-16,12.9-29,28.7-29h267.9c15.8,0,33.6,13,33.6,29
			v182.2C334.2,231.3,321.3,242.4,305.5,242.4z M32.7,23.7c-5.1,0-9.2,4.2-9.2,9.3v182.2c0,5.2,4.1,9.3,9.2,9.3h272.7
			c5.1,0,9.2-4.2,9.2-9.3V33.1c0-5.2-4.1-9.3-9.2-9.3H32.7z"/>
	</g>
	<g class="st7">
		<path class="st1" d="M305.5,241.6H32.7c-15.4,0-27.9-10.7-27.9-26.3V33.1c0-15.5,12.5-28.2,27.9-28.2h267.9
			c15.4,0,32.7,12.6,32.7,28.2v182.2C333.4,230.9,320.9,241.6,305.5,241.6z M32.7,22.9c-5.5,0-10.1,4.6-10.1,10.2v182.2
			c0,5.6,4.5,10.2,10.1,10.2h272.7c5.5,0,10.1-4.6,10.1-10.2V33.1c0-5.6-4.5-10.2-10.1-10.2H32.7z"/>
	</g>
	<g class="st8">
		<path class="st1" d="M305.5,240.8H32.7c-14.9,0-27.1-10.3-27.1-25.4V33.1C5.7,18,17.8,5.7,32.7,5.7h267.9
			c14.9,0,31.9,12.3,31.9,27.4v182.2C332.5,230.4,320.4,240.8,305.5,240.8z M32.7,22.1c-6,0-10.9,4.9-10.9,11v182.2
			c0,6.1,4.9,11,10.9,11h272.7c6,0,10.9-4.9,10.9-11V33.1c0-6.1-4.9-11-10.9-11H32.7z"/>
	</g>
	<g class="st9">
		<path class="st1" d="M305.5,240H32.7c-14.5,0-26.3-10-26.3-24.6V33.1c0-14.6,11.8-26.5,26.3-26.5h267.9
			c14.5,0,31.1,11.9,31.1,26.5v182.2C331.7,230,320,240,305.5,240z M32.7,21.3c-6.4,0-11.7,5.3-11.7,11.8v182.2
			c0,6.5,5.2,11.8,11.7,11.8h272.7c6.4,0,11.7-5.3,11.7-11.8V33.1c0-6.5-5.2-11.8-11.7-11.8H32.7z"/>
	</g>
	<g class="st10">
		<path class="st1" d="M305.5,239.1H32.7c-14,0-25.5-9.6-25.5-23.8V33.1c0-14.2,11.4-25.7,25.5-25.7h267.9c14,0,30.3,11.5,30.3,25.7
			v182.2C330.9,229.5,319.5,239.1,305.5,239.1z M32.7,20.5c-6.9,0-12.5,5.7-12.5,12.6v182.2c0,7,5.6,10.7,12.5,10.7h272.7
			c6.9,0,12.5-3.7,12.5-10.7V33.1c0-7-5.6-12.6-12.5-12.6H32.7z"/>
	</g>
	<g class="st11">
		<path class="st1" d="M305.5,238.3H32.7c-13.6,0-24.6-9.2-24.6-23V33.1c0-13.7,11.1-24.9,24.6-24.9h267.9
			c13.6,0,29.5,11.2,29.5,24.9v182.2C330.1,229.1,319.1,238.3,305.5,238.3z M32.7,19.7c-7.3,0-13.3,6-13.3,13.4v182.2
			c0,7.4,6,11.5,13.3,11.5h272.7c7.3,0,13.3-4.1,13.3-11.5V33.1c0-7.4-6-13.4-13.3-13.4H32.7z"/>
	</g>
	<g class="st12">
		<path class="st1" d="M305.5,237.5H32.7c-13.1,0-23.8-8.9-23.8-22.2V33.1C8.9,19.8,19.6,9,32.7,9h272.7c13.1,0,23.8,10.8,23.8,24.1
			v182.2C329.3,228.6,318.6,237.5,305.5,237.5z M32.7,18.8c-7.8,0-14.1,6.4-14.1,14.3v182.2c0,7.9,6.3,12.3,14.1,12.3h272.7
			c7.8,0,14.1-4.5,14.1-12.3V33.1c0-7.9-6.3-14.3-14.1-14.3H32.7z"/>
	</g>
	<g class="st13">
		<path class="st1" d="M305.5,236.7H32.7c-12.7,0-23-8.5-23-21.3V33.1c0-12.8,10.3-23.3,23-23.3h272.7c12.7,0,23,10.4,23,23.3v182.2
			C328.5,228.2,318.2,236.7,305.5,236.7z M32.7,18c-8.2,0-14.9,6.8-14.9,15.1v182.2c0,8.3,6.7,13.2,14.9,13.2h272.7
			c8.2,0,14.9-4.8,14.9-13.2V33.1c0-8.3-6.7-15.1-14.9-15.1H32.7z"/>
	</g>
	<g class="st14">
		<path class="st1" d="M305.5,235.9H32.7c-12.2,0-22.2-8.1-22.2-20.5V33.1c0-12.4,10-22.4,22.2-22.4h272.7
			c12.2,0,22.2,10.1,22.2,22.4v182.2C327.7,227.7,317.7,235.9,305.5,235.9z M32.7,17.2c-8.7,0-15.7,7.1-15.7,15.9v182.2
			c0,8.8,7.1,14,15.7,14h272.7c8.7,0,15.7-5.2,15.7-14V33.1c0-8.8-7.1-15.9-15.7-15.9H32.7z"/>
	</g>
	<g class="st15">
		<path class="st1" d="M305.5,235H32.7c-11.8,0-21.4-7.8-21.4-19.7V33.1c0-11.9,9.6-21.6,21.4-21.6h272.7c11.8,0,21.4,9.7,21.4,21.6
			v182.2C326.9,227.3,317.3,235,305.5,235z M32.7,16.4c-9.1,0-16.5,7.5-16.5,16.7v182.2c0,9.2,7.4,14.8,16.5,14.8h272.7
			c9.1,0,16.5-5.6,16.5-14.8V33.1c0-9.2-7.4-16.7-16.5-16.7H32.7z"/>
	</g>
	<g>
		<path class="st1" d="M305.5,234.2H32.7c-11.4,0-20.6-7.4-20.6-18.9V33.1c0-11.5,9.2-20.8,20.6-20.8h272.7
			c11.4,0,20.6,9.3,20.6,20.8v182.2C326.1,226.8,316.8,234.2,305.5,234.2z M32.7,15.6c-9.6,0-17.3,7.9-17.3,17.5v182.2
			c0,9.7,7.8,15.6,17.3,15.6h272.7c9.6,0,17.3-5.9,17.3-15.6V33.1c0-9.7-7.8-17.5-17.3-17.5H32.7z"/>
	</g>
	<g>
		<path class="st16" d="M305.5,233.1H32.7c-10.8,0-19.5-6.9-19.5-17.8V33.1c0-10.9,8.8-19.7,19.5-19.7h272.7
			c10.8,0,19.5,8.8,19.5,19.7v182.2C325,226.2,316.2,233.1,305.5,233.1z M32.7,14.5c-10.2,0-18.4,8.4-18.4,18.6v182.2
			c0,10.3,8.3,16.7,18.4,16.7h272.7c10.2,0,18.4-6.4,18.4-16.7V33.1c0-10.3-8.3-18.6-18.4-18.6H32.7z"/>
	</g>
</g>
</svg>
