<?xml version="1.0" encoding="utf-8"?>
<!-- Generator: Adobe Illustrator 25.2.0, SVG Export Plug-In . SVG Version: 6.00 Build 0)  -->
<svg version="1.1" id="Layer_1" xmlns="http://www.w3.org/2000/svg" xmlns:xlink="http://www.w3.org/1999/xlink" x="0px" y="0px" 
	 viewBox="0 0 326.1 233.4" style="enable-background:new 0 0 326.1 233.4;" xml:space="preserve">
  <defs>
    <filter id="f1" x="-50%" y="-50%" width="200%" height="200%">
      <feGaussianBlur in="SourceGraphic" stdDeviation="1" />
    </filter>
  </defs>
<g>  
	<path id="shape" filter="url(#f1)" fill="none" stroke="#ff2154" stroke-width="4" d="M317.31,217.25c0,3.65-2.96,6.6-6.6,6.6H15.81c-4.7,0-7.51-3.81-7.51-8.51V24.06c0-9.7,8.54-16.42,15.16-16.16
	h279.61c7.87,0,14.24,6.38,14.24,14.24V217.25z"/>
    <ellipse  cx="" cy="" ry="2" rx="6" fill="#ff2154" filter="url(#f1)">
    <animateMotion dur="3s"  repeatCount="indefinite" rotate="auto">
      <mpath href="#shape"></mpath>
    </animateMotion>
  </ellipse>  
  <path fill="none" stroke="white" stroke-width="1" d="M317.31,217.25c0,3.65-2.96,6.6-6.6,6.6H15.81c-4.7,0-7.51-3.81-7.51-8.51V24.06c0-9.7,8.54-16.42,15.16-16.16
	h279.61c7.87,0,14.24,6.38,14.24,14.24V217.25z"/>
</g>
</svg>