<svg xmlns="http://www.w3.org/2000/svg" xmlns:xlink="http://www.w3.org/1999/xlink" viewBox="0 0 39.09 35.97"><defs><style>.cls-1{fill:url(#linear-gradient);}</style><linearGradient id="linear-gradient" x1="19.55" y1="0.84" x2="19.55" y2="35.14" gradientUnits="userSpaceOnUse"><stop offset="0" stop-color="#ff2929"/><stop offset="0.15" stop-color="#fa2727"/><stop offset="0.32" stop-color="#eb2222"/><stop offset="0.51" stop-color="#d31a1a"/><stop offset="0.7" stop-color="#b20f0f"/><stop offset="0.91" stop-color="#870101"/><stop offset="0.92" stop-color="#850000"/></linearGradient></defs><g id="Layer_2" data-name="Layer 2"><g id="Layer_4" data-name="Layer 4"><path class="cls-1" d="M.84,16.34V1.63h5V3.77S7.87.84,15.13.84c4.28,0,8.8,1.13,10.66,1.35,4.74.56,7.16,1,9.21-.84,2.32,1,3.26,1.4,3.26,1.4s-7.08,12.47-8.75,20.1c-1.06,4.81-.75,12.29-.75,12.29H9S7.17,23.41,17.78,16.89a78.31,78.31,0,0,1,8-5.4,20.92,20.92,0,0,1-14.15.84c-5.22-1.57-5.59,2.89-5.4,4Z"/><path d="M9,36a.85.85,0,0,1-.83-.7h0a16.07,16.07,0,0,1-.14-2.21h0A19.36,19.36,0,0,1,17.3,16.2h0c1.15-.88,2.27-1.69,3.31-2.4h0a23.17,23.17,0,0,1-3.13.22h0a21.12,21.12,0,0,1-6.09-.89h0a5.87,5.87,0,0,0-1.76-.29h0a2.22,2.22,0,0,0-2.08,1h0a3.8,3.8,0,0,0-.51,2H7a1.53,1.53,0,0,0,0,.36h0a.83.83,0,0,1-.18.69h0a.85.85,0,0,1-.64.3H.84v-.83h0v.83a.85.85,0,0,1-.59-.24h0A.83.83,0,0,1,0,16.34H0V1.63A.82.82,0,0,1,.25,1h0A.82.82,0,0,1,.84.79h5a.84.84,0,0,1,.6.25h0a.85.85,0,0,1,.24.59h0V2C8.15,1,10.77,0,15.13,0h0c4.4,0,9,1.16,10.75,1.35h0a50.55,50.55,0,0,0,5.17.49h0A4.5,4.5,0,0,0,34.43.73h0a.83.83,0,0,1,.9-.15h0C37.66,1.6,38.56,2,38.57,2h0a.85.85,0,0,1,.48.5h0a.88.88,0,0,1-.07.69h0s-1.75,3.09-3.72,7.14h0A66.05,66.05,0,0,0,30.32,23h0a50,50,0,0,0-.77,9.54h0c0,1.52.05,2.53.05,2.53h0a.81.81,0,0,1-.24.61h0a.79.79,0,0,1-.6.26H9ZM27.9,34.3c0-.45,0-1,0-1.73h0a50.87,50.87,0,0,1,.81-9.9h0C30.16,16,35.47,6.07,37.07,3.16h0C36.62,3,36,2.7,35.14,2.32h0a6.4,6.4,0,0,1-4.09,1.2h0c-1.48,0-3.19-.25-5.36-.5h0c-2-.24-6.41-1.35-10.56-1.34h0C9,1.69,6.94,3.81,6.6,4.19h0l0,0h0a.84.84,0,0,1-.94.33h0A.84.84,0,0,1,5,3.77H5V2.47H1.68v13H5.37A5.37,5.37,0,0,1,6.13,13h0a3.92,3.92,0,0,1,3.5-1.82h0a7.86,7.86,0,0,1,2.25.37h0a19.27,19.27,0,0,0,5.6.82h0a20.78,20.78,0,0,0,5.75-.82h0a14.87,14.87,0,0,0,2.19-.79h0a.83.83,0,0,1,1.1.36h0a.83.83,0,0,1-.32,1.12h0a78,78,0,0,0-7.91,5.33h0l-.08.06A17.64,17.64,0,0,0,9.74,33.06h0c0,.5,0,.92,0,1.24H27.9Z"/></g></g></svg>