<?xml version="1.0" encoding="utf-8"?>
<!-- Generator: Adobe Illustrator 25.2.0, SVG Export Plug-In . SVG Version: 6.00 Build 0)  -->
<svg version="1.1" id="Layer_1" xmlns="http://www.w3.org/2000/svg" xmlns:xlink="http://www.w3.org/1999/xlink" x="0px" y="0px"
	 viewBox="0 0 93.3 75" style="enable-background:new 0 0 93.3 75;" xml:space="preserve">
<style type="text/css">
	.st0{opacity:5.340000e-04;}
	.st1{fill:#DF7200;animation: glowy 3s infinite cubic-bezier(0.4, 0, 1, 1);}
	.st2{opacity:1.609000e-03;}
	.st3{opacity:3.240000e-03;}
	.st4{opacity:5.451000e-03;}
	.st5{opacity:8.275000e-03;}
	.st6{opacity:1.176100e-02;}
	.st7{opacity:1.597500e-02;}
	.st8{opacity:2.100800e-02;}
	.st9{opacity:2.699200e-02;}
	.st10{opacity:3.412300e-02;}
	.st11{opacity:4.270900e-02;}
	.st12{opacity:5.329100e-02;}
	.st13{opacity:6.697600e-02;}
	.st14{opacity:8.686200e-02;}
	.st15{opacity:0.1531;}
	.st16{fill:#FFFFFF;}
	@keyframes glowy {
  0% {
    stroke: rgba(223,114,0,0.3);    
    stroke-width: 6%;
  }
  50% {
    stroke: rgba(223,114,0,0.0);     
    stroke-width: 0%;
  }
  100% {
    stroke: rgba(223,114,0,0.3);    
    stroke-width: 6%;
  }
}
</style>
<g>
	<g class="st0">
		<g>
			<path class="st1" d="M30.2,75c-1.1,0-2.3-0.1-3.4-0.4c-7.3-1.9-11.7-9.2-10-16.5L5,48.2c-4.3-3.6-6-9.5-4.3-14.8
				c1.7-5.4,6.6-9.1,12.2-9.5l15.3-1l5.7-14.2C35.9,3.4,41,0,46.6,0c0,0,0,0,0,0c5.6,0,10.7,3.4,12.8,8.7l5.7,14.2l15.3,1
				c5.6,0.4,10.5,4.1,12.2,9.5c1.7,5.4,0,11.2-4.3,14.8l-11.8,9.8c1.7,7.3-2.7,14.6-10,16.5c-7.4,1.9-14.9-2.6-16.7-9.9l-2.1-8.2
				c-0.7-2.9-0.5-5.9,0.6-8.6c-0.6-0.4-1.1-0.8-1.7-1.2c-0.5,0.4-1.1,0.8-1.7,1.2c1.1,2.7,1.3,5.7,0.6,8.6l-2.1,8.2
				C41.9,70.8,36.3,75,30.2,75z"/>
		</g>
	</g>
	<g class="st2">
		<g>
			<path class="st1" d="M30.2,74.2c-1.1,0-2.1-0.1-3.2-0.4C20,72,15.8,64.9,17.6,58l0.1-0.2L5.5,47.6c-4.1-3.4-5.7-8.9-4-14
				c1.6-5,6.2-8.6,11.5-8.9l15.8-1L34.6,9c2-4.9,6.7-8.2,12-8.2c0,0,0,0,0,0C52,0.8,56.7,4,58.7,9l5.9,14.7l15.8,1
				c5.3,0.3,9.8,3.9,11.5,8.9c1.6,5,0,10.6-4,14L75.6,57.8l0.1,0.2c1.8,6.9-2.4,14-9.4,15.8c-6.9,1.8-14-2.4-15.8-9.4l-2.1-8.2
				c-0.8-3-0.4-6.1,0.9-8.8c-1-0.5-1.9-1.2-2.7-2c-0.8,0.8-1.7,1.4-2.7,2c1.3,2.7,1.6,5.8,0.9,8.8l-2.1,8.2
				C41.2,70.3,36,74.2,30.2,74.2z"/>
		</g>
	</g>
	<g class="st3">
		<g>
			<path class="st1" d="M30.2,73.3c-1,0-2-0.1-3-0.4c-6.5-1.7-10.4-8.3-8.8-14.8l0.2-0.7L6,47c-3.8-3.2-5.3-8.4-3.8-13.1
				c1.5-4.7,5.8-8,10.8-8.4l16.3-1.1l6.1-15.2c1.8-4.6,6.3-7.6,11.3-7.6c0,0,0,0,0,0c5,0,9.4,3,11.3,7.7L64,24.5l16.3,1.1
				c5,0.3,9.2,3.6,10.8,8.4c1.5,4.7,0,9.9-3.8,13.1L74.7,57.5l0.2,0.7c1.7,6.5-2.3,13.1-8.8,14.8c-6.5,1.7-13.1-2.3-14.8-8.8
				L49.3,56c-0.8-3.1-0.3-6.2,1.2-8.9c-1.4-0.7-2.7-1.6-3.8-2.7c-1.1,1.2-2.4,2.1-3.8,2.7c1.5,2.7,1.9,5.8,1.2,8.9l-2.1,8.2
				C40.5,69.7,35.6,73.3,30.2,73.3z"/>
		</g>
	</g>
	<g class="st4">
		<g>
			<path class="st1" d="M63.1,72.5c-5.1,0-9.7-3.4-11-8.5L50,55.8c-0.8-3.2-0.2-6.5,1.6-9.1c-2-0.7-3.7-2-5-3.6
				c-1.3,1.6-3,2.9-5,3.6c1.8,2.6,2.4,5.9,1.6,9.1L41.2,64c-1.5,6.1-7.7,9.7-13.8,8.2c-6.1-1.5-9.7-7.7-8.2-13.8l0.3-1.2l-13-10.8
				c-3.6-3-5-7.8-3.5-12.2c1.4-4.4,5.4-7.5,10-7.8l16.8-1.1l6.3-15.7c1.7-4.3,5.9-7.1,10.5-7.1c0,0,0,0,0,0c4.6,0,8.8,2.8,10.5,7.1
				l6.2,15.7l16.8,1.1c4.6,0.3,8.6,3.4,10,7.8c1.4,4.4,0,9.3-3.5,12.2l-13,10.8l0.3,1.2c1.5,6.1-2.1,12.2-8.2,13.8
				C65,72.4,64,72.5,63.1,72.5z"/>
		</g>
	</g>
	<g class="st5">
		<g>
			<path class="st1" d="M30.2,71.7c-0.9,0-1.7-0.1-2.6-0.3c-5.6-1.4-9-7.2-7.6-12.8l0.4-1.7L7,45.8C3.7,43,2.4,38.5,3.8,34.4
				c1.3-4.1,5-7,9.3-7.3L30.4,26l6.4-16.1c1.6-4,5.5-6.6,9.8-6.6c0,0,0,0,0,0c4.3,0,8.2,2.6,9.8,6.6L62.9,26l17.3,1.1
				c4.3,0.3,8,3.2,9.3,7.3c1.3,4.1,0,8.6-3.3,11.4L72.9,56.9l0.4,1.7c1.4,5.6-2,11.4-7.6,12.8c-5.6,1.4-11.4-2-12.8-7.6l-2.1-8.2
				c-0.8-3.3,0-6.8,2.1-9.3c-2.6-0.7-4.9-2.3-6.3-4.6c-1.4,2.3-3.7,3.9-6.3,4.6c2.1,2.6,2.9,6,2.1,9.3l-2.1,8.2
				C39.2,68.6,34.9,71.7,30.2,71.7z"/>
		</g>
	</g>
	<g class="st6">
		<g>
			<path class="st1" d="M30.2,70.9c-0.8,0-1.6-0.1-2.4-0.3c-5.2-1.3-8.3-6.6-7-11.8l0.6-2.2L7.6,45.1c-3.1-2.5-4.3-6.7-3-10.5
				c1.2-3.8,4.6-6.4,8.6-6.7L31,26.8l6.6-16.6c1.5-3.7,5.1-6.1,9-6.1c0,0,0,0,0,0c4,0,7.6,2.4,9,6.1l6.6,16.6L80.2,28
				c4,0.3,7.4,2.9,8.6,6.7c1.2,3.8,0,7.9-3,10.5L72,56.6l0.6,2.2c1.3,5.2-1.8,10.5-7,11.8c-5.2,1.3-10.5-1.8-11.8-7l-2.1-8.2
				c-0.9-3.5,0.3-7.2,3-9.7c-3.5-0.4-6.5-2.6-7.9-5.8c-1.4,3.2-4.4,5.4-7.9,5.8c2.7,2.4,3.9,6.1,3,9.7l-2.1,8.2
				C38.5,68,34.5,70.9,30.2,70.9z"/>
		</g>
	</g>
	<g class="st7">
		<g>
			<path class="st1" d="M30.2,70.1c-0.7,0-1.5-0.1-2.2-0.3c-4.8-1.2-7.7-6.1-6.4-10.8l0.7-2.7L8.1,44.5c-2.8-2.3-3.9-6.1-2.8-9.6
				c1.1-3.5,4.3-5.9,7.9-6.1l18.4-1.2l6.8-17.1c1.4-3.4,4.6-5.6,8.3-5.6c0,0,0,0,0,0c3.6,0,6.9,2.2,8.3,5.6l6.8,17.1l18.4,1.2
				c3.6,0.2,6.8,2.7,7.9,6.1c1.1,3.5,0,7.3-2.8,9.6L71.1,56.3l0.7,2.7c1.2,4.8-1.7,9.6-6.4,10.8c-4.8,1.2-9.6-1.7-10.8-6.4l-2.1-8.2
				c-0.8-3.3,0.3-6.9,2.9-9.1l1.3-1.1L55,45c-3.4-0.2-6.4-2.4-7.7-5.6l-0.6-1.6L46,39.4c-1.3,3.2-4.3,5.4-7.7,5.6l-1.7,0.1l1.3,1.1
				c2.6,2.2,3.8,5.7,2.9,9.1l-2.1,8.2C37.8,67.4,34.1,70.1,30.2,70.1z"/>
		</g>
	</g>
	<g class="st8">
		<g>
			<path class="st1" d="M30.2,69.3c-0.7,0-1.3-0.1-2-0.3c-4.3-1.1-7-5.5-5.9-9.9l0.8-3.2L8.6,43.9C6,41.8,5,38.3,6.1,35.2
				c1-3.2,3.9-5.4,7.2-5.6l18.9-1.2l7-17.6c1.2-3.1,4.2-5.1,7.5-5.1c0,0,0,0,0,0c3.3,0,6.3,2,7.5,5.1l7,17.6L80,29.6
				c3.3,0.2,6.2,2.4,7.2,5.6c1,3.2,0,6.6-2.5,8.7L70.2,56l0.8,3.2c1.1,4.3-1.5,8.7-5.9,9.9c-4.3,1.1-8.7-1.5-9.9-5.9L53.2,55
				c-0.8-3,0.3-6.2,2.7-8.2l2.9-2.4L55,44.2c-3.1-0.2-5.8-2.2-7-5.1l-1.4-3.5l-1.4,3.5c-1.2,2.9-3.9,4.9-7,5.1l-3.7,0.2l2.9,2.4
				c2.4,2,3.4,5.2,2.7,8.2L38,63.2C37.1,66.9,33.8,69.3,30.2,69.3z"/>
		</g>
	</g>
	<g class="st9">
		<g>
			<path class="st1" d="M30.2,68.5c-0.6,0-1.2-0.1-1.8-0.2c-3.9-1-6.3-5-5.3-8.9l0.9-3.7L9.1,43.3c-2.3-1.9-3.2-5-2.3-7.9
				c0.9-2.8,3.5-4.8,6.5-5l19.4-1.3l7.2-18c1.1-2.8,3.8-4.6,6.8-4.6c0,0,0,0,0,0c3,0,5.7,1.8,6.8,4.6l7.2,18L80,30.4
				c3,0.2,5.5,2.2,6.5,5c0.9,2.8,0,6-2.3,7.9L69.2,55.7l0.9,3.7c1,3.9-1.4,7.9-5.3,8.9c-3.9,1-7.9-1.4-8.9-5.3L54,54.8
				c-0.7-2.7,0.2-5.6,2.4-7.4l4.4-3.7l-5.7-0.4c-2.8-0.2-5.3-2-6.3-4.6l-2.1-5.3l-2.1,5.3c-1,2.6-3.5,4.4-6.3,4.6l-5.7,0.4l4.4,3.7
				c2.2,1.8,3.1,4.7,2.4,7.4L37.2,63C36.4,66.3,33.4,68.5,30.2,68.5z"/>
		</g>
	</g>
	<g class="st10">
		<g>
			<path class="st1" d="M30.2,67.7c-0.5,0-1.1-0.1-1.6-0.2c-3.5-0.9-5.6-4.4-4.7-7.9l1.1-4.2L9.6,42.6c-2-1.7-2.8-4.5-2-7
				c0.8-2.5,3.1-4.3,5.7-4.5l19.9-1.3l7.4-18.5c1-2.5,3.4-4.1,6-4.1c0,0,0,0,0,0c2.7,0,5,1.6,6,4.1L60,29.9l19.9,1.3
				c2.6,0.2,4.9,1.9,5.7,4.5c0.8,2.5,0,5.3-2,7L68.3,55.4l1.1,4.2c0.9,3.5-1.2,7-4.7,7.9c-3.5,0.9-7-1.2-7.9-4.7l-2.1-8.2
				c-0.6-2.4,0.2-5,2.1-6.6l6-5l-7.8-0.5c-2.5-0.2-4.7-1.7-5.6-4.1l-2.9-7.2l-2.9,7.2c-0.9,2.3-3.1,3.9-5.6,4.1l-7.8,0.5l6,5
				c1.9,1.6,2.8,4.2,2.1,6.6l-2.1,8.2C35.7,65.7,33.1,67.7,30.2,67.7z"/>
		</g>
	</g>
	<g class="st11">
		<g>
			<path class="st1" d="M30.2,66.9c-0.5,0-0.9-0.1-1.4-0.2c-3-0.8-4.9-3.9-4.1-6.9l1.2-4.7L10.1,42c-1.8-1.5-2.5-3.9-1.8-6.1
				c0.7-2.2,2.7-3.8,5-3.9l20.4-1.3l7.6-19c0.9-2.2,2.9-3.6,5.3-3.6c0,0,0,0,0,0c2.3,0,4.4,1.4,5.3,3.6l7.6,19L79.9,32
				c2.3,0.2,4.3,1.7,5,3.9c0.7,2.2,0,4.6-1.8,6.1L67.4,55.1l1.2,4.7c0.8,3-1.1,6.1-4.1,6.9c-3,0.8-6.1-1.1-6.9-4.1l-2.1-8.2
				c-0.5-2.1,0.2-4.4,1.9-5.8l7.5-6.3l-9.8-0.6c-2.2-0.1-4.1-1.5-4.9-3.6l-3.6-9.1L43,38.2c-0.8,2-2.7,3.4-4.9,3.6l-9.8,0.6l7.5,6.3
				c1.7,1.4,2.4,3.6,1.9,5.8l-2.1,8.2C35,65.2,32.7,66.9,30.2,66.9z"/>
		</g>
	</g>
	<g class="st12">
		<g>
			<path class="st1" d="M30.2,66.1c-0.4,0-0.8,0-1.2-0.2c-2.6-0.7-4.2-3.3-3.5-5.9l1.3-5.2L10.7,41.4c-1.5-1.3-2.1-3.3-1.5-5.2
				c0.6-1.9,2.3-3.2,4.3-3.3l20.9-1.4L42.1,12c0.7-1.8,2.5-3.1,4.5-3.1c0,0,0,0,0,0c2,0,3.8,1.2,4.5,3.1l7.8,19.5l20.9,1.4
				c2,0.1,3.7,1.5,4.3,3.3c0.6,1.9,0,4-1.5,5.2L66.5,54.8l1.3,5.2c0.7,2.6-0.9,5.2-3.5,5.9c-2.6,0.7-5.2-0.9-5.9-3.5l-2.1-8.2
				c-0.5-1.8,0.2-3.7,1.6-4.9l9.1-7.6l-11.8-0.8c-1.9-0.1-3.5-1.3-4.2-3l-4.4-11l-4.4,11c-0.7,1.7-2.3,2.9-4.2,3l-11.8,0.8l9.1,7.6
				c1.4,1.2,2.1,3.1,1.6,4.9l-2.1,8.2C34.3,64.6,32.3,66.1,30.2,66.1z"/>
		</g>
	</g>
	<g class="st13">
		<g>
			<path class="st1" d="M63.1,65.2c-1.8,0-3.5-1.2-3.9-3.1L57.1,54c-0.4-1.5,0.1-3.1,1.3-4.1L69.1,41l-13.8-0.9
				c-1.6-0.1-2.9-1.1-3.5-2.5l-5.1-12.9l-5.1,12.9C40.9,39,39.6,40,38,40.1L24.2,41l10.7,8.9c1.2,1,1.7,2.6,1.3,4.1l-2.1,8.2
				c-0.6,2.2-2.8,3.5-4.9,2.9c-2.2-0.6-3.5-2.8-2.9-4.9l1.4-5.7L11.2,40.8c-1.3-1.1-1.8-2.8-1.3-4.4c0.5-1.6,1.9-2.7,3.6-2.8
				l21.4-1.4l8-19.9c0.6-1.5,2.1-2.5,3.8-2.5c0,0,0,0,0,0c1.7,0,3.1,1,3.8,2.6l8,19.9l21.4,1.4c1.7,0.1,3.1,1.2,3.6,2.8
				c0.5,1.6,0,3.3-1.3,4.4L65.6,54.5l1.4,5.7c0.6,2.2-0.8,4.4-2.9,4.9C63.8,65.2,63.4,65.2,63.1,65.2z"/>
		</g>
	</g>
	<g class="st14">
		<g>
			<path class="st1" d="M30.2,64.4c-0.3,0-0.5,0-0.8-0.1c-1.7-0.4-2.8-2.2-2.3-3.9l1.6-6.2L11.7,40.2c-1-0.8-1.4-2.2-1-3.5
				c0.4-1.3,1.5-2.1,2.9-2.2L35.5,33l8.2-20.4c0.5-1.2,1.7-2,3-2h0c1.3,0,2.5,0.8,3,2L57.8,33l21.9,1.4c1.3,0.1,2.5,1,2.9,2.2
				c0.4,1.3,0,2.6-1,3.5L64.7,54.2l1.6,6.2c0.4,1.7-0.6,3.5-2.3,3.9c-1.7,0.4-3.5-0.6-3.9-2.3l-2.1-8.2c-0.3-1.2,0.1-2.5,1.1-3.3
				l12.2-10.2l-15.9-1c-1.2-0.1-2.3-0.9-2.8-2l-5.9-14.8l-5.9,14.8c-0.5,1.2-1.6,2-2.8,2l-15.9,1l12.2,10.2c1,0.8,1.4,2.1,1.1,3.3
				L33.3,62C32.9,63.5,31.6,64.4,30.2,64.4z"/>
		</g>
	</g>
	<g class="st15">
		<g>
			<path class="st1" d="M63.1,63.6c-1.1,0-2.1-0.7-2.4-1.8l-2.1-8.2c-0.2-0.9,0.1-1.9,0.8-2.5l13.8-11.5l-17.9-1.2
				c-0.9-0.1-1.8-0.7-2.1-1.5l-6.6-16.7L40,37c-0.3,0.9-1.2,1.5-2.1,1.5L20,39.7l13.8,11.5c0.7,0.6,1,1.6,0.8,2.5l-2.1,8.2
				c-0.3,1.3-1.7,2.1-3,1.8c-1.3-0.3-2.1-1.7-1.8-3l1.7-6.7L12.2,39.5c-0.8-0.6-1.1-1.7-0.8-2.6c0.3-0.9,1.2-1.6,2.2-1.7L36,33.8
				l8.3-20.9c0.4-0.9,1.3-1.5,2.3-1.5h0c1,0,1.9,0.6,2.3,1.5l8.3,20.9l22.4,1.5c1,0.1,1.8,0.7,2.2,1.7c0.3,0.9,0,2-0.8,2.6
				L63.8,53.9l1.7,6.7c0.3,1.3-0.5,2.6-1.8,3C63.5,63.6,63.3,63.6,63.1,63.6z"/>
		</g>
	</g>
	<g>
		<g>
			<path class="st1" d="M63.1,62.8c-0.7,0-1.4-0.5-1.6-1.2l-2.1-8.2c-0.2-0.6,0.1-1.2,0.5-1.6L75.4,39l-19.9-1.3
				c-0.6,0-1.2-0.4-1.4-1l-7.4-18.5l-7.4,18.5c-0.2,0.6-0.8,1-1.4,1L17.9,39l15.3,12.8c0.5,0.4,0.7,1,0.5,1.6l-2.1,8.2
				c-0.2,0.9-1.1,1.4-2,1.2c-0.9-0.2-1.4-1.1-1.2-2l1.8-7.2L12.7,38.9c-0.5-0.4-0.7-1.1-0.5-1.7c0.2-0.6,0.8-1.1,1.4-1.1l22.9-1.5
				l8.5-21.4c0.2-0.6,0.8-1,1.5-1c0,0,0,0,0,0c0.7,0,1.3,0.4,1.5,1l8.5,21.4l23,1.5c0.7,0,1.2,0.5,1.4,1.1c0.2,0.6,0,1.3-0.5,1.7
				L62.9,53.6l1.8,7.2c0.2,0.9-0.3,1.7-1.2,2C63.4,62.8,63.2,62.8,63.1,62.8z"/>
		</g>
	</g>
	<g>
		<g>
			<path class="st16" d="M63.1,61.7c-0.2,0-0.5-0.2-0.5-0.4l-2.1-8.2c-0.1-0.2,0-0.4,0.2-0.5l17.4-14.5l-22.6-1.5
				c-0.2,0-0.4-0.1-0.5-0.3l-8.4-21.1l-8.4,21.1c-0.1,0.2-0.3,0.3-0.5,0.3l-22.6,1.5l17.4,14.5c0.2,0.1,0.2,0.3,0.2,0.5l-2.1,8.2
				c-0.1,0.3-0.4,0.5-0.7,0.4c-0.3-0.1-0.5-0.4-0.4-0.7l2-7.8L13.4,38.1c-0.2-0.1-0.2-0.4-0.2-0.6c0.1-0.2,0.3-0.4,0.5-0.4l23.6-1.6
				l8.8-22c0.1-0.2,0.3-0.3,0.5-0.3l0,0c0.2,0,0.4,0.1,0.5,0.3l8.8,22l23.6,1.6c0.2,0,0.4,0.2,0.5,0.4c0.1,0.2,0,0.4-0.2,0.6
				L61.6,53.2l2,7.8c0.1,0.3-0.1,0.6-0.4,0.7C63.2,61.7,63.2,61.7,63.1,61.7z"/>
		</g>
	</g>
</g>
</svg>
