<svg width="135" height="48" viewBox="0 0 135 48" fill="none" xmlns="http://www.w3.org/2000/svg">
<path d="M22.3669 0.977051C10.0143 0.977051 0 11.4864 0 24.4496C0 37.4127 10.0143 47.9221 22.3669 47.9221C34.7194 47.9221 44.7337 37.4127 44.7337 24.4496C44.7337 11.4864 34.7194 0.977051 22.3669 0.977051ZM43.2793 24.4496C43.2793 36.5695 33.9172 46.3957 22.3669 46.3957C10.8165 46.3957 1.45448 36.5695 1.45448 24.4496C1.45448 12.3296 10.8178 2.50343 22.3669 2.50343C33.9159 2.50343 43.2793 12.3296 43.2793 24.4496Z" fill="#6F6F6F"/>
<path d="M22.3669 10.5303V11.2935C29.279 11.2935 34.9036 17.1947 34.9036 24.4498H35.6308C35.6308 16.7627 29.6919 10.5303 22.3669 10.5303ZM22.3669 37.6062C15.4549 37.6062 9.83027 31.7049 9.83027 24.4498H9.10303C9.10303 32.1369 15.0419 38.3694 22.3669 38.3694" fill="#6F6F6F"/>
<path d="M33.207 14.4908C33.5108 14.8331 33.9487 15.3851 34.1946 15.7205L38.7238 12.7036C38.4976 12.3931 38.1372 11.9211 37.8676 11.5885L34.9995 13.5786L34.8035 13.7552L34.9495 13.5316L36.2159 10.8791L35.3203 9.93927L32.7914 11.2683L32.5784 11.4215L32.748 11.2159L34.6457 8.20726C34.3117 7.90917 33.9908 7.63591 33.5818 7.30469L30.707 12.0536C31.0713 12.3475 31.5513 12.7795 31.8577 13.0734L34.5642 11.5995L34.7377 11.4656L34.6102 11.6478L33.207 14.4908Z" fill="#6F6F6F"/>
<path d="M22.9297 8.47238L24.1672 5.56316L24.2461 5.30508L24.2238 5.5742L24.354 9.4619C24.7879 9.50469 25.2364 9.56817 25.6783 9.64545L25.477 3.88773C24.859 3.81597 24.2435 3.76491 23.628 3.7373L22.409 6.91288L22.3656 7.14888L22.3222 6.91288L21.1044 3.7373C20.489 3.76491 19.8735 3.81597 19.2554 3.88773L19.0542 9.64545C19.4961 9.56817 19.9445 9.50607 20.3785 9.4619L20.5087 5.5742L20.4863 5.30508L20.5652 5.56316L21.8027 8.47238H22.9297Z" fill="#6F6F6F"/>
<path d="M12.9206 13.0607C13.6361 12.2699 14.0411 11.3563 13.3257 10.4841C12.9364 10.0107 12.2828 9.90718 11.741 10.1404L11.6871 10.1625L11.7042 10.1128C11.7844 9.88786 11.8357 9.17021 11.2531 8.67476C10.9691 8.43325 10.6127 8.34354 10.2524 8.38218C9.58035 8.45395 9.06352 8.9356 7.65639 10.582C7.23162 11.0789 6.61353 11.8628 6.24268 12.3706L10.1077 16.2183C11.3886 14.7306 11.9107 14.1772 12.9206 13.0607ZM7.87732 12.1195C8.65585 11.1203 9.48303 10.2136 9.85783 9.85473C9.97619 9.74157 10.1051 9.6284 10.2616 9.58424C10.5154 9.51109 10.7771 9.70017 10.8362 9.97342C10.8954 10.2481 10.731 10.5089 10.5482 10.7242C10.1366 11.2114 8.62691 12.8688 8.62691 12.8688L7.87732 12.1195ZM9.39098 13.6265C9.39098 13.6265 10.8612 11.9952 11.3412 11.4736C11.5319 11.2666 11.6542 11.141 11.7857 11.0734C11.9554 10.9864 12.1408 10.9685 12.3065 11.0844C12.4696 11.1989 12.5445 11.3963 12.5038 11.5923C12.4551 11.8255 12.2736 12.0477 12.1237 12.2174C11.9212 12.4452 10.1774 14.4035 10.1748 14.4063L9.39098 13.6265Z" fill="#6F6F6F"/>
<path d="M22.3669 10.5303V24.4498H9.10303C9.10303 16.7572 15.0367 10.5303 22.3669 10.5303Z" fill="#0066B1"/>
<path d="M35.6306 24.4497C35.6306 32.1423 29.697 38.3693 22.3667 38.3693V24.4497H35.6306Z" fill="#0066B1"/>
<path d="M73.7012 16.9349H93.0009C94.2268 14.9445 95.8379 13.3663 97.8372 12.1969C99.8349 11.0292 102.004 10.4453 104.346 10.4453C106.686 10.4453 108.86 11.0308 110.866 12.2035C112.871 13.3761 114.481 14.9543 115.691 16.9349H135L133.089 18.9236H116.744C117.08 19.6776 117.335 20.4643 117.508 21.2853H130.874L128.963 23.2757H117.803C117.836 23.7892 117.852 24.1784 117.852 24.4434C117.852 24.7083 117.836 25.0992 117.803 25.6128H126.718L124.805 27.6015H117.508C117.335 28.4307 117.08 29.2141 116.744 29.9517H122.526L120.59 31.9404H115.691C114.481 33.9243 112.871 35.5074 110.866 36.6866C108.86 37.8658 106.686 38.4545 104.346 38.4545C102.004 38.4545 99.8349 37.8674 97.8372 36.6931C95.8379 35.5172 94.2268 33.9324 93.0009 31.9404H88.1111L86.2108 29.9517H91.9824C91.6491 29.2141 91.3977 28.4307 91.2263 27.6015H83.9334L81.9969 25.6128H90.9104C90.8774 25.0992 90.8617 24.7083 90.8617 24.4434C90.8617 24.1784 90.8774 23.7892 90.9104 23.2757H79.7745L77.8381 21.2853H91.2263C91.3977 20.4643 91.6491 19.6776 91.9824 18.9236H75.6124L73.7012 16.9349ZM93.7349 19.7823C93.1266 21.2657 92.8217 22.8194 92.8217 24.4434C92.8217 26.0674 93.1266 27.6228 93.7349 29.1061C94.3431 30.5879 95.1636 31.8685 96.1947 32.9446C97.2258 34.0208 98.4517 34.8761 99.8726 35.5123C101.293 36.1485 102.785 36.4658 104.346 36.4658C105.905 36.4658 107.398 36.1485 108.824 35.5123C110.248 34.8761 111.477 34.0208 112.508 32.9446C113.539 31.8685 114.36 30.5879 114.974 29.1061C115.587 27.6228 115.894 26.0674 115.894 24.4434C115.894 22.8194 115.587 21.2657 114.974 19.7823C114.36 18.2989 113.539 17.0216 112.508 15.9487C111.477 14.8775 110.248 14.0237 108.824 13.3875C107.398 12.7513 105.905 12.4341 104.346 12.4341C102.785 12.4341 101.293 12.7513 99.8726 13.3875C98.4517 14.0237 97.2258 14.8775 96.1947 15.9487C95.1636 17.0216 94.3431 18.2989 93.7349 19.7823ZM95.1495 27.6015H96.344L96.3094 22.8897L97.7554 27.6015L99.0836 27.5933L100.503 22.9142V27.6015H101.778V21.2853L99.9826 21.2836L98.4423 26.3209L96.8721 21.2902L95.1495 21.2853V27.6015ZM103.151 27.6015H104.417V21.2853H103.151V27.6015ZM105.79 27.6015H107.008V23.0516L109.432 27.6015H110.902V21.2853H109.707V25.8613L107.283 21.2853H105.79V27.6015ZM112.299 27.6015H113.541V21.2853H112.299V27.6015Z" fill="black"/>
</svg>
