<svg width="" height="" viewBox="0 0 170 1" fill="none" xmlns="http://www.w3.org/2000/svg">
<g clip-path="url(#clip0_112_294)">
<path d="M43.4954 92.4318C30.6326 92.4318 17.7699 92.4318 4.90717 92.4318C3.81049 92.4318 2.7417 92.3298 1.81231 91.6356C0.529751 90.6965 0 89.3083 0 87.6546C0 85.123 0 82.5915 0 80.06C0 58.5827 0 37.1054 0 15.6282C0 14.8524 0.0185878 14.0664 0.148702 13.311C0.50187 11.2899 1.94242 9.86077 3.81049 9.84036C8.64331 9.78932 13.4761 9.83015 18.309 9.80973C19.0896 9.80973 19.3313 10.1568 19.2941 11.004C19.229 12.5148 19.1919 14.0154 19.3963 15.5261C19.796 18.4353 22.1566 20.5279 24.8518 20.334C27.5099 20.14 29.5731 17.8229 29.6568 14.8932C29.694 13.6683 29.7218 12.4434 29.694 11.2184C29.6661 10.1262 30.0564 9.77911 31.0695 9.78932C36.2369 9.84036 41.4043 9.80973 46.5717 9.80973C49.6572 9.80973 52.7428 9.84036 55.8284 9.78932C56.8042 9.7689 57.1667 10.167 57.1202 11.2184C57.0737 12.4025 57.083 13.5866 57.1202 14.7707C57.2131 17.9454 59.5366 20.385 62.4084 20.3442C65.1501 20.3034 67.455 17.7412 67.5108 14.6584C67.5294 13.4335 67.5387 12.2086 67.5108 10.9836C67.4922 10.167 67.771 9.79953 68.5517 9.79953C73.3473 9.81994 78.143 9.7689 82.9386 9.83015C85.0669 9.86077 86.5725 11.5655 86.7677 13.9643C86.8049 14.4543 86.7863 14.9443 86.7863 15.4342C86.7863 39.2797 86.7863 63.1252 86.7863 86.9706C86.7863 90.7986 85.3271 92.4216 81.8419 92.4216C69.0536 92.4216 56.2652 92.4216 43.4768 92.4216L43.4954 92.4318ZM43.4954 26.0708C31.6364 26.0708 19.7774 26.081 7.91839 26.0504C6.82171 26.0504 6.42207 26.377 6.43137 27.6326C6.45925 46.7416 6.45925 65.8507 6.43137 84.9597C6.43137 86.1336 6.75665 86.4909 7.83474 86.4909C31.5156 86.4603 55.1964 86.4705 78.8772 86.4705C80.42 86.4705 80.4571 86.4296 80.4571 84.776C80.4571 65.7894 80.4571 46.8029 80.4571 27.8163C80.4571 26.081 80.4571 26.081 78.8586 26.0708C67.074 26.0708 55.2893 26.0708 43.5047 26.0708H43.4954Z" fill="black"/>
<path d="M65.8657 9.2891C65.8657 11.0448 65.8843 12.8006 65.8657 14.5461C65.8286 16.8429 64.4902 18.4353 62.5571 18.5272C60.5125 18.6293 58.9325 17.2614 58.7931 14.9442C58.57 11.1163 58.5515 7.27816 58.8117 3.46043C58.9604 1.25554 60.6054 -0.122512 62.5757 0.0203979C64.4902 0.163307 65.8193 1.70469 65.8657 3.90958C65.9029 5.70615 65.8657 7.50273 65.8657 9.2891Z" fill="black"/>
<path d="M20.9205 9.1873C20.9205 7.47239 20.9019 5.75747 20.9205 4.05277C20.967 1.69476 22.4168 0.0410918 24.4429 0.000260476C26.4504 -0.0405708 28.0675 1.59268 28.1047 3.88944C28.1698 7.47239 28.1698 11.0655 28.1047 14.6485C28.0582 16.935 26.5061 18.507 24.5358 18.507C22.4912 18.507 21.0321 16.9146 20.9298 14.5566C20.8926 13.6583 20.9298 12.76 20.9205 11.8617C20.9205 10.9635 20.9205 10.0652 20.9205 9.16688V9.1873Z" fill="black"/>
<path d="M34.3502 68.1474C36.1346 68.1474 37.9097 68.1781 39.6942 68.1372C40.5585 68.1168 40.8745 68.4945 40.8652 69.4438C40.8373 73.3943 40.8373 77.3549 40.8652 81.3053C40.8652 82.2444 40.5399 82.6323 39.6942 82.6323C36.0603 82.6119 32.4171 82.6119 28.7832 82.6323C27.9653 82.6323 27.6679 82.2342 27.6772 81.3666C27.6958 77.3753 27.6958 73.3739 27.6772 69.3826C27.6772 68.4026 28.0768 68.1168 28.904 68.1372C30.7256 68.1781 32.5379 68.1474 34.3595 68.1474H34.3502Z" fill="black"/>
<path d="M22.77 75.3133C22.77 77.314 22.7421 79.3045 22.7793 81.3053C22.7979 82.2546 22.4447 82.6221 21.599 82.6221C18.0023 82.6016 14.4055 82.6016 10.7995 82.6221C9.97234 82.6221 9.582 82.3158 9.582 81.3461C9.60988 77.3548 9.60059 73.3636 9.582 69.3621C9.582 68.4842 9.8887 68.127 10.7066 68.127C14.3405 68.1576 17.9744 68.1576 21.6176 68.127C22.5005 68.127 22.7979 68.5149 22.7793 69.4438C22.7421 71.4037 22.77 73.3534 22.77 75.3133Z" fill="black"/>
<path d="M34.1271 45.2408C32.3055 45.2408 30.4932 45.2102 28.6716 45.251C27.9374 45.2714 27.6679 44.9754 27.6772 44.1996C27.6865 40.1267 27.6865 36.0538 27.6772 31.9707C27.6772 31.2051 27.9839 30.8784 28.6902 30.8784C32.3985 30.8988 36.1067 30.8988 39.8243 30.8784C40.605 30.8784 40.8652 31.2663 40.8652 32.0727C40.8466 36.1048 40.8466 40.1471 40.8652 44.1792C40.8652 45.0469 40.5492 45.3021 39.7964 45.2919C37.9097 45.251 36.0138 45.2817 34.1178 45.2817C34.1178 45.2714 34.1178 45.2612 34.1178 45.251L34.1271 45.2408Z" fill="black"/>
<path d="M45.8653 75.3133C45.8653 73.3125 45.8932 71.3118 45.856 69.3111C45.8374 68.4944 46.0326 68.127 46.8412 68.127C50.4844 68.1576 54.1276 68.1576 57.7708 68.127C58.6351 68.127 58.9511 68.4842 58.9418 69.4336C58.9139 73.3942 58.9139 77.3548 58.9418 81.3155C58.9418 82.2648 58.6258 82.6221 57.7708 82.6221C54.1647 82.6016 50.5587 82.5914 46.9527 82.6221C46.0512 82.6221 45.8188 82.2444 45.8467 81.3053C45.9025 79.3045 45.8653 77.3038 45.8653 75.3031V75.3133Z" fill="black"/>
<path d="M16.1714 63.8498C14.3498 63.8498 12.5374 63.8192 10.7158 63.86C9.88869 63.8804 9.59129 63.5129 9.60058 62.6453C9.61917 58.654 9.61917 54.6526 9.60058 50.6613C9.60058 49.8345 9.90728 49.5078 10.6694 49.5078C14.3405 49.5282 18.0208 49.5282 21.6919 49.5078C22.5284 49.5078 22.7886 49.9059 22.7886 50.7634C22.77 54.7546 22.77 58.7561 22.7886 62.7474C22.7886 63.5946 22.5191 63.8906 21.7384 63.8702C19.8796 63.8192 18.0301 63.8498 16.1714 63.8498Z" fill="black"/>
<path d="M34.1736 63.8603C32.352 63.8603 30.5397 63.8297 28.7181 63.8705C28.0304 63.8909 27.6772 63.7072 27.6772 62.8804C27.6958 58.8074 27.6865 54.7243 27.6772 50.6514C27.6772 49.8143 28.0396 49.5081 28.7832 49.5183C32.4542 49.5387 36.1346 49.5387 39.8057 49.5183C40.5678 49.5183 40.8652 49.8552 40.8652 50.682C40.8466 54.6733 40.8466 58.6747 40.8652 62.666C40.8652 63.5643 40.5585 63.8909 39.7406 63.8705C37.8819 63.8297 36.0324 63.8603 34.1736 63.8603Z" fill="black"/>
<path d="M70.4662 68.1473C72.2506 68.1473 74.0258 68.1677 75.8102 68.1371C76.6281 68.1269 77.0277 68.4025 77.0277 69.3927C76.9998 73.3839 76.9998 77.3854 77.0277 81.3767C77.0277 82.2852 76.6745 82.622 75.8939 82.6118C72.2971 82.6118 68.6911 82.6016 65.0944 82.6118C64.2393 82.6118 63.9326 82.2137 63.9419 81.2746C63.9698 77.3242 63.9698 73.3635 63.9419 69.4131C63.9419 68.4434 64.2765 68.1167 65.1222 68.1371C66.9067 68.178 68.6818 68.1473 70.4662 68.1473Z" fill="black"/>
<path d="M45.8653 38.0445C45.8653 36.003 45.8932 33.9614 45.856 31.9198C45.8374 31.144 46.0047 30.8582 46.7761 30.8684C50.3822 30.9195 53.9882 30.9195 57.5942 30.8684C58.6072 30.8582 58.9697 31.2257 58.9511 32.3588C58.9046 36.3194 58.9139 40.28 58.9511 44.2407C58.9511 45.0777 58.7095 45.2615 57.9938 45.2615C54.2391 45.2308 50.4844 45.2308 46.7297 45.2615C46.0419 45.2615 45.8282 45.0471 45.8467 44.2917C45.8932 42.2093 45.8653 40.1269 45.8653 38.0445Z" fill="black"/>
<path d="M70.4755 63.8498C68.6911 63.8498 66.916 63.8191 65.1315 63.86C64.3044 63.8804 63.9233 63.615 63.9326 62.6248C63.9698 58.6744 63.9698 54.7138 63.9326 50.7633C63.9326 49.7834 64.3044 49.4976 65.1315 49.4976C68.6911 49.518 72.26 49.5282 75.8195 49.4976C76.7582 49.4976 77.0277 49.9059 77.0184 50.8858C76.9905 54.8771 76.9812 58.8785 77.0184 62.8698C77.0184 63.7375 76.721 63.8804 76.0333 63.8702C74.1745 63.8293 72.325 63.86 70.4662 63.86L70.4755 63.8498Z" fill="black"/>
<path d="M77.0091 38.1568C77.0091 40.1167 76.9812 42.0766 77.0184 44.0263C77.037 44.8838 76.8232 45.2717 75.9496 45.2512C72.3436 45.2002 68.7469 45.2104 65.1408 45.2512C64.2021 45.2614 63.9233 44.8633 63.9326 43.8834C63.9698 40.0044 63.9791 36.1357 63.9326 32.2567C63.9233 31.1542 64.323 30.8582 65.2524 30.8684C68.7469 30.9092 72.2321 30.9092 75.7266 30.8684C76.6838 30.8582 77.0556 31.2053 77.0277 32.2771C76.9719 34.237 77.0091 36.1969 77.0091 38.1466V38.1568Z" fill="black"/>
<path d="M52.4175 63.8498C50.5959 63.8498 48.7743 63.8192 46.9527 63.86C46.1813 63.8804 45.8281 63.6967 45.8374 62.7167C45.8839 58.6744 45.8746 54.6321 45.8374 50.5898C45.8374 49.763 46.107 49.5078 46.804 49.5078C50.4844 49.518 54.1648 49.5282 57.8451 49.5078C58.6816 49.5078 58.9418 49.9059 58.9325 50.7736C58.9139 54.7751 58.9046 58.7765 58.9325 62.778C58.9325 63.6661 58.6165 63.8804 57.8637 63.8702C56.0421 63.8294 54.2205 63.86 52.3989 63.86L52.4175 63.8498ZM52.2409 60.9814C53.2447 60.9814 54.2484 60.961 55.2521 60.9814C55.9213 61.0018 56.1908 60.6854 56.1815 59.9606C56.1629 57.8374 56.1629 55.7142 56.1815 53.5909C56.1815 52.7947 55.8841 52.4987 55.1778 52.5089C53.3562 52.5293 51.5346 52.5395 49.713 52.5089C48.9044 52.4885 48.5698 52.8254 48.5884 53.7236C48.6163 55.8469 48.607 57.9701 48.5698 60.0933C48.5605 60.7262 48.765 60.9916 49.3412 60.9712C50.3078 60.9508 51.2744 60.9712 52.2409 60.9712V60.9814Z" fill="black"/>
</g>
<defs>
<clipPath id="clip0_112_294">
<rect width="86.8049" height="92.4318" fill="white"/>
</clipPath>
</defs>
</svg>
