<svg width="" height="" viewBox="0 0 170 104" fill="none" xmlns="http://www.w3.org/2000/svg">
<g clip-path="url(#clip0_112_234)">
<path d="M86 25.3712V36.0925C85.1094 37.7812 83.5538 37.8999 81.9026 37.896C71.4679 37.8807 61.0332 37.896 50.5986 37.8845C49.9144 37.8845 49.1996 37.9917 48.4161 37.5169C47.9498 34.2201 48.5499 30.7778 48.0415 27.1785C44.59 27.0291 41.2876 26.9947 37.9088 27.1823C37.5342 30.8888 38.0044 34.2661 37.603 37.4404C37.1252 37.8769 36.7277 37.8654 36.357 37.8654C25.2878 37.873 14.2148 37.8654 3.14569 37.873C1.74676 37.873 0.695644 37.3178 0 36.0925V25.3712C1.31484 22.4534 3.59289 21.343 6.7424 21.4311C11.0653 21.5536 15.3959 21.4693 19.7227 21.4502C20.2387 21.4502 20.8426 21.6723 21.3395 21.0941C20.7814 20.604 20.254 20.1521 19.7456 19.6812C14.8684 15.1705 14.7308 7.68854 19.436 3.1511C24.1106 -1.35953 31.7512 -1.01492 35.9098 4.08157C39.495 8.4735 42.0139 13.4475 43.0115 19.0647C43.9326 13.5585 46.4362 8.71856 49.8494 4.36109C54.0233 -0.968969 61.79 -1.46292 66.5716 3.1511C71.338 7.74981 71.1239 15.2433 66.1206 19.8114C65.639 20.2517 64.974 20.558 64.6911 21.2549C65.4059 21.5919 66.048 21.454 66.6672 21.454C70.8678 21.4693 75.0685 21.5536 79.2653 21.4311C82.4148 21.3392 84.6928 22.4534 86.0077 25.3712H86ZM37.0488 21.2319C37.4654 20.6346 37.431 20.0871 37.324 19.6122C36.2576 14.868 34.3618 10.5182 30.9065 7.01846C29.5916 5.68594 27.8449 5.23794 25.9605 5.76252C23.8277 6.35986 22.3906 7.69237 21.8669 9.87494C21.3089 12.1954 21.9625 14.198 23.7857 15.7143C26.8129 18.2261 30.2491 19.999 34.0292 21.0749C35.0039 21.3506 35.99 21.6493 37.0488 21.2281V21.2319ZM48.9397 21.2396C49.7156 21.5383 50.4151 21.4693 51.0955 21.3047C55.1776 20.313 58.8699 18.4827 62.0958 15.81C64.9052 13.4819 65.0848 9.61456 62.65 7.22523C60.2459 4.86652 56.5765 5.11158 54.2412 7.88C51.4815 11.15 49.7997 14.9829 48.741 19.0992C48.569 19.7616 48.4887 20.4814 48.9397 21.2358V21.2396Z" fill="black"/>
<path d="M5.55367 43.0999H37.5762V80.7358C36.7468 81.0996 36.0359 80.9809 35.3441 80.9809C27.5773 80.9885 19.8106 80.9924 12.04 80.9809C7.32336 80.977 5.24407 78.9208 5.24407 74.2609C5.24025 64.6308 5.24025 54.9968 5.2479 45.3667C5.2479 44.6775 5.11794 43.9653 5.54985 43.0923L5.55367 43.0999Z" fill="black"/>
<path d="M48.397 80.8851V43.1344H80.4043C80.8973 43.8198 80.7483 44.4784 80.7483 45.0949C80.7597 54.9164 80.7636 64.7418 80.7483 74.5634C80.7445 78.76 78.5811 80.9694 74.4187 80.9809C66.3309 81.0038 58.2469 80.9885 50.159 80.9809C49.6545 80.9809 49.1538 80.9273 48.3893 80.8813L48.397 80.8851Z" fill="black"/>
</g>
<defs>
<clipPath id="clip0_112_234">
<rect width="86" height="81" fill="white"/>
</clipPath>
</defs>
</svg>
