<?xml version="1.0" encoding="utf-8"?>
<!-- Generator: Adobe Illustrator 25.2.0, SVG Export Plug-In . SVG Version: 6.00 Build 0)  -->
<svg version="1.1" id="Layer_1" xmlns="http://www.w3.org/2000/svg" xmlns:xlink="http://www.w3.org/1999/xlink" x="0px" y="0px"
	 viewBox="0 0 18 20" style="enable-background:new 0 0 18 20;" xml:space="preserve">
<style type="text/css">
	.st0{fill:#FF0101;}
</style>
<path class="st0" d="M9,14c1.7,0,3-1.3,3-3s-1.3-3-3-3s-3,1.3-3,3S7.3,14,9,14z"/>
<path class="st0" d="M17.8,9.2C17.6,8,17.1,6.9,16.5,6C15.8,5,15,4.2,14,3.5c-1-0.7-2.1-1.1-3.2-1.4C10.2,2.1,9.6,2,9,2V0L5,3l4,3V4
	c0.5,0,1,0,1.4,0.1c0.9,0.2,1.7,0.5,2.5,1.1c0.7,0.5,1.4,1.1,1.9,1.9C15.6,8.2,16,9.6,16,11c0,0.9-0.2,1.9-0.5,2.7
	c-0.2,0.4-0.4,0.8-0.6,1.2c-0.3,0.4-0.5,0.7-0.9,1c-1,1-2.2,1.6-3.5,1.9c-0.9,0.2-1.9,0.2-2.8,0c-0.9-0.2-1.7-0.5-2.5-1.1
	c-0.7-0.5-1.4-1.1-1.9-1.9C2.4,13.8,2,12.4,2,11H0c0,1.8,0.5,3.5,1.5,5C2.2,17,3,17.8,4,18.5c1.5,1,3.2,1.5,5,1.5
	c0.6,0,1.2-0.1,1.8-0.2c1.2-0.2,2.2-0.7,3.2-1.4c0.5-0.3,0.9-0.7,1.3-1.1c0.4-0.4,0.8-0.9,1.1-1.3c1-1.5,1.5-3.2,1.5-5
	C18,10.4,17.9,9.8,17.8,9.2z"/>
</svg>
