<svg width="88" height="104" viewBox="0 0 88 104" fill="none" xmlns="http://www.w3.org/2000/svg">
<path d="M53.611 0C53.8961 0.0999594 54.1825 0.198568 54.4676 0.299878C55.9458 0.828042 56.7065 1.94516 56.6187 3.4567C56.5362 4.88585 55.5553 6.00296 54.0542 6.30149C52.522 6.60542 50.9654 6.45278 49.4211 6.44333C48.3307 6.43657 47.897 6.87693 47.9335 7.94947C47.9753 9.19356 47.9254 10.439 47.9375 11.6844C47.9456 12.5138 47.5916 12.9353 46.7323 12.9285C45.119 12.9137 43.5057 12.9137 41.8925 12.9285C41.0439 12.9366 40.6562 12.5395 40.6724 11.6993C40.6845 11.0941 40.671 10.4876 40.667 9.88247C40.6413 6.03809 41.0561 6.4879 37.285 6.45683C36.2757 6.44873 35.2637 6.50546 34.272 6.24881C32.4979 5.78954 31.5332 4.07672 32.0615 2.33013C32.3452 1.39133 32.987 0.786167 33.8612 0.407942C34.2314 0.248548 34.6206 0.13508 35.0016 0C41.2047 0 47.4079 0 53.611 0Z" fill="white"/>
<path d="M44.3407 103.399C20.5537 103.524 1.34433 84.2753 0.833597 61.059C0.287732 36.2489 19.9767 17.4862 42.3748 16.5717C67.5521 15.5451 87.4735 35.5762 87.7735 59.3435C88.0829 83.8525 68.1926 103.481 44.3407 103.399ZM6.26523 59.9257C6.07742 80.4917 22.6655 98.0291 44.2704 98.0372C65.8821 98.0453 82.2446 80.643 82.3553 60.158C82.4661 39.6975 66.2618 21.9587 44.3461 21.8979C22.7385 21.8372 6.10174 39.3598 6.26388 59.9257H6.26523Z" fill="white"/>
<path d="M0 27.5914C0.325628 22.9122 2.40235 19.084 6.8679 16.8957C11.3889 14.6804 15.7585 15.191 19.8079 18.1979C20.7821 18.9206 20.7564 19.1016 19.7065 19.7446C13.3913 23.6133 8.26094 28.6801 4.32504 34.9533C3.51164 36.25 3.32789 36.2581 2.44153 35.0559C0.849874 32.896 0.124306 30.4456 0 27.5914Z" fill="white"/>
<path d="M9.71883 59.8662C9.46616 41.7668 24.3356 25.5275 43.88 25.3343C63.7487 25.1384 78.9059 41.2346 78.9113 59.9634C78.9181 78.7328 63.7676 94.5858 44.2948 94.5953C24.5072 94.6048 9.40266 78.2344 9.71748 59.8662H9.71883ZM44.3218 45.2883H44.3164C44.3164 41.0414 44.311 36.7958 44.3205 32.5489C44.3218 31.679 44.1016 31.1063 43.0572 31.1914C40.086 31.4318 37.1729 31.9424 34.3679 32.9758C18.3324 38.8788 10.9241 57.3361 18.4702 72.6907C23.3749 82.6704 34.1098 89.4582 46.3391 88.6261C60.5546 87.6589 72.2474 76.0218 73.0162 61.8478C73.1135 60.0607 72.9257 59.8527 71.1503 59.8527C62.9583 59.85 54.7662 59.8527 46.5756 59.8486C44.6502 59.8486 44.3299 59.5366 44.3245 57.6239C44.3137 53.512 44.3218 49.4002 44.3218 45.2883Z" fill="white"/>
</svg>
