<?xml version="1.0" encoding="utf-8"?>
<!-- Generator: Adobe Illustrator 25.2.0, SVG Export Plug-In . SVG Version: 6.00 Build 0)  -->
<svg version="1.1" id="Layer_1" xmlns="http://www.w3.org/2000/svg" xmlns:xlink="http://www.w3.org/1999/xlink" x="0px" y="0px"
	 viewBox="0 0 170 104" style="enable-background:new 0 0 170 104;" xml:space="preserve">
<style type="text/css">
	.st0{clip-path:url(#SVGID_2_);}
	.st1{fill:#FFFFFF;}
</style>
<g>
	<g>
		<defs>
			<rect id="SVGID_1_" x="1.7" y="27.2" width="167" height="49"/>
		</defs>
		<clipPath id="SVGID_2_">
			<use xlink:href="#SVGID_1_"  style="overflow:visible;"/>
		</clipPath>
		<g class="st0">
			<path class="st1" d="M168.7,67.1c-2.4,2-5.4,2-8.3,2.6c-2.2,0.5-4.5,0.7-6.8,1c-1.8,0.2-1.9,0-1.4-1.7c3.4-9.9-3.3-20-13.5-20.3
				c-10.8-0.4-18.4,10.2-14.5,20.4c0.8,2,0.8,2-1.4,2c-7.3,0.1-14.6,0.1-21.8,0.1c-18.1,0.2-36.1,0.1-54.1,0.1c-2.3,0-2.3,0-1.5-2.2
				c2.5-6.2,0.6-13-4.8-17.4c-4.8-3.9-12.1-4.2-17.4-0.7c-5.6,3.7-8.1,10.4-6.2,16.8c0.1,0.5,0.7,1.1,0.2,1.5c-0.4,0.3-1,0-1.5-0.2
				c-0.8-0.3-1.6-0.5-2.3-0.8c-2.2-1.2-4.4-2.1-6.9-2.4c-1.6-0.2-2.7-1.2-3.4-2.5c-0.5-0.9-1-1.9-1.4-2.9c0-2.8,0-5.6,0-8.5
				c0.2-0.4,0.7-0.7,0.7-1.1c-0.3-2.9,1.8-5.2,1.8-8c0-1.5,0.7-2.2,2.1-2.6c2.3-0.6,4.7-1.1,7-1.3c4.4-0.4,8.6-1.6,12.8-3
				c7.3-2.3,14.9-3.7,22.3-5.6c1.3-0.3,2.7-0.5,3.1-2.2c0.1-0.5,0.6-0.7,1.2-0.8c1.6-0.1,3.3-0.3,4.7,0.7c0.9,0.6,1.8,0.6,2.8,0.4
				c11-2.2,22-2.2,32.9,1.2c7.3,2.2,14.5,5.1,21.2,8.7c3.9,2.1,8,2.8,12.3,3.1c11,0.8,21.8,2.9,32.5,5.9c2.2,0.6,4.3,1.6,6.2,2.8
				c1,0.6,1.5,1.5,1.5,2.7c0,1.1,0,2.2-0.2,3.2c-0.1,0.8-0.1,1.5,0.3,2.2c0.8,1.4,1.2,2.9,1.7,4.4v4.4H168.7z M114.9,42.4
				c-1.2-1-2.7-1.4-4.1-2c-9.8-4.6-19.6-9.5-30.8-9.9c-6.4-0.2-12.7-0.3-19,0.9c-0.8,0.2-1.1,0.4-0.7,1.3c1.3,2.5,2.6,5,3.8,7.6
				c0.6,1.3,1.4,1.7,2.8,1.7c8,0.1,16.1,0.2,24.1,0.3c2.2,0,4.3,0.1,6.5,0.1C103.3,42.4,109.1,42.4,114.9,42.4L114.9,42.4z M54.6,42
				c0.9,0,1.8,0,2.8,0c0.9,0,1.3-0.3,1-1.3c-0.8-2.2-1.6-4.5-2.4-6.7c-0.2-0.6-0.6-1.1-1.3-0.9c-3.1,0.7-6.3,1.2-9.3,2.3
				c-1.5,0.6-1.7,1.1-0.8,2.4c0.6,0.9,1.4,1.6,2.3,2.2C49.2,41.7,51.8,42.1,54.6,42L54.6,42z"/>
			<path class="st1" d="M18.2,63.1C18.2,56,24,50.1,31,50c7.4,0,13.4,5.7,13.4,12.9s-5.9,13.2-13.2,13.3
				C24.1,76.3,18.2,70.3,18.2,63.1z M22.9,62.9c0,4.8,3.6,8.6,8.3,8.6c4.8,0,8.6-3.8,8.6-8.5c0-4.6-3.8-8.3-8.6-8.3
				C26.5,54.7,22.9,58.3,22.9,62.9L22.9,62.9z"/>
			<path class="st1" d="M137.8,50.1c7.3,0,13.3,5.9,13.3,13c-0.1,7.2-6.1,13.2-13.2,13.1c-7.2,0-13-5.9-13-13.1
				C124.8,55.8,130.5,50.1,137.8,50.1L137.8,50.1z M129.5,63.1c-0.1,4.6,3.6,8.4,8.2,8.5c4.8,0,8.6-3.7,8.6-8.5
				c0-4.5-3.8-8.3-8.3-8.3C133.1,54.7,129.6,58.1,129.5,63.1L129.5,63.1z"/>
		</g>
	</g>
</g>
</svg>
