<?xml version="1.0" encoding="utf-8"?>
<!-- Generator: Adobe Illustrator 25.2.0, SVG Export Plug-In . SVG Version: 6.00 Build 0)  -->
<svg version="1.1" id="Layer_1" xmlns="http://www.w3.org/2000/svg" xmlns:xlink="http://www.w3.org/1999/xlink" x="0px" y="0px"
	 viewBox="0 0 170 104" style="enable-background:new 0 0 170 104;" xml:space="preserve">
<style type="text/css">
	.st0{fill:#FF0000;}
</style>
<g>
	<path class="st0" d="M93.3,7c0.2,0.1,0.5,0.2,0.7,0.3c1.3,0.5,1.9,1.4,1.9,2.7c-0.1,1.2-0.9,2.2-2.2,2.5c-1.3,0.3-2.7,0.1-4,0.1
		c-0.9,0-1.3,0.4-1.3,1.3c0,1.1,0,2.2,0,3.2c0,0.7-0.3,1.1-1,1.1c-1.4,0-2.8,0-4.2,0c-0.7,0-1.1-0.3-1.1-1.1c0-0.5,0-1,0-1.6
		c0-3.3,0.3-2.9-2.9-3c-0.9,0-1.7,0-2.6-0.2C75,12,74.2,10.5,74.7,9c0.2-0.8,0.8-1.3,1.6-1.7c0.3-0.1,0.7-0.2,1-0.4
		C82.6,7,87.9,7,93.3,7z"/>
	<path class="st0" d="M85.3,96.4c-20.6,0.1-37.2-16.5-37.7-36.6c-0.5-21.5,16.6-37.7,36-38.5c21.8-0.9,39,16.4,39.3,37
		C123.1,79.5,105.9,96.5,85.3,96.4z M52.3,58.8c-0.2,17.8,14.2,33,32.9,33s32.9-15.1,33-32.8s-13.9-33.1-32.9-33.1
		C66.6,25.9,52.2,41,52.3,58.8L52.3,58.8z"/>
	<path class="st0" d="M46.9,30.8c0.3-4,2.1-7.4,5.9-9.3c3.9-1.9,7.7-1.5,11.2,1.1c0.8,0.6,0.8,0.8-0.1,1.3
		c-5.5,3.3-9.9,7.7-13.3,13.2c-0.7,1.1-0.9,1.1-1.6,0.1C47.7,35.4,47,33.3,46.9,30.8z"/>
	<path class="st0" d="M55.3,58.8C55.1,43.1,68,29,84.9,28.9c17.2-0.2,30.3,13.8,30.3,30s-13.1,30-30,30
		C68.1,88.8,55.1,74.7,55.3,58.8L55.3,58.8z M85.3,46.2L85.3,46.2c0-3.7,0-7.3,0-11c0-0.8-0.2-1.2-1.1-1.2c-2.6,0.2-5.1,0.6-7.5,1.5
		c-13.9,5.1-20.3,21.1-13.8,34.4c4.2,8.6,13.5,14.5,24.1,13.8c12.3-0.8,22.4-10.9,23.1-23.2c0.1-1.5-0.1-1.7-1.6-1.7
		c-7.1,0-14.2,0-21.3,0c-1.7,0-1.9-0.3-1.9-1.9C85.3,53.3,85.3,49.7,85.3,46.2z"/>
</g>
</svg>
