<svg width="" height="" viewBox="0 0 170 104" fill="none" xmlns="http://www.w3.org/2000/svg">
<path d="M53.6111 0C53.8962 0.0999594 54.1826 0.198568 54.4677 0.299878C55.9459 0.828042 56.7066 1.94516 56.6188 3.4567C56.5363 4.88585 55.5554 6.00296 54.0543 6.30149C52.5221 6.60542 50.9655 6.45278 49.4212 6.44333C48.3308 6.43657 47.8971 6.87693 47.9335 7.94947C47.9754 9.19356 47.9254 10.439 47.9376 11.6844C47.9457 12.5138 47.5917 12.9353 46.7324 12.9285C45.1191 12.9137 43.5058 12.9137 41.8925 12.9285C41.044 12.9366 40.6562 12.5395 40.6725 11.6993C40.6846 11.0941 40.6711 10.4876 40.6671 9.88247C40.6414 6.03809 41.0562 6.4879 37.2851 6.45683C36.2758 6.44873 35.2638 6.50546 34.2721 6.24881C32.498 5.78954 31.5333 4.07672 32.0616 2.33013C32.3453 1.39133 32.9871 0.786167 33.8613 0.407942C34.2315 0.248548 34.6206 0.13508 35.0017 0C41.2048 0 47.408 0 53.6111 0Z" fill="black"/>
<path d="M44.3406 103.399C20.5536 103.524 1.34427 84.2753 0.833536 61.059C0.287671 36.2489 19.9767 17.4862 42.3747 16.5717C67.5521 15.5451 87.4734 35.5762 87.7734 59.3435C88.0828 83.8525 68.1925 103.481 44.3406 103.399ZM6.26517 59.9257C6.07736 80.4917 22.6654 98.0291 44.2704 98.0372C65.882 98.0453 82.2445 80.643 82.3553 60.158C82.4661 39.6975 66.2617 21.9587 44.346 21.8979C22.7384 21.8372 6.10168 39.3598 6.26382 59.9257H6.26517Z" fill="black"/>
<path d="M0 27.5915C0.325628 22.9123 2.40235 19.0842 6.8679 16.8959C11.3889 14.6806 15.7585 15.1912 19.8079 18.198C20.7821 18.9207 20.7564 19.1017 19.7065 19.7447C13.3913 23.6134 8.26094 28.6803 4.32504 34.9534C3.51164 36.2502 3.32789 36.2583 2.44153 35.056C0.849874 32.8961 0.124306 30.4458 0 27.5915Z" fill="black"/>
<path d="M9.71892 59.8662C9.46626 41.7668 24.3357 25.5275 43.8801 25.3343C63.7488 25.1384 78.906 41.2346 78.9114 59.9634C78.9182 78.7328 63.7677 94.5858 44.2949 94.5953C24.5073 94.6048 9.40275 78.2344 9.71757 59.8662H9.71892ZM44.3219 45.2883H44.3165C44.3165 41.0414 44.3111 36.7958 44.3206 32.5489C44.3219 31.679 44.1017 31.1063 43.0572 31.1914C40.0861 31.4318 37.173 31.9424 34.368 32.9758C18.3325 38.8788 10.9241 57.3361 18.4703 72.6907C23.375 82.6704 34.1099 89.4582 46.3392 88.6261C60.5547 87.6589 72.2475 76.0218 73.0163 61.8478C73.1136 60.0607 72.9258 59.8527 71.1504 59.8527C62.9584 59.85 54.7663 59.8527 46.5756 59.8486C44.6502 59.8486 44.33 59.5366 44.3246 57.6239C44.3138 53.512 44.3219 49.4002 44.3219 45.2883Z" fill="black"/>
</svg>
