<svg width="" height="" viewBox="0 0 170 104" fill="none" xmlns="http://www.w3.org/2000/svg">
<path d="M44.0853 3.53919L43.4127 4.20988L42.7401 3.53729C40.4169 1.25641 37.287 -0.014829 34.0314 0.000130549C30.7757 0.0150901 27.6576 1.31504 25.3555 3.61717C23.0533 5.9193 21.7534 9.03737 21.7384 12.293C21.7235 15.5487 22.9947 18.6786 25.2756 21.0018L25.9482 21.6744L43.4127 43.4766L60.8772 21.6744L61.5498 21.0018C63.8125 18.675 65.0684 15.5509 65.0456 12.3054C65.0229 9.05982 63.7234 5.95367 61.4283 3.65879C59.1332 1.36391 56.0269 0.0647709 52.7813 0.0423889C49.5358 0.0200068 46.4118 1.27618 44.0853 3.53919Z" fill="black"/>
<path d="M3.53919 43.0219L4.20988 43.6945L3.53729 44.3671C1.25641 46.6903 -0.0148297 49.8202 0.000130012 53.0759C0.0150897 56.3315 1.31504 59.4496 3.61717 61.7517C5.9193 64.0539 9.03737 65.3538 12.293 65.3688C15.5487 65.3837 18.6786 64.1125 21.0018 61.8316L21.6744 61.159L43.4766 43.0219L21.6744 26.23L21.0018 25.5574C18.675 23.2947 15.5509 22.0388 12.3054 22.0616C9.05982 22.0843 5.95367 23.3838 3.65879 25.6789C1.3639 27.974 0.0647694 31.0803 0.0423875 34.3259C0.0200056 37.5714 1.27618 40.6954 3.53919 43.0219Z" fill="black"/>
<path d="M42.699 83.8907L43.3715 83.2201L44.0441 83.8926C46.3673 86.1735 49.4972 87.4448 52.7529 87.4298C56.0086 87.4148 59.1266 86.1149 61.4288 83.8128C63.7309 81.5106 65.0308 78.3926 65.0458 75.1369C65.0608 71.8812 63.7895 68.7513 61.5086 66.4281L60.8361 65.7556L43.3715 43.3152L25.907 65.7555L25.2345 66.4281C22.9717 68.7549 21.7159 71.879 21.7386 75.1246C21.7613 78.3701 23.0608 81.4763 25.3559 83.7711C27.6511 86.066 30.7574 87.3652 34.0029 87.3875C37.2485 87.4099 40.3724 86.1538 42.699 83.8907Z" fill="black"/>
<path d="M83.1374 43.9778L82.4668 43.3052L83.1393 42.6327C85.4202 40.3095 86.6915 37.1796 86.6765 33.9239C86.6615 30.6682 85.3616 27.5502 83.0595 25.248C80.7573 22.9459 77.6393 21.6459 74.3836 21.631C71.1279 21.616 67.998 22.8873 65.6748 25.1681L65.0023 25.8407L43.369 43.3052L65.0023 60.7697L65.6748 61.4423C68.0017 63.7051 71.1257 64.9609 74.3713 64.9382C77.6168 64.9154 80.723 63.616 83.0178 61.3208C85.3127 59.0257 86.6119 55.9194 86.6342 52.6739C86.6566 49.4283 85.4005 46.3044 83.1374 43.9778Z" fill="black"/>
</svg>
