<?xml version="1.0" encoding="utf-8"?>
<!-- Generator: Adobe Illustrator 25.2.0, SVG Export Plug-In . SVG Version: 6.00 Build 0)  -->
<svg version="1.1" id="Layer_1" xmlns="http://www.w3.org/2000/svg" xmlns:xlink="http://www.w3.org/1999/xlink" x="0px" y="0px"
	 viewBox="0 0 230.1 118.2" style="enable-background:new 0 0 230.1 118.2;" xml:space="preserve">
<g>
	<path d="M168.3,89.9l-23.8-3.2l23.4-5.6c1.1-0.3,1.8-1.4,1.5-2.5l-1.7-7.5c-0.1-0.5-0.5-1-0.9-1.3c-0.5-0.3-1-0.4-1.6-0.3
		l-34.4,8.3c-1.1,0.3-1.8,1.4-1.5,2.5l1.6,7.1l-2.9,21.8c-0.2,1.1,0.6,2.2,1.8,2.3l35,4.6c1.1,0.1,2.2-0.7,2.3-1.8l2.9-22.2
		C170.3,91.1,169.5,90.1,168.3,89.9z M164.2,74.1l0.8,3.4l-2.2,0.5l-0.8-3.4L164.2,74.1z M157.9,75.6l0.8,3.4l-3.3,0.8l-0.8-3.4
		L157.9,75.6z M150.7,77.4l0.8,3.4l-3.3,0.8l-0.8-3.4L150.7,77.4z M134.6,84.8l-0.8-3.4l2.2-0.5l0.8,3.4L134.6,84.8z M140.9,83.3
		l-0.8-3.4l3.3-0.8l0.8,3.4L140.9,83.3z M155.5,102.5l-9.7,4.7c-0.7,0.3-1.5-0.2-1.4-1l1.6-11.9c0.1-0.8,1-1.1,1.6-0.6l8.2,7.1
		C156.3,101.3,156.2,102.1,155.5,102.5z"/>
	<path d="M60,32.4l6.1-25.9l4.8-0.8l13.9,22.7l-5.7,0.9l-2.3-3.8l-10.1,1.6l-1,4.3L60,32.4L60,32.4z M67.5,22.6l7.1-1.1l-4.9-8.3
		L67.5,22.6z"/>
	<path d="M100.6,12.2l-3,3.5c-1.3-1.1-2.6-1.6-4.2-1.5c-2.6,0.2-4.4,2.3-4.2,5s2.4,4.5,4.9,4.3c1.6-0.1,2.9-0.8,3.9-2.1l3.6,3
		c-1.8,2.4-4.2,3.7-7.1,3.9c-2.7,0.2-5.1-0.5-7.2-2.1c-2-1.6-3.1-3.8-3.3-6.5c-0.2-2.7,0.6-5,2.3-6.9c1.8-1.9,4-3,6.7-3.3
		C95.8,9.3,98.4,10.2,100.6,12.2L100.6,12.2z"/>
	<path d="M104.9,27.2l-0.2-13l-2.4,0l-0.1-4.8l2.4,0l-0.1-6.8l5.1-0.1l0.1,6.8l3.9-0.1l0.1,4.8l-3.9,0.1l0.2,13L104.9,27.2z"/>
	<path d="M116,27.1l0.4-17.8l5.3,0.1l-0.4,17.8L116,27.1z M119.1,1.9c1.7,0,3,1.4,2.9,3.1c0,1.7-1.4,2.9-3.1,2.9c-1.7,0-3-1.4-2.9-3
		C116.1,3.1,117.5,1.9,119.1,1.9z"/>
	<path d="M141.7,13c1.8,1.9,2.6,4.2,2.4,6.9c-0.2,2.6-1.3,4.8-3.4,6.5c-2.1,1.6-4.5,2.4-7.2,2.1c-2.7-0.2-5-1.3-6.8-3.3
		c-1.8-2-2.5-4.3-2.3-6.9s1.3-4.8,3.4-6.4c2.1-1.7,4.5-2.4,7.2-2.2C137.7,9.9,139.9,11,141.7,13z M130.7,22.1c0.8,1,1.9,1.5,3.2,1.6
		c1.3,0.1,2.4-0.3,3.4-1.1c1-0.8,1.5-1.9,1.6-3.2c0.1-1.3-0.3-2.4-1.1-3.4c-0.8-1-1.9-1.5-3.2-1.6c-1.3-0.1-2.4,0.3-3.4,1.1
		c-1,0.8-1.5,1.9-1.6,3.2C129.5,20,129.9,21.2,130.7,22.1L130.7,22.1z"/>
	<path d="M145.6,29l2.8-17.6l5.2,0.8l-0.4,2.2c1-1.4,3.1-2.1,5.5-1.8c4.3,0.7,6.3,3.8,5.5,8.4l-1.7,10.7l-5.2-0.8l1.6-10
		c0.3-2.1-0.6-3.5-2.7-3.8c-2-0.3-3.7,0.9-4,2.9l-1.6,9.9L145.6,29L145.6,29z"/>
</g>
</svg>
