<?xml version="1.0" encoding="utf-8"?>
<!-- Generator: Adobe Illustrator 25.2.0, SVG Export Plug-In . SVG Version: 6.00 Build 0)  -->
<svg version="1.1" id="Layer_1" xmlns="http://www.w3.org/2000/svg" xmlns:xlink="http://www.w3.org/1999/xlink" x="0px" y="0px"
	 viewBox="0 0 230.1 118.2" style="enable-background:new 0 0 230.1 118.2;" xml:space="preserve">
<g>
	<path d="M161.4,115.3c1,0.2,2-0.5,2.3-1.6l0.7-3.5l6-29.3l0.7-3.5c0.2-1.1-0.4-2.1-1.5-2.3s-2,0.5-2.3,1.6l-0.4,2.1l-24.5,2.9
		l-9.6-2c-1-0.2-2,0.5-2.3,1.6l-2.7,13c-0.2,1.1,0.4,2.1,1.5,2.3l3.9,0.8l-0.9,4.5c-0.8,3.9,1.6,7.8,5.4,8.5l5.9,1.2
		c3.8,0.8,7.5-1.8,8.3-5.6l8.5,4.9L160,113C159.7,114.1,160.4,115.1,161.4,115.3z M132,93.1l1.9-9.1l6.2,1.3l-1.9,9.1L132,93.1z
		 M148.1,105.1c-0.4,1.8-2.1,3-3.8,2.6l-5.9-1.2c-1.7-0.4-2.8-2.1-2.4-3.9l0.9-4.5l2,0.4l9.4,5.4L148.1,105.1z"/>
	<g>
		<path d="M32.3,37.2l3.1-26.4l4.7-1.3l16.4,20.9L51,32l-2.7-3.5l-9.9,2.8l-0.5,4.4L32.3,37.2L32.3,37.2z M38.7,26.6l6.9-1.9
			l-5.8-7.6L38.7,26.6L38.7,26.6z"/>
		<path d="M67.3,12.8l-1.7-9l5.2-1L75.4,27l-5.2,1l-0.4-2.3c-0.2,1.6-2.1,3.1-4.7,3.6c-2.5,0.5-4.7,0-6.7-1.4c-2-1.5-3.2-3.5-3.7-6
			c-0.5-2.5,0-4.8,1.3-6.9c1.3-2.1,3.3-3.3,5.7-3.8C64.3,10.7,66.5,11.3,67.3,12.8L67.3,12.8z M68.1,22.6c0.7-1,1-2.2,0.8-3.4
			C68.6,18,68,17,66.9,16.3c-1-0.7-2.2-0.9-3.5-0.7c-1.2,0.2-2.2,0.8-2.9,1.9c-0.7,1-0.9,2.1-0.7,3.3c0.2,1.2,0.8,2.2,1.9,2.9
			c1,0.7,2.1,0.9,3.4,0.7C66.4,24.2,67.4,23.6,68.1,22.6L68.1,22.6z"/>
		<path d="M84.3,26L74.7,9.2L80,8.6l5.9,10.7l3.3-11.7L94.5,7l-5.6,18.5L84.3,26L84.3,26z"/>
		<path d="M112.2,8.7c2,1.7,3,3.9,3.1,6.6c0.1,2.6-0.8,4.9-2.7,6.8c-1.9,1.9-4.2,2.9-6.9,2.9c-2.8,0.1-5.1-0.8-7.1-2.5
			c-2-1.8-3-4-3.1-6.6c-0.1-2.6,0.8-4.9,2.6-6.7c1.9-1.9,4.2-2.9,6.9-3C107.8,6.1,110.2,6.9,112.2,8.7z M102.2,19
			c0.9,0.9,2,1.3,3.3,1.2c1.3,0,2.4-0.5,3.2-1.4c0.9-0.9,1.3-2.1,1.2-3.4c0-1.3-0.5-2.4-1.4-3.2c-0.9-0.9-2-1.3-3.3-1.3
			c-1.3,0-2.4,0.5-3.2,1.5c-0.9,0.9-1.3,2-1.2,3.3C100.8,17,101.3,18.1,102.2,19L102.2,19z"/>
		<path d="M135,10l-3.5,3.1c-1.1-1.3-2.4-1.9-4-2c-2.6-0.1-4.6,1.8-4.8,4.4c-0.1,2.7,1.8,4.7,4.3,4.8c1.6,0.1,3-0.5,4.2-1.6l3.2,3.4
			c-2.1,2.1-4.6,3.1-7.6,3c-2.7-0.1-5-1.1-6.9-3c-1.8-1.9-2.6-4.2-2.5-6.8c0.1-2.7,1.2-4.9,3.1-6.6c2-1.7,4.4-2.5,7.1-2.4
			C130.6,6.5,133,7.7,135,10L135,10z"/>
		<path d="M150.8,11.4l0.3-2.3l5.2,0.6l-2.2,17.6l-5.2-0.6l0.3-2.3c-0.7,1.5-2.9,2.3-5.6,2c-2.5-0.3-4.5-1.4-5.9-3.4
			c-1.4-2-2-4.3-1.7-6.8c0.3-2.6,1.4-4.6,3.3-6.2c1.9-1.6,4.1-2.2,6.6-1.9C148.6,8.5,150.5,9.8,150.8,11.4z M148.6,20.9
			c1-0.8,1.6-1.8,1.8-3c0.2-1.2-0.2-2.3-1-3.3c-0.8-1-1.8-1.5-3.1-1.7c-1.3-0.2-2.4,0.1-3.3,0.9c-1,0.7-1.5,1.7-1.7,3
			c-0.1,1.2,0.1,2.3,0.9,3.3c0.8,0.9,1.8,1.5,3,1.7C146.5,22,147.6,21.7,148.6,20.9z"/>
		<path d="M176.3,16.5l-3.9,2.5c-0.9-1.4-2.1-2.3-3.6-2.6c-2.5-0.5-4.9,1-5.4,3.7c-0.5,2.6,1,4.9,3.5,5.4c1.6,0.3,3,0,4.4-1l2.6,3.9
			c-2.4,1.8-5.1,2.3-7.9,1.8c-2.7-0.6-4.8-1.9-6.3-4c-1.5-2.1-2-4.5-1.4-7.1c0.5-2.6,1.9-4.6,4.1-6c2.2-1.4,4.7-1.8,7.4-1.3
			C172.5,12.4,174.7,13.9,176.3,16.5L176.3,16.5z"/>
		<path d="M180.3,33.5l-2.2-19.5l5.3,1.5l1.3,12.7l7.9-10.1l5.3,1.5l-16.8,20.8l-5.2-1.5L180.3,33.5L180.3,33.5z"/>
	</g>
</g>
</svg>
