<svg width="43" height="47" viewBox="0 0 43 47" fill="none" xmlns="http://www.w3.org/2000/svg">
<path fill-rule="evenodd" clip-rule="evenodd" d="M2.68511 22.3761L0.134881 15.559C-0.269442 14.4771 0.265859 13.2677 1.33108 12.8573L34.3337 0.136771C34.8428 -0.0595621 35.411 -0.045251 35.9121 0.184493C36.4104 0.412199 36.8 0.832146 36.9947 1.35094L39.68 8.52894C40.0843 9.61085 39.5483 10.8202 38.4831 11.2307L15.9947 19.8989L40.0494 19.8989C41.1885 19.8989 42.1127 20.8363 42.1127 21.9932L42.1127 44.4051C42.1127 45.562 41.1885 46.4994 40.0494 46.4994L4.7484 46.4994C3.60862 46.4994 2.68511 45.562 2.68511 44.4051L2.68511 22.3761ZM35.09 8.05854L33.8689 4.79643L31.7281 5.62158L32.9486 8.88388L35.09 8.05854ZM29.0904 10.3709L27.87 7.10854L24.727 8.31998L25.9474 11.5823L29.0904 10.3709ZM22.0893 13.0693L20.8689 9.80703L17.7259 11.0185L18.9462 14.2807L22.0893 13.0693ZM15.088 15.7677L13.8677 12.5055L10.7245 13.717L11.9447 16.9792L15.088 15.7677ZM8.08666 18.4662L6.86628 15.2041L4.72491 16.0294L5.94529 19.2915L8.08666 18.4662ZM28.9996 34.0264C29.5963 33.6309 29.5963 32.7549 28.9996 32.3594L19.9653 26.3707C19.3006 25.9301 18.4128 26.4067 18.4128 27.2042L18.4128 39.1816C18.4128 39.9791 19.3006 40.4557 19.9653 40.0151L28.9996 34.0264Z" fill="#EEFF00"/>
</svg>
