<?xml version="1.0" encoding="utf-8"?>
<!-- Generator: Adobe Illustrator 25.2.0, SVG Export Plug-In . SVG Version: 6.00 Build 0)  -->
<svg version="1.1" id="Layer_1" xmlns="http://www.w3.org/2000/svg" xmlns:xlink="http://www.w3.org/1999/xlink" x="0px" y="0px"
	 viewBox="0 0 230.1 118.2" style="enable-background:new 0 0 230.1 118.2;" xml:space="preserve">
<g>
	<path d="M152.1,83.2c-16.4,0-25,12.1-25,14c0,1.9,8.6,14,25,14c16.4,0,25-12.1,25-14C177.1,95.3,168.5,83.2,152.1,83.2z
		 M152.1,107.9c-6.1,0-11.1-4.8-11.1-10.8c0-5.9,5-10.8,11.1-10.8c6.1,0,11.1,4.8,11.1,10.8C163.2,103.1,158.2,107.9,152.1,107.9z
		 M152.1,97.2c-1-1.1,1.7-5.4,0-5.4c-3.1,0-5.6,2.4-5.6,5.4c0,3,2.5,5.4,5.6,5.4c3.1,0,5.6-2.4,5.6-5.4
		C157.6,95.8,152.9,98.1,152.1,97.2z"/>
	<g>
		<path d="M27.2,37.5l3.3-26.4l4.7-1.3l16.3,21l-5.6,1.5l-2.7-3.5l-9.9,2.7L32.8,36L27.2,37.5L27.2,37.5z M33.6,27l6.9-1.9l-5.8-7.7
			L33.6,27z"/>
		<path d="M54.6,30.4L46,13.9l4.8-0.9l4.8,9.2L56.8,12l4-0.7l4.8,9.2L67,10.2l4.8-0.9l-2.5,18.5L65,28.6l-4.9-9.5l-1.3,10.6
			L54.6,30.4L54.6,30.4z"/>
		<path d="M87.1,10.4l-0.2-2.3l5.2-0.4l1.5,17.7l-5.2,0.4l-0.2-2.3c-0.4,1.6-2.4,2.9-5.1,3.1c-2.5,0.2-4.7-0.5-6.5-2.1
			c-1.8-1.6-2.8-3.8-3.1-6.3c-0.2-2.6,0.4-4.8,1.9-6.7c1.5-1.9,3.6-3,6.1-3.2C84.3,8,86.4,8.9,87.1,10.4L87.1,10.4z M86.9,20.2
			c0.8-1,1.2-2.1,1.1-3.3c-0.1-1.2-0.7-2.2-1.6-3c-1-0.8-2.1-1.1-3.4-1c-1.3,0.1-2.3,0.6-3.1,1.6c-0.8,0.9-1.1,2-1,3.2
			c0.1,1.2,0.6,2.3,1.6,3.1c1,0.8,2,1.1,3.3,1C85,21.7,86.1,21.1,86.9,20.2L86.9,20.2z"/>
		<path d="M96.8,25.3L96.5,7.6l5.3-0.1l0,2.4c0.8-1.8,2.7-2.9,5.1-2.9c0.4,0,0.8,0,1.4,0.1l0.1,4.9c-0.5-0.1-1.1-0.2-1.8-0.1
			c-3,0-4.7,1.8-4.7,4.7l0.1,8.7L96.8,25.3L96.8,25.3z"/>
		<path d="M109.6,16.2c0.1-2.8,1.2-5,3-6.6c1.9-1.6,4.3-2.4,7-2.2c2.7,0.1,4.9,1.1,6.5,2.9c1.6,1.8,2.4,4,2.2,6.5
			c0,0.6-0.1,1.2-0.2,1.7l-13.4-0.7c0,2.1,1.8,3.6,4.5,3.7c1.7,0.1,3.1-0.4,4.4-1.5l2.9,3.1c-2.2,2-4.8,3-7.8,2.9
			c-2.9-0.1-5.2-1.1-6.9-2.9c-1.7-1.8-2.5-4-2.4-6.8L109.6,16.2L109.6,16.2z M123.2,14.8c0.1-1.7-1.6-3-3.7-3.2
			c-2.3-0.1-4.2,1.1-4.4,2.7L123.2,14.8L123.2,14.8z"/>
		<path d="M130,26.2l2.3-17.6l5.2,0.7l-0.3,2.2c0.9-1.4,3.1-2.2,5.5-1.9c4.3,0.6,6.4,3.6,5.8,8.2l-1.4,10.7l-5.2-0.7l1.3-10.1
			c0.3-2.1-0.7-3.5-2.8-3.7c-2-0.3-3.7,1-3.9,3.1l-1.3,9.9L130,26.2z"/>
		<path d="M151.1,20c0.6-2.7,2-4.7,4.1-6c2.1-1.3,4.6-1.6,7.3-1.1c2.7,0.6,4.6,1.9,5.9,3.9c1.3,2,1.7,4.3,1.1,6.8
			c-0.1,0.6-0.3,1.1-0.4,1.6l-13.2-2.8c-0.3,2.1,1.2,3.8,3.9,4.4c1.6,0.4,3.2,0.1,4.6-0.8l2.4,3.5c-2.5,1.7-5.2,2.2-8.2,1.6
			c-2.9-0.6-5-1.9-6.4-3.9c-1.4-2-1.8-4.4-1.2-7.1L151.1,20L151.1,20z M164.7,20.8c0.4-1.6-1.1-3.3-3.1-3.7c-2.2-0.5-4.3,0.4-4.8,2
			L164.7,20.8L164.7,20.8z"/>
		<path d="M172.8,28c0.6,1.4,2.2,2.6,4.2,3.2c1.7,0.5,2.7,0.3,3-0.7c0.1-0.3,0-0.7-0.3-1c-0.3-0.3-0.9-0.7-1.9-1.3
			c-1-0.5-1.7-1-2.1-1.3c-2.4-1.7-3.2-3.6-2.6-5.9c0.5-1.7,1.5-2.9,3.1-3.5c1.6-0.6,3.3-0.6,5.1-0.1c2.4,0.7,4.1,2,5.3,3.9l-3.4,2.6
			c-0.7-1.1-1.8-1.9-3.2-2.3c-1.1-0.3-1.8,0-2,0.6c-0.1,0.4,0,0.7,0.4,1.1c0.6,0.5,1.9,1.1,3.6,2.3c2.6,1.7,3.5,3.8,2.8,6.1
			c-1,3.5-4.1,5.1-9.2,3.6c-3.3-0.9-5.5-2.7-6.6-5.2L172.8,28L172.8,28z"/>
		<path d="M188.9,32.7c0.5,1.4,2,2.8,3.9,3.5c1.7,0.6,2.7,0.4,3-0.5c0.1-0.3,0-0.7-0.3-1c-0.3-0.3-0.9-0.8-1.8-1.4
			c-0.9-0.6-1.6-1.1-2-1.4c-2.2-1.8-3-3.8-2.2-6c0.6-1.7,1.7-2.8,3.3-3.3c1.6-0.5,3.3-0.4,5.1,0.2c2.4,0.8,4,2.2,5,4.2l-3.5,2.4
			c-0.6-1.1-1.7-2-3.1-2.5c-1.1-0.4-1.8-0.2-2,0.5c-0.2,0.4-0.1,0.7,0.4,1.1c0.5,0.5,1.9,1.2,3.5,2.5c2.4,1.9,3.2,4,2.4,6.2
			c-1.2,3.4-4.5,4.8-9.4,3c-3.3-1.2-5.3-3-6.3-5.6L188.9,32.7L188.9,32.7z"/>
	</g>
</g>
</svg>
