<svg width="54" height="43" viewBox="0 0 54 43" fill="none" xmlns="http://www.w3.org/2000/svg">
<path d="M52.7233 18.0064L43.9816 2.78474C43.9598 2.74656 43.9137 2.73323 43.8885 2.69859C43.6781 2.37424 43.364 2.12916 42.9963 2.00253C42.6287 1.87591 42.2288 1.87504 41.8605 2.00008L28.3557 6.67396L28.2892 2.11044C28.2824 1.64636 28.0898 1.204 27.7537 0.880679C27.4177 0.557356 26.9657 0.379551 26.4972 0.386382C26.0287 0.393213 25.5821 0.584119 25.2556 0.917102C24.9291 1.25009 24.7494 1.69787 24.7562 2.16195L24.8397 7.88734L10.1605 12.9634C10.0409 13.0036 9.95022 13.0855 9.84515 13.15L9.84162 13.15C9.60698 13.2896 9.40882 13.482 9.26321 13.7115C9.2459 13.7363 9.21426 13.7473 9.197 13.7755L0.647897 29.2143C0.471795 29.5484 0.411554 29.9306 0.476467 30.3019C0.46694 30.3755 0.43258 30.4426 0.433702 30.5195C0.486257 34.1242 6.05501 39.1885 11.1601 39.1141C16.2653 39.0397 21.684 33.8151 21.6314 30.2105C21.6269 29.9929 21.5793 29.7784 21.4915 29.579L21.4877 29.558L21.4765 29.5232C21.4441 29.3091 21.3728 29.1026 21.2662 28.9137L13.3576 15.57L24.8935 11.5794L25.3175 40.6579C25.3242 41.1219 25.5168 41.5643 25.8529 41.8876C26.189 42.2109 26.641 42.3887 27.1095 42.3819C27.578 42.3751 28.0246 42.1842 28.3511 41.8512C28.6776 41.5182 28.8572 41.0704 28.8504 40.6063L28.4095 10.3626L38.7676 6.78118L32.5926 18.3034C32.4259 18.4673 32.2943 18.6628 32.2058 18.8782C32.1172 19.0936 32.0735 19.3245 32.0773 19.5571C32.1298 23.1617 37.6986 28.226 42.8037 28.1516C47.9088 28.0772 53.3276 22.8526 53.275 19.248C53.2716 19.015 53.221 18.785 53.1263 18.5718C53.0315 18.3585 52.8945 18.1663 52.7233 18.0064ZM4.95864 28.7034L10.7981 18.1626L16.9389 28.5287L4.95864 28.7034ZM36.899 17.7366L42.4995 7.28683L48.4023 17.5689L36.899 17.7366Z" fill="#EEFF00"/>
</svg>
