<?xml version="1.0" encoding="utf-8"?>
<!-- Generator: Adobe Illustrator 25.2.0, SVG Export Plug-In . SVG Version: 6.00 Build 0)  -->
<svg version="1.1" id="Layer_1" xmlns="http://www.w3.org/2000/svg" xmlns:xlink="http://www.w3.org/1999/xlink" x="0px" y="0px"
	 viewBox="0 0 230.1 118.2" style="enable-background:new 0 0 230.1 118.2;" xml:space="preserve">
<g>
	<path d="M178,97.1L175,79.8c0,0,0-0.1-0.1-0.1c-0.1-0.4-0.3-0.7-0.6-1c-0.3-0.2-0.7-0.4-1.1-0.4L159,78.1l1.5-4.3
		c0.2-0.4,0.1-0.9-0.1-1.3c-0.2-0.4-0.6-0.7-1-0.9c-0.4-0.2-0.9-0.1-1.3,0.1c-0.4,0.2-0.7,0.6-0.9,1l-1.9,5.4l-15.5-0.2
		c-0.1,0-0.2,0-0.4,0.1l0,0c-0.3,0.1-0.5,0.2-0.7,0.3c0,0-0.1,0-0.1,0l-13.3,11.6c-0.3,0.3-0.5,0.6-0.5,1c0,0.1-0.1,0.1-0.1,0.2
		c-1.2,3.4,2.3,10.1,7.2,11.7c4.8,1.7,11.7-1.4,12.9-4.8c0.1-0.2,0.1-0.4,0.1-0.6l0,0l0,0c0-0.2,0-0.4,0-0.6l-2.9-15.2l12.2,0.2
		l-9.5,27.5c-0.2,0.4-0.1,0.9,0.1,1.3c0.2,0.4,0.6,0.7,1,0.9c0.4,0.2,0.9,0.1,1.3-0.1c0.4-0.2,0.7-0.6,0.9-1l9.9-28.6l11,0.1
		l-9.7,8.7c-0.2,0.1-0.4,0.2-0.6,0.4c-0.2,0.2-0.3,0.4-0.4,0.6c-1.2,3.4,2.3,10.1,7.2,11.7c4.8,1.7,11.7-1.4,12.9-4.8
		c0.1-0.2,0.1-0.5,0.1-0.7C178.2,97.5,178.1,97.3,178,97.1z M129.5,90.9l9.1-7.9l2.3,11.8L129.5,90.9z M163.2,91.4l8.8-7.9l2.1,11.7
		L163.2,91.4z"/>
	<g>
		<path d="M19.3,23l-2.2,4.3c-2.3-1.1-4.5-1.1-6.8-0.2c-2,0.8-3.4,2.2-4.3,4.2s-0.8,3.9,0,6c0.8,2.1,2.2,3.5,4.2,4.3
			c2,0.8,3.9,0.7,6-0.1c2.4-1,3.9-2.6,4.7-5l4.6,1.5c-1.2,3.7-3.8,6.6-7.5,8.1c-3.4,1.4-6.8,1.5-10.1,0.3c-3.3-1.3-5.6-3.5-7-6.9
			c-1.4-3.4-1.4-6.6,0.1-9.9C2.6,26.3,5,24,8.4,22.6C12,21.1,15.9,21.3,19.3,23L19.3,23z"/>
		<path d="M38.8,21.9c2.4,1.1,4,3,4.8,5.5c0.8,2.5,0.6,4.9-0.7,7.3c-1.3,2.3-3.2,3.9-5.8,4.7c-2.6,0.8-5.1,0.7-7.5-0.5
			c-2.4-1.2-4-3-4.7-5.5c-0.8-2.5-0.6-4.9,0.7-7.2c1.3-2.3,3.2-3.9,5.9-4.7C33.9,20.6,36.4,20.8,38.8,21.9L38.8,21.9z M32,34.6
			c1.1,0.6,2.3,0.7,3.5,0.3c1.2-0.4,2.2-1.2,2.7-2.3c0.6-1.1,0.7-2.3,0.3-3.6c-0.4-1.2-1.2-2.1-2.3-2.7c-1.1-0.6-2.3-0.7-3.5-0.3
			c-1.2,0.4-2.2,1.2-2.7,2.3c-0.6,1.1-0.7,2.3-0.3,3.5C30.1,33,30.9,34,32,34.6L32,34.6z"/>
		<path d="M48.5,35.4l-4-17.3l5.1-1.2l0.5,2.2c0.4-1.7,2.1-3.2,4.5-3.7c4.2-1,7.2,1.2,8.3,5.7l2.4,10.5l-5.1,1.2l-2.3-9.9
			c-0.5-2-1.9-3-3.9-2.5c-2,0.5-3.1,2.2-2.6,4.2l2.2,9.7L48.5,35.4L48.5,35.4z"/>
		<path d="M68.9,24.9c1.2,1,3.1,1.5,5.1,1.2c1.8-0.3,2.6-0.9,2.4-1.8c0-0.4-0.3-0.6-0.7-0.8c-0.4-0.1-1.2-0.3-2.2-0.4
			c-1.1-0.1-1.9-0.2-2.5-0.3c-2.8-0.5-4.4-1.9-4.8-4.2c-0.3-1.8,0.2-3.3,1.3-4.5c1.2-1.2,2.7-2,4.6-2.3c2.5-0.4,4.6,0.1,6.4,1.3
			L76.6,17c-1.1-0.7-2.4-1-3.9-0.7c-1.1,0.2-1.7,0.7-1.6,1.4c0.1,0.5,0.3,0.7,0.9,0.8c0.7,0.2,2.2,0.2,4.3,0.6
			c3.1,0.5,4.7,2,5.1,4.3c0.6,3.6-1.7,6.3-6.8,7.1c-3.4,0.5-6.1-0.1-8.2-1.9L68.9,24.9L68.9,24.9z"/>
		<path d="M84.4,28.7L82.6,11l5.2-0.5l1.9,17.7L84.4,28.7z M84.4,3.3c1.7-0.2,3.1,1,3.3,2.7c0.2,1.6-1,3.1-2.7,3.3
			c-1.6,0.2-3.1-1-3.3-2.6C81.5,4.9,82.7,3.5,84.4,3.3z"/>
		<path d="M105.4,11.6L105,2.5l5.2-0.2l1.1,24.6l-5.2,0.2l-0.1-2.3c-0.5,1.6-2.5,2.8-5.2,2.9c-2.5,0.1-4.7-0.7-6.4-2.3
			c-1.7-1.7-2.7-3.9-2.8-6.4s0.6-4.8,2.2-6.6c1.6-1.9,3.7-2.9,6.2-3C102.7,9.1,104.8,10.1,105.4,11.6L105.4,11.6z M104.8,21.4
			c0.9-0.9,1.3-2,1.2-3.2c-0.1-1.2-0.6-2.3-1.5-3.1c-0.9-0.8-2-1.2-3.3-1.2c-1.3,0.1-2.3,0.5-3.1,1.5c-0.8,0.9-1.2,2-1.2,3.2
			c0.1,1.2,0.5,2.3,1.4,3.1c0.9,0.8,2,1.2,3.3,1.1C102.9,22.8,104,22.3,104.8,21.4z"/>
		<path d="M113.9,17.9c0.1-2.8,1.1-5,3-6.6c1.9-1.7,4.2-2.4,7-2.3c2.7,0.1,4.9,1.1,6.5,2.9c1.6,1.8,2.4,3.9,2.3,6.5
			c0,0.6-0.1,1.2-0.1,1.7l-13.4-0.5c0,2.1,1.8,3.6,4.6,3.7c1.7,0.1,3.1-0.4,4.4-1.6l3,3c-2.2,2.1-4.8,3.1-7.8,3
			c-2.9-0.1-5.2-1-7-2.8c-1.7-1.8-2.5-4-2.4-6.8L113.9,17.9L113.9,17.9z M127.5,16.4c0.1-1.7-1.6-3-3.7-3.1
			c-2.3-0.1-4.2,1.2-4.4,2.8L127.5,16.4z"/>
		<path d="M134.6,27.8l1.8-17.7l5.2,0.5l-0.2,2.4c1-1.7,3-2.5,5.4-2.3c0.3,0,0.8,0.1,1.4,0.2l-0.5,4.9c-0.5-0.2-1.1-0.3-1.7-0.4
			c-3-0.3-4.9,1.2-5.2,4.1l-0.9,8.6L134.6,27.8L134.6,27.8z"/>
		<path d="M163.5,16.1l0.4-2.3l5.2,0.9l-3,17.5l-5.2-0.9l0.4-2.3c-0.8,1.4-3,2.2-5.7,1.7c-2.5-0.4-4.4-1.6-5.8-3.7
			c-1.3-2-1.8-4.4-1.4-6.9c0.4-2.5,1.6-4.5,3.6-6c2-1.5,4.2-2,6.7-1.6C161.3,13.1,163.2,14.5,163.5,16.1z M160.8,25.5
			c1.1-0.7,1.7-1.7,1.9-2.9c0.2-1.2-0.1-2.3-0.8-3.3c-0.7-1-1.7-1.6-3-1.8c-1.2-0.2-2.4,0-3.4,0.7c-1,0.7-1.6,1.7-1.8,2.9
			c-0.2,1.2,0,2.3,0.8,3.4c0.7,1,1.7,1.6,2.9,1.8C158.6,26.4,159.8,26.2,160.8,25.5L160.8,25.5z"/>
		<path d="M170.2,33.3l3.1-12.7l-2.3-0.6l1.1-4.6l2.3,0.5l1.6-6.6l5,1.2l-1.6,6.6l3.8,0.9l-1.1,4.6l-3.8-0.9l-3.1,12.7L170.2,33.3
			L170.2,33.3z"/>
		<path d="M180.9,36l4.9-17.1l5.1,1.4L186,37.4L180.9,36z M190.4,12.4c1.6,0.5,2.5,2.1,2.1,3.7c-0.5,1.6-2.1,2.5-3.7,2
			c-1.6-0.5-2.5-2.1-2.1-3.7C187.1,12.9,188.8,12,190.4,12.4L190.4,12.4z"/>
		<path d="M209.4,28.9c1.2,2.3,1.4,4.8,0.5,7.3c-0.9,2.5-2.5,4.3-4.9,5.4c-2.4,1-4.9,1.2-7.5,0.2c-2.6-0.9-4.5-2.5-5.7-4.9
			c-1.2-2.4-1.4-4.8-0.5-7.3c0.9-2.5,2.5-4.3,4.9-5.4c2.4-1.1,4.9-1.2,7.5-0.3C206.2,24.8,208.1,26.5,209.4,28.9z M196.4,34.9
			c0.5,1.1,1.4,1.9,2.7,2.3c1.2,0.4,2.4,0.4,3.5-0.2c1.1-0.6,1.9-1.5,2.4-2.7c0.4-1.2,0.4-2.4-0.2-3.5c-0.5-1.2-1.4-2-2.6-2.4
			c-1.2-0.4-2.4-0.4-3.6,0.2c-1.1,0.5-1.9,1.4-2.4,2.6C195.8,32.5,195.8,33.8,196.4,34.9z"/>
		<path d="M209.1,45.4l7.2-16.3l4.8,2.1l-0.9,2c1.3-1.1,3.6-1.3,5.8-0.3c4,1.8,5.1,5.3,3.2,9.5l-4.4,9.9l-4.8-2.1l4.1-9.3
			c0.9-1.9,0.3-3.5-1.6-4.4c-1.8-0.8-3.8-0.1-4.6,1.8l-4.1,9.1L209.1,45.4z"/>
	</g>
</g>
</svg>
