<svg width="43" height="42" viewBox="0 0 43 42" fill="none" xmlns="http://www.w3.org/2000/svg">
<path d="M42.1432 21.5051L21.974 1.66001L21.83 1.51933H21.7916C20.9948 0.778424 20.0732 0.393901 18.9212 0.365766L9.35022 0.0187573L8.92783 0C7.85265 0.0187572 6.79667 0.422037 5.98069 1.2286L1.25758 5.83349C0.393592 6.67756 0 7.79362 0 8.90029V8.90967L0.0287994 9.30357L0.671987 18.429V18.6259C0.767985 19.4418 1.10398 20.2484 1.67037 20.9143L2.19836 21.4207L22.0028 41.0032L22.3004 41.294C23.4428 42.2787 25.1803 42.2318 26.2651 41.1627L42.1432 25.5379C43.276 24.4313 43.2952 22.6212 42.1432 21.5051ZM10.7518 14.9964C8.20784 14.9964 6.14388 12.98 6.14388 10.4947C6.14388 8.00933 8.20784 5.99293 10.7518 5.99293C13.2957 5.99293 15.3597 8.00933 15.3597 10.4947C15.3597 12.98 13.2957 14.9964 10.7518 14.9964Z" fill="#EEFF00"/>
</svg>
