<svg width="39" height="41" viewBox="0 0 39 41" fill="none" xmlns="http://www.w3.org/2000/svg">
<path d="M37.0939 41C38.1469 41 39 40.1114 39 39.0161V35.4604V5.5396V1.98387C39 0.888602 38.1469 0 37.0939 0C36.041 0 35.1879 0.888616 35.1879 1.98387V4.09109L11.7408 11.8942H1.90607C0.853145 11.8942 0 12.7828 0 13.8781V27.1219C0 28.2172 0.853145 29.1058 1.90607 29.1058H5.86464V33.7219C5.86464 37.7323 8.99986 40.9961 12.8536 40.9961H18.8305C22.6621 40.9961 25.7804 37.7689 25.8161 33.79L35.1879 36.9089V39.0161C35.1879 40.1114 36.041 41 37.0939 41ZM3.81214 25.1381V15.8619H10.1322V25.1381H3.81214ZM22.0073 33.7219C22.0073 35.5457 20.5821 37.0284 18.8305 37.0284H12.8536C11.102 37.0284 9.67678 35.5457 9.67678 33.7219V29.1058H11.7408L22.0073 32.5225V33.7219Z" fill="#EEFF00"/>
</svg>
