<svg width="50" height="28" viewBox="0 0 50 28" fill="none" xmlns="http://www.w3.org/2000/svg">
<path d="M25 5.24877e-08C8.5975 1.80505e-08 -2.5362e-08 12.08 -2.93931e-08 14C-3.34136e-08 15.915 8.5975 28 25 28C41.4 28 50 15.915 50 14C50 12.08 41.4 8.69196e-08 25 5.24877e-08ZM25 24.7675C18.8625 24.7675 13.8875 19.9475 13.8875 14C13.8875 8.0525 18.8625 3.2275 25 3.2275C31.1375 3.2275 36.11 8.0525 36.11 14C36.11 19.9475 31.1375 24.7675 25 24.7675ZM25 14C23.9825 12.8825 26.6575 8.615 25 8.615C21.93 8.615 19.4425 11.0275 19.4425 14C19.4425 16.9725 21.93 19.385 25 19.385C28.0675 19.385 30.5575 16.9725 30.5575 14C30.5575 12.6325 25.865 14.9475 25 14Z" fill="#EEFF00"/>
</svg>
