<?xml version="1.0" encoding="utf-8"?>
<!-- Generator: Adobe Illustrator 25.2.0, SVG Export Plug-In . SVG Version: 6.00 Build 0)  -->
<svg version="1.1" id="Layer_1" xmlns="http://www.w3.org/2000/svg" xmlns:xlink="http://www.w3.org/1999/xlink" x="0px" y="0px"
	 viewBox="0 0 230.1 118.2" style="enable-background:new 0 0 230.1 118.2;" xml:space="preserve">
<g>
	<path d="M170.6,99.9L153.9,77l-0.1-0.2l0,0c-0.7-0.9-1.5-1.4-2.6-1.6l-9.4-1.9l-0.4-0.1c-1.1-0.2-2.2,0.1-3.1,0.7l-5.4,3.8
		c-1,0.7-1.6,1.7-1.7,2.8l0,0l0,0.4l-0.9,9.1l0,0.2c0,0.8,0.2,1.7,0.6,2.4l0.4,0.6l16.3,22.6l0.2,0.3c1,1.2,2.7,1.4,3.9,0.5
		l18.2-12.8C171.2,103,171.5,101.2,170.6,99.9z M140.7,88.3c-2.5-0.4-4.2-2.7-3.8-5.2c0.4-2.5,2.8-4.1,5.3-3.7
		c2.5,0.4,4.2,2.7,3.8,5.2C145.5,87.1,143.2,88.7,140.7,88.3z"/>
	<g>
		<path d="M41.3,35.4l-6-23.9l10-2.5c2.2-0.6,4.3-0.3,6.3,0.9c2,1.1,3.2,2.8,3.8,5c0.8,3.1-0.3,6.1-2.6,7.8l8.1,7.8L55,32l-7-6.7
			l-0.1,0l-3.5,0.9l2,7.9L41.3,35.4L41.3,35.4z M43.4,21.5l4.2-1c2.1-0.5,3.1-2.2,2.6-4.2c-0.5-1.8-2.1-2.8-3.8-2.4L41.7,15
			L43.4,21.5L43.4,21.5z"/>
		<path d="M59.5,21.7c-0.5-2.8,0.1-5.1,1.6-7.1c1.5-2,3.7-3.2,6.4-3.7c2.7-0.4,5,0.1,6.9,1.5c2,1.4,3.1,3.4,3.6,5.9
			c0.1,0.6,0.2,1.2,0.2,1.7l-13.3,2.2c0.5,2.1,2.5,3.1,5.2,2.7c1.6-0.3,3-1.1,4-2.4l3.5,2.4c-1.7,2.5-4.1,4-7,4.5
			c-2.9,0.5-5.3,0-7.4-1.3c-2.1-1.4-3.3-3.4-3.7-6.2L59.5,21.7L59.5,21.7z M72.5,17.5c-0.3-1.6-2.2-2.6-4.3-2.3
			c-2.3,0.4-3.9,2-3.8,3.6L72.5,17.5L72.5,17.5z"/>
		<path d="M82.9,27.2l-1.3-13l-2.4,0.2l-0.5-4.7l2.4-0.2l-0.7-6.8l5.1-0.5L86.2,9l3.9-0.4l0.5,4.7l-3.9,0.4l1.3,13L82.9,27.2
			L82.9,27.2z"/>
		<path d="M91.9,17.2c-0.1-2.8,0.7-5.1,2.4-6.8c1.7-1.8,4-2.7,6.8-2.8c2.7-0.1,4.9,0.7,6.7,2.3c1.8,1.7,2.7,3.7,2.8,6.3
			c0,0.6,0,1.2,0,1.7l-13.4,0.5c0.2,2.1,2.1,3.4,4.9,3.3c1.7-0.1,3.1-0.7,4.3-1.9l3.2,2.8c-2,2.2-4.5,3.4-7.5,3.6
			c-2.9,0.1-5.3-0.6-7.1-2.2c-1.9-1.6-2.8-3.8-2.9-6.6L91.9,17.2L91.9,17.2z M105.3,14.7c-0.1-1.7-1.9-2.9-4-2.8
			c-2.3,0.1-4.1,1.5-4.2,3.1L105.3,14.7L105.3,14.7z"/>
		<path d="M113.2,25.4l0.7-17.8l5.3,0.2l-0.1,2.2c0.8-1.5,2.9-2.5,5.3-2.4c4.3,0.2,6.7,3,6.5,7.6l-0.4,10.8l-5.3-0.2l0.4-10.2
			c0.1-2.1-1-3.4-3.1-3.5c-2-0.1-3.6,1.3-3.6,3.4l-0.4,10L113.2,25.4L113.2,25.4z"/>
		<path d="M134.5,26.6l1.3-13l-2.3-0.2l0.5-4.7l2.3,0.2l0.7-6.8l5.1,0.5l-0.7,6.8l3.9,0.4l-0.5,4.7l-3.9-0.4l-1.3,13L134.5,26.6z"/>
		<path d="M151.8,3.2c1.6,0.2,2.8,1.7,2.5,3.4c-0.2,1.6-1.8,2.7-3.4,2.5c-1.6-0.2-2.8-1.7-2.5-3.4C148.6,4.1,150.2,3,151.8,3.2z
			 M145.6,27.8l2.6-17.6l5.2,0.8l-2.6,17.6L145.6,27.8z"/>
		<path d="M172.8,17c1.5,2.2,2,4.5,1.5,7.1c-0.5,2.6-1.9,4.6-4.2,6c-2.3,1.4-4.7,1.8-7.4,1.3c-2.7-0.6-4.8-1.9-6.3-4.1
			c-1.5-2.2-2-4.5-1.4-7.1c0.5-2.6,1.9-4.6,4.1-6c2.3-1.4,4.7-1.8,7.4-1.3C169.2,13.4,171.3,14.8,172.8,17z M160.8,24.7
			c0.7,1,1.7,1.7,2.9,2c1.3,0.3,2.4,0,3.5-0.7c1.1-0.7,1.7-1.7,2-3c0.3-1.3,0-2.4-0.7-3.5c-0.7-1.1-1.7-1.8-2.9-2
			c-1.3-0.3-2.4,0-3.5,0.7c-1,0.7-1.7,1.7-2,2.9C159.8,22.4,160.1,23.6,160.8,24.7L160.8,24.7z"/>
		<path d="M174.8,33.4l5-17.1l5.1,1.5l-0.6,2.1c1.1-1.3,3.4-1.7,5.7-1.1c4.2,1.2,5.8,4.5,4.5,9l-3,10.4l-5.1-1.5l2.9-9.8
			c0.6-2-0.2-3.5-2.2-4.1c-1.9-0.6-3.8,0.4-4.3,2.4l-2.8,9.6L174.8,33.4L174.8,33.4z"/>
	</g>
</g>
</svg>
