<?xml version="1.0" encoding="utf-8"?>
<!-- Generator: Adobe Illustrator 25.2.0, SVG Export Plug-In . SVG Version: 6.00 Build 0)  -->
<svg version="1.1" id="Layer_1" xmlns="http://www.w3.org/2000/svg" xmlns:xlink="http://www.w3.org/1999/xlink" x="0px" y="0px"
	 viewBox="0 0 230.1 118.2" style="enable-background:new 0 0 230.1 118.2;" xml:space="preserve">
<g>
	<path d="M168.3,89.9l-23.8-3.2l23.4-5.6c1.1-0.3,1.8-1.4,1.5-2.5l-1.7-7.5c-0.1-0.5-0.5-1-0.9-1.3c-0.5-0.3-1-0.4-1.6-0.3
		l-34.4,8.3c-1.1,0.3-1.8,1.4-1.5,2.5l1.6,7.1l-2.9,21.8c-0.2,1.1,0.6,2.2,1.8,2.3l35,4.6c1.1,0.1,2.2-0.7,2.3-1.8l2.9-22.2
		C170.3,91.1,169.5,90.1,168.3,89.9z M164.2,74.1l0.8,3.4l-2.2,0.5l-0.8-3.4L164.2,74.1z M157.9,75.6l0.8,3.4l-3.3,0.8l-0.8-3.4
		L157.9,75.6z M150.7,77.4l0.8,3.4l-3.3,0.8l-0.8-3.4L150.7,77.4z M134.6,84.8l-0.8-3.4l2.2-0.5l0.8,3.4L134.6,84.8z M140.9,83.3
		l-0.8-3.4l3.3-0.8l0.8,3.4L140.9,83.3z M155.5,102.5l-9.7,4.7c-0.7,0.3-1.5-0.2-1.4-1l1.6-11.9c0.1-0.8,1-1.1,1.6-0.6l8.2,7.1
		C156.3,101.3,156.2,102.1,155.5,102.5z"/>
	<path d="M60,32.4l6.1-25.9l4.8-0.8l13.9,22.7l-5.7,0.9l-2.3-3.8l-10.1,1.6l-1,4.3L60,32.4L60,32.4z M67.5,22.6l7.1-1.1l-4.9-8.3
		L67.5,22.6z"/>
	<path d="M100.6,12.2l-3,3.5c-1.3-1.1-2.6-1.6-4.2-1.5c-2.6,0.2-4.4,2.3-4.2,5s2.4,4.5,4.9,4.3c1.6-0.1,2.9-0.8,3.9-2.1l3.6,3
		c-1.8,2.4-4.2,3.7-7.1,3.9c-2.7,0.2-5.1-0.5-7.2-2.1c-2-1.6-3.1-3.8-3.3-6.5c-0.2-2.7,0.6-5,2.3-6.9c1.8-1.9,4-3,6.7-3.3
		C95.8,9.3,98.4,10.2,100.6,12.2L100.6,12.2z"/>
	<path d="M104.9,27.2l-0.2-13l-2.4,0l-0.1-4.8l2.4,0l-0.1-6.8l5.1-0.1l0.1,6.8l3.9-0.1l0.1,4.8l-3.9,0.1l0.2,13L104.9,27.2z"/>
	<path d="M116,27.1l0.4-17.8l5.3,0.1l-0.4,17.8L116,27.1z M119.1,1.9c1.7,0,3,1.4,2.9,3.1c0,1.7-1.4,2.9-3.1,2.9c-1.7,0-3-1.4-2.9-3
		C116.1,3.1,117.5,1.9,119.1,1.9z"/>
	<path d="M141.7,13c1.8,1.9,2.6,4.2,2.4,6.9c-0.2,2.6-1.3,4.8-3.4,6.5c-2.1,1.6-4.5,2.4-7.2,2.1c-2.7-0.2-5-1.3-6.8-3.3
		c-1.8-2-2.5-4.3-2.3-6.9s1.3-4.8,3.4-6.4c2.1-1.7,4.5-2.4,7.2-2.2C137.7,9.9,139.9,11,141.7,13z M130.7,22.1c0.8,1,1.9,1.5,3.2,1.6
		c1.3,0.1,2.4-0.3,3.4-1.1c1-0.8,1.5-1.9,1.6-3.2c0.1-1.3-0.3-2.4-1.1-3.4c-0.8-1-1.9-1.5-3.2-1.6c-1.3-0.1-2.4,0.3-3.4,1.1
		c-1,0.8-1.5,1.9-1.6,3.2C129.5,20,129.9,21.2,130.7,22.1L130.7,22.1z"/>
	<path d="M145.6,29l2.8-17.6l5.2,0.8l-0.4,2.2c1-1.4,3.1-2.1,5.5-1.8c4.3,0.7,6.3,3.8,5.5,8.4l-1.7,10.7l-5.2-0.8l1.6-10
		c0.3-2.1-0.6-3.5-2.7-3.8c-2-0.3-3.7,0.9-4,2.9l-1.6,9.9L145.6,29L145.6,29z"/>
</g>
<g>
	<path d="M170.6,99.9L153.9,77l-0.1-0.2l0,0c-0.7-0.9-1.5-1.4-2.6-1.6l-9.4-1.9l-0.4-0.1c-1.1-0.2-2.2,0.1-3.1,0.7l-5.4,3.8
		c-1,0.7-1.6,1.7-1.7,2.8l0,0l0,0.4l-0.9,9.1l0,0.2c0,0.8,0.2,1.7,0.6,2.4l0.4,0.6l16.3,22.6l0.2,0.3c1,1.2,2.7,1.4,3.9,0.5
		l18.2-12.8C171.2,103,171.5,101.2,170.6,99.9z M140.7,88.3c-2.5-0.4-4.2-2.7-3.8-5.2c0.4-2.5,2.8-4.1,5.3-3.7
		c2.5,0.4,4.2,2.7,3.8,5.2C145.5,87.1,143.2,88.7,140.7,88.3z"/>
	<g>
		<path d="M41.3,35.4l-6-23.9l10-2.5c2.2-0.6,4.3-0.3,6.3,0.9c2,1.1,3.2,2.8,3.8,5c0.8,3.1-0.3,6.1-2.6,7.8l8.1,7.8L55,32l-7-6.7
			l-0.1,0l-3.5,0.9l2,7.9L41.3,35.4L41.3,35.4z M43.4,21.5l4.2-1c2.1-0.5,3.1-2.2,2.6-4.2c-0.5-1.8-2.1-2.8-3.8-2.4L41.7,15
			L43.4,21.5L43.4,21.5z"/>
		<path d="M59.5,21.7c-0.5-2.8,0.1-5.1,1.6-7.1c1.5-2,3.7-3.2,6.4-3.7c2.7-0.4,5,0.1,6.9,1.5c2,1.4,3.1,3.4,3.6,5.9
			c0.1,0.6,0.2,1.2,0.2,1.7l-13.3,2.2c0.5,2.1,2.5,3.1,5.2,2.7c1.6-0.3,3-1.1,4-2.4l3.5,2.4c-1.7,2.5-4.1,4-7,4.5
			c-2.9,0.5-5.3,0-7.4-1.3c-2.1-1.4-3.3-3.4-3.7-6.2L59.5,21.7L59.5,21.7z M72.5,17.5c-0.3-1.6-2.2-2.6-4.3-2.3
			c-2.3,0.4-3.9,2-3.8,3.6L72.5,17.5L72.5,17.5z"/>
		<path d="M82.9,27.2l-1.3-13l-2.4,0.2l-0.5-4.7l2.4-0.2l-0.7-6.8l5.1-0.5L86.2,9l3.9-0.4l0.5,4.7l-3.9,0.4l1.3,13L82.9,27.2
			L82.9,27.2z"/>
		<path d="M91.9,17.2c-0.1-2.8,0.7-5.1,2.4-6.8c1.7-1.8,4-2.7,6.8-2.8c2.7-0.1,4.9,0.7,6.7,2.3c1.8,1.7,2.7,3.7,2.8,6.3
			c0,0.6,0,1.2,0,1.7l-13.4,0.5c0.2,2.1,2.1,3.4,4.9,3.3c1.7-0.1,3.1-0.7,4.3-1.9l3.2,2.8c-2,2.2-4.5,3.4-7.5,3.6
			c-2.9,0.1-5.3-0.6-7.1-2.2c-1.9-1.6-2.8-3.8-2.9-6.6L91.9,17.2L91.9,17.2z M105.3,14.7c-0.1-1.7-1.9-2.9-4-2.8
			c-2.3,0.1-4.1,1.5-4.2,3.1L105.3,14.7L105.3,14.7z"/>
		<path d="M113.2,25.4l0.7-17.8l5.3,0.2l-0.1,2.2c0.8-1.5,2.9-2.5,5.3-2.4c4.3,0.2,6.7,3,6.5,7.6l-0.4,10.8l-5.3-0.2l0.4-10.2
			c0.1-2.1-1-3.4-3.1-3.5c-2-0.1-3.6,1.3-3.6,3.4l-0.4,10L113.2,25.4L113.2,25.4z"/>
		<path d="M134.5,26.6l1.3-13l-2.3-0.2l0.5-4.7l2.3,0.2l0.7-6.8l5.1,0.5l-0.7,6.8l3.9,0.4l-0.5,4.7l-3.9-0.4l-1.3,13L134.5,26.6z"/>
		<path d="M151.8,3.2c1.6,0.2,2.8,1.7,2.5,3.4c-0.2,1.6-1.8,2.7-3.4,2.5c-1.6-0.2-2.8-1.7-2.5-3.4C148.6,4.1,150.2,3,151.8,3.2z
			 M145.6,27.8l2.6-17.6l5.2,0.8l-2.6,17.6L145.6,27.8z"/>
		<path d="M172.8,17c1.5,2.2,2,4.5,1.5,7.1c-0.5,2.6-1.9,4.6-4.2,6c-2.3,1.4-4.7,1.8-7.4,1.3c-2.7-0.6-4.8-1.9-6.3-4.1
			c-1.5-2.2-2-4.5-1.4-7.1c0.5-2.6,1.9-4.6,4.1-6c2.3-1.4,4.7-1.8,7.4-1.3C169.2,13.4,171.3,14.8,172.8,17z M160.8,24.7
			c0.7,1,1.7,1.7,2.9,2c1.3,0.3,2.4,0,3.5-0.7c1.1-0.7,1.7-1.7,2-3c0.3-1.3,0-2.4-0.7-3.5c-0.7-1.1-1.7-1.8-2.9-2
			c-1.3-0.3-2.4,0-3.5,0.7c-1,0.7-1.7,1.7-2,2.9C159.8,22.4,160.1,23.6,160.8,24.7L160.8,24.7z"/>
		<path d="M174.8,33.4l5-17.1l5.1,1.5l-0.6,2.1c1.1-1.3,3.4-1.7,5.7-1.1c4.2,1.2,5.8,4.5,4.5,9l-3,10.4l-5.1-1.5l2.9-9.8
			c0.6-2-0.2-3.5-2.2-4.1c-1.9-0.6-3.8,0.4-4.3,2.4l-2.8,9.6L174.8,33.4L174.8,33.4z"/>
	</g>
</g>
<g>
	<path d="M178,97.1L175,79.8c0,0,0-0.1-0.1-0.1c-0.1-0.4-0.3-0.7-0.6-1c-0.3-0.2-0.7-0.4-1.1-0.4L159,78.1l1.5-4.3
		c0.2-0.4,0.1-0.9-0.1-1.3c-0.2-0.4-0.6-0.7-1-0.9c-0.4-0.2-0.9-0.1-1.3,0.1c-0.4,0.2-0.7,0.6-0.9,1l-1.9,5.4l-15.5-0.2
		c-0.1,0-0.2,0-0.4,0.1l0,0c-0.3,0.1-0.5,0.2-0.7,0.3c0,0-0.1,0-0.1,0l-13.3,11.6c-0.3,0.3-0.5,0.6-0.5,1c0,0.1-0.1,0.1-0.1,0.2
		c-1.2,3.4,2.3,10.1,7.2,11.7c4.8,1.7,11.7-1.4,12.9-4.8c0.1-0.2,0.1-0.4,0.1-0.6l0,0l0,0c0-0.2,0-0.4,0-0.6l-2.9-15.2l12.2,0.2
		l-9.5,27.5c-0.2,0.4-0.1,0.9,0.1,1.3c0.2,0.4,0.6,0.7,1,0.9c0.4,0.2,0.9,0.1,1.3-0.1c0.4-0.2,0.7-0.6,0.9-1l9.9-28.6l11,0.1
		l-9.7,8.7c-0.2,0.1-0.4,0.2-0.6,0.4c-0.2,0.2-0.3,0.4-0.4,0.6c-1.2,3.4,2.3,10.1,7.2,11.7c4.8,1.7,11.7-1.4,12.9-4.8
		c0.1-0.2,0.1-0.5,0.1-0.7C178.2,97.5,178.1,97.3,178,97.1z M129.5,90.9l9.1-7.9l2.3,11.8L129.5,90.9z M163.2,91.4l8.8-7.9l2.1,11.7
		L163.2,91.4z"/>
	<g>
		<path d="M19.3,23l-2.2,4.3c-2.3-1.1-4.5-1.1-6.8-0.2c-2,0.8-3.4,2.2-4.3,4.2s-0.8,3.9,0,6c0.8,2.1,2.2,3.5,4.2,4.3
			c2,0.8,3.9,0.7,6-0.1c2.4-1,3.9-2.6,4.7-5l4.6,1.5c-1.2,3.7-3.8,6.6-7.5,8.1c-3.4,1.4-6.8,1.5-10.1,0.3c-3.3-1.3-5.6-3.5-7-6.9
			c-1.4-3.4-1.4-6.6,0.1-9.9C2.6,26.3,5,24,8.4,22.6C12,21.1,15.9,21.3,19.3,23L19.3,23z"/>
		<path d="M38.8,21.9c2.4,1.1,4,3,4.8,5.5c0.8,2.5,0.6,4.9-0.7,7.3c-1.3,2.3-3.2,3.9-5.8,4.7c-2.6,0.8-5.1,0.7-7.5-0.5
			c-2.4-1.2-4-3-4.7-5.5c-0.8-2.5-0.6-4.9,0.7-7.2c1.3-2.3,3.2-3.9,5.9-4.7C33.9,20.6,36.4,20.8,38.8,21.9L38.8,21.9z M32,34.6
			c1.1,0.6,2.3,0.7,3.5,0.3c1.2-0.4,2.2-1.2,2.7-2.3c0.6-1.1,0.7-2.3,0.3-3.6c-0.4-1.2-1.2-2.1-2.3-2.7c-1.1-0.6-2.3-0.7-3.5-0.3
			c-1.2,0.4-2.2,1.2-2.7,2.3c-0.6,1.1-0.7,2.3-0.3,3.5C30.1,33,30.9,34,32,34.6L32,34.6z"/>
		<path d="M48.5,35.4l-4-17.3l5.1-1.2l0.5,2.2c0.4-1.7,2.1-3.2,4.5-3.7c4.2-1,7.2,1.2,8.3,5.7l2.4,10.5l-5.1,1.2l-2.3-9.9
			c-0.5-2-1.9-3-3.9-2.5c-2,0.5-3.1,2.2-2.6,4.2l2.2,9.7L48.5,35.4L48.5,35.4z"/>
		<path d="M68.9,24.9c1.2,1,3.1,1.5,5.1,1.2c1.8-0.3,2.6-0.9,2.4-1.8c0-0.4-0.3-0.6-0.7-0.8c-0.4-0.1-1.2-0.3-2.2-0.4
			c-1.1-0.1-1.9-0.2-2.5-0.3c-2.8-0.5-4.4-1.9-4.8-4.2c-0.3-1.8,0.2-3.3,1.3-4.5c1.2-1.2,2.7-2,4.6-2.3c2.5-0.4,4.6,0.1,6.4,1.3
			L76.6,17c-1.1-0.7-2.4-1-3.9-0.7c-1.1,0.2-1.7,0.7-1.6,1.4c0.1,0.5,0.3,0.7,0.9,0.8c0.7,0.2,2.2,0.2,4.3,0.6
			c3.1,0.5,4.7,2,5.1,4.3c0.6,3.6-1.7,6.3-6.8,7.1c-3.4,0.5-6.1-0.1-8.2-1.9L68.9,24.9L68.9,24.9z"/>
		<path d="M84.4,28.7L82.6,11l5.2-0.5l1.9,17.7L84.4,28.7z M84.4,3.3c1.7-0.2,3.1,1,3.3,2.7c0.2,1.6-1,3.1-2.7,3.3
			c-1.6,0.2-3.1-1-3.3-2.6C81.5,4.9,82.7,3.5,84.4,3.3z"/>
		<path d="M105.4,11.6L105,2.5l5.2-0.2l1.1,24.6l-5.2,0.2l-0.1-2.3c-0.5,1.6-2.5,2.8-5.2,2.9c-2.5,0.1-4.7-0.7-6.4-2.3
			c-1.7-1.7-2.7-3.9-2.8-6.4s0.6-4.8,2.2-6.6c1.6-1.9,3.7-2.9,6.2-3C102.7,9.1,104.8,10.1,105.4,11.6L105.4,11.6z M104.8,21.4
			c0.9-0.9,1.3-2,1.2-3.2c-0.1-1.2-0.6-2.3-1.5-3.1c-0.9-0.8-2-1.2-3.3-1.2c-1.3,0.1-2.3,0.5-3.1,1.5c-0.8,0.9-1.2,2-1.2,3.2
			c0.1,1.2,0.5,2.3,1.4,3.1c0.9,0.8,2,1.2,3.3,1.1C102.9,22.8,104,22.3,104.8,21.4z"/>
		<path d="M113.9,17.9c0.1-2.8,1.1-5,3-6.6c1.9-1.7,4.2-2.4,7-2.3c2.7,0.1,4.9,1.1,6.5,2.9c1.6,1.8,2.4,3.9,2.3,6.5
			c0,0.6-0.1,1.2-0.1,1.7l-13.4-0.5c0,2.1,1.8,3.6,4.6,3.7c1.7,0.1,3.1-0.4,4.4-1.6l3,3c-2.2,2.1-4.8,3.1-7.8,3
			c-2.9-0.1-5.2-1-7-2.8c-1.7-1.8-2.5-4-2.4-6.8L113.9,17.9L113.9,17.9z M127.5,16.4c0.1-1.7-1.6-3-3.7-3.1
			c-2.3-0.1-4.2,1.2-4.4,2.8L127.5,16.4z"/>
		<path d="M134.6,27.8l1.8-17.7l5.2,0.5l-0.2,2.4c1-1.7,3-2.5,5.4-2.3c0.3,0,0.8,0.1,1.4,0.2l-0.5,4.9c-0.5-0.2-1.1-0.3-1.7-0.4
			c-3-0.3-4.9,1.2-5.2,4.1l-0.9,8.6L134.6,27.8L134.6,27.8z"/>
		<path d="M163.5,16.1l0.4-2.3l5.2,0.9l-3,17.5l-5.2-0.9l0.4-2.3c-0.8,1.4-3,2.2-5.7,1.7c-2.5-0.4-4.4-1.6-5.8-3.7
			c-1.3-2-1.8-4.4-1.4-6.9c0.4-2.5,1.6-4.5,3.6-6c2-1.5,4.2-2,6.7-1.6C161.3,13.1,163.2,14.5,163.5,16.1z M160.8,25.5
			c1.1-0.7,1.7-1.7,1.9-2.9c0.2-1.2-0.1-2.3-0.8-3.3c-0.7-1-1.7-1.6-3-1.8c-1.2-0.2-2.4,0-3.4,0.7c-1,0.7-1.6,1.7-1.8,2.9
			c-0.2,1.2,0,2.3,0.8,3.4c0.7,1,1.7,1.6,2.9,1.8C158.6,26.4,159.8,26.2,160.8,25.5L160.8,25.5z"/>
		<path d="M170.2,33.3l3.1-12.7l-2.3-0.6l1.1-4.6l2.3,0.5l1.6-6.6l5,1.2l-1.6,6.6l3.8,0.9l-1.1,4.6l-3.8-0.9l-3.1,12.7L170.2,33.3
			L170.2,33.3z"/>
		<path d="M180.9,36l4.9-17.1l5.1,1.4L186,37.4L180.9,36z M190.4,12.4c1.6,0.5,2.5,2.1,2.1,3.7c-0.5,1.6-2.1,2.5-3.7,2
			c-1.6-0.5-2.5-2.1-2.1-3.7C187.1,12.9,188.8,12,190.4,12.4L190.4,12.4z"/>
		<path d="M209.4,28.9c1.2,2.3,1.4,4.8,0.5,7.3c-0.9,2.5-2.5,4.3-4.9,5.4c-2.4,1-4.9,1.2-7.5,0.2c-2.6-0.9-4.5-2.5-5.7-4.9
			c-1.2-2.4-1.4-4.8-0.5-7.3c0.9-2.5,2.5-4.3,4.9-5.4c2.4-1.1,4.9-1.2,7.5-0.3C206.2,24.8,208.1,26.5,209.4,28.9z M196.4,34.9
			c0.5,1.1,1.4,1.9,2.7,2.3c1.2,0.4,2.4,0.4,3.5-0.2c1.1-0.6,1.9-1.5,2.4-2.7c0.4-1.2,0.4-2.4-0.2-3.5c-0.5-1.2-1.4-2-2.6-2.4
			c-1.2-0.4-2.4-0.4-3.6,0.2c-1.1,0.5-1.9,1.4-2.4,2.6C195.8,32.5,195.8,33.8,196.4,34.9z"/>
		<path d="M209.1,45.4l7.2-16.3l4.8,2.1l-0.9,2c1.3-1.1,3.6-1.3,5.8-0.3c4,1.8,5.1,5.3,3.2,9.5l-4.4,9.9l-4.8-2.1l4.1-9.3
			c0.9-1.9,0.3-3.5-1.6-4.4c-1.8-0.8-3.8-0.1-4.6,1.8l-4.1,9.1L209.1,45.4z"/>
	</g>
</g>
<g>
	<path d="M161.4,115.3c1,0.2,2-0.5,2.3-1.6l0.7-3.5l6-29.3l0.7-3.5c0.2-1.1-0.4-2.1-1.5-2.3s-2,0.5-2.3,1.6l-0.4,2.1l-24.5,2.9
		l-9.6-2c-1-0.2-2,0.5-2.3,1.6l-2.7,13c-0.2,1.1,0.4,2.1,1.5,2.3l3.9,0.8l-0.9,4.5c-0.8,3.9,1.6,7.8,5.4,8.5l5.9,1.2
		c3.8,0.8,7.5-1.8,8.3-5.6l8.5,4.9L160,113C159.7,114.1,160.4,115.1,161.4,115.3z M132,93.1l1.9-9.1l6.2,1.3l-1.9,9.1L132,93.1z
		 M148.1,105.1c-0.4,1.8-2.1,3-3.8,2.6l-5.9-1.2c-1.7-0.4-2.8-2.1-2.4-3.9l0.9-4.5l2,0.4l9.4,5.4L148.1,105.1z"/>
	<g>
		<path d="M32.3,37.2l3.1-26.4l4.7-1.3l16.4,20.9L51,32l-2.7-3.5l-9.9,2.8l-0.5,4.4L32.3,37.2L32.3,37.2z M38.7,26.6l6.9-1.9
			l-5.8-7.6L38.7,26.6L38.7,26.6z"/>
		<path d="M67.3,12.8l-1.7-9l5.2-1L75.4,27l-5.2,1l-0.4-2.3c-0.2,1.6-2.1,3.1-4.7,3.6c-2.5,0.5-4.7,0-6.7-1.4c-2-1.5-3.2-3.5-3.7-6
			c-0.5-2.5,0-4.8,1.3-6.9c1.3-2.1,3.3-3.3,5.7-3.8C64.3,10.7,66.5,11.3,67.3,12.8L67.3,12.8z M68.1,22.6c0.7-1,1-2.2,0.8-3.4
			C68.6,18,68,17,66.9,16.3c-1-0.7-2.2-0.9-3.5-0.7c-1.2,0.2-2.2,0.8-2.9,1.9c-0.7,1-0.9,2.1-0.7,3.3c0.2,1.2,0.8,2.2,1.9,2.9
			c1,0.7,2.1,0.9,3.4,0.7C66.4,24.2,67.4,23.6,68.1,22.6L68.1,22.6z"/>
		<path d="M84.3,26L74.7,9.2L80,8.6l5.9,10.7l3.3-11.7L94.5,7l-5.6,18.5L84.3,26L84.3,26z"/>
		<path d="M112.2,8.7c2,1.7,3,3.9,3.1,6.6c0.1,2.6-0.8,4.9-2.7,6.8c-1.9,1.9-4.2,2.9-6.9,2.9c-2.8,0.1-5.1-0.8-7.1-2.5
			c-2-1.8-3-4-3.1-6.6c-0.1-2.6,0.8-4.9,2.6-6.7c1.9-1.9,4.2-2.9,6.9-3C107.8,6.1,110.2,6.9,112.2,8.7z M102.2,19
			c0.9,0.9,2,1.3,3.3,1.2c1.3,0,2.4-0.5,3.2-1.4c0.9-0.9,1.3-2.1,1.2-3.4c0-1.3-0.5-2.4-1.4-3.2c-0.9-0.9-2-1.3-3.3-1.3
			c-1.3,0-2.4,0.5-3.2,1.5c-0.9,0.9-1.3,2-1.2,3.3C100.8,17,101.3,18.1,102.2,19L102.2,19z"/>
		<path d="M135,10l-3.5,3.1c-1.1-1.3-2.4-1.9-4-2c-2.6-0.1-4.6,1.8-4.8,4.4c-0.1,2.7,1.8,4.7,4.3,4.8c1.6,0.1,3-0.5,4.2-1.6l3.2,3.4
			c-2.1,2.1-4.6,3.1-7.6,3c-2.7-0.1-5-1.1-6.9-3c-1.8-1.9-2.6-4.2-2.5-6.8c0.1-2.7,1.2-4.9,3.1-6.6c2-1.7,4.4-2.5,7.1-2.4
			C130.6,6.5,133,7.7,135,10L135,10z"/>
		<path d="M150.8,11.4l0.3-2.3l5.2,0.6l-2.2,17.6l-5.2-0.6l0.3-2.3c-0.7,1.5-2.9,2.3-5.6,2c-2.5-0.3-4.5-1.4-5.9-3.4
			c-1.4-2-2-4.3-1.7-6.8c0.3-2.6,1.4-4.6,3.3-6.2c1.9-1.6,4.1-2.2,6.6-1.9C148.6,8.5,150.5,9.8,150.8,11.4z M148.6,20.9
			c1-0.8,1.6-1.8,1.8-3c0.2-1.2-0.2-2.3-1-3.3c-0.8-1-1.8-1.5-3.1-1.7c-1.3-0.2-2.4,0.1-3.3,0.9c-1,0.7-1.5,1.7-1.7,3
			c-0.1,1.2,0.1,2.3,0.9,3.3c0.8,0.9,1.8,1.5,3,1.7C146.5,22,147.6,21.7,148.6,20.9z"/>
		<path d="M176.3,16.5l-3.9,2.5c-0.9-1.4-2.1-2.3-3.6-2.6c-2.5-0.5-4.9,1-5.4,3.7c-0.5,2.6,1,4.9,3.5,5.4c1.6,0.3,3,0,4.4-1l2.6,3.9
			c-2.4,1.8-5.1,2.3-7.9,1.8c-2.7-0.6-4.8-1.9-6.3-4c-1.5-2.1-2-4.5-1.4-7.1c0.5-2.6,1.9-4.6,4.1-6c2.2-1.4,4.7-1.8,7.4-1.3
			C172.5,12.4,174.7,13.9,176.3,16.5L176.3,16.5z"/>
		<path d="M180.3,33.5l-2.2-19.5l5.3,1.5l1.3,12.7l7.9-10.1l5.3,1.5l-16.8,20.8l-5.2-1.5L180.3,33.5L180.3,33.5z"/>
	</g>
</g>
<g>
	<path d="M152.1,83.2c-16.4,0-25,12.1-25,14c0,1.9,8.6,14,25,14c16.4,0,25-12.1,25-14C177.1,95.3,168.5,83.2,152.1,83.2z
		 M152.1,107.9c-6.1,0-11.1-4.8-11.1-10.8c0-5.9,5-10.8,11.1-10.8c6.1,0,11.1,4.8,11.1,10.8C163.2,103.1,158.2,107.9,152.1,107.9z
		 M152.1,97.2c-1-1.1,1.7-5.4,0-5.4c-3.1,0-5.6,2.4-5.6,5.4c0,3,2.5,5.4,5.6,5.4c3.1,0,5.6-2.4,5.6-5.4
		C157.6,95.8,152.9,98.1,152.1,97.2z"/>
	<g>
		<path d="M27.2,37.5l3.3-26.4l4.7-1.3l16.3,21l-5.6,1.5l-2.7-3.5l-9.9,2.7L32.8,36L27.2,37.5L27.2,37.5z M33.6,27l6.9-1.9l-5.8-7.7
			L33.6,27z"/>
		<path d="M54.6,30.4L46,13.9l4.8-0.9l4.8,9.2L56.8,12l4-0.7l4.8,9.2L67,10.2l4.8-0.9l-2.5,18.5L65,28.6l-4.9-9.5l-1.3,10.6
			L54.6,30.4L54.6,30.4z"/>
		<path d="M87.1,10.4l-0.2-2.3l5.2-0.4l1.5,17.7l-5.2,0.4l-0.2-2.3c-0.4,1.6-2.4,2.9-5.1,3.1c-2.5,0.2-4.7-0.5-6.5-2.1
			c-1.8-1.6-2.8-3.8-3.1-6.3c-0.2-2.6,0.4-4.8,1.9-6.7c1.5-1.9,3.6-3,6.1-3.2C84.3,8,86.4,8.9,87.1,10.4L87.1,10.4z M86.9,20.2
			c0.8-1,1.2-2.1,1.1-3.3c-0.1-1.2-0.7-2.2-1.6-3c-1-0.8-2.1-1.1-3.4-1c-1.3,0.1-2.3,0.6-3.1,1.6c-0.8,0.9-1.1,2-1,3.2
			c0.1,1.2,0.6,2.3,1.6,3.1c1,0.8,2,1.1,3.3,1C85,21.7,86.1,21.1,86.9,20.2L86.9,20.2z"/>
		<path d="M96.8,25.3L96.5,7.6l5.3-0.1l0,2.4c0.8-1.8,2.7-2.9,5.1-2.9c0.4,0,0.8,0,1.4,0.1l0.1,4.9c-0.5-0.1-1.1-0.2-1.8-0.1
			c-3,0-4.7,1.8-4.7,4.7l0.1,8.7L96.8,25.3L96.8,25.3z"/>
		<path d="M109.6,16.2c0.1-2.8,1.2-5,3-6.6c1.9-1.6,4.3-2.4,7-2.2c2.7,0.1,4.9,1.1,6.5,2.9c1.6,1.8,2.4,4,2.2,6.5
			c0,0.6-0.1,1.2-0.2,1.7l-13.4-0.7c0,2.1,1.8,3.6,4.5,3.7c1.7,0.1,3.1-0.4,4.4-1.5l2.9,3.1c-2.2,2-4.8,3-7.8,2.9
			c-2.9-0.1-5.2-1.1-6.9-2.9c-1.7-1.8-2.5-4-2.4-6.8L109.6,16.2L109.6,16.2z M123.2,14.8c0.1-1.7-1.6-3-3.7-3.2
			c-2.3-0.1-4.2,1.1-4.4,2.7L123.2,14.8L123.2,14.8z"/>
		<path d="M130,26.2l2.3-17.6l5.2,0.7l-0.3,2.2c0.9-1.4,3.1-2.2,5.5-1.9c4.3,0.6,6.4,3.6,5.8,8.2l-1.4,10.7l-5.2-0.7l1.3-10.1
			c0.3-2.1-0.7-3.5-2.8-3.7c-2-0.3-3.7,1-3.9,3.1l-1.3,9.9L130,26.2z"/>
		<path d="M151.1,20c0.6-2.7,2-4.7,4.1-6c2.1-1.3,4.6-1.6,7.3-1.1c2.7,0.6,4.6,1.9,5.9,3.9c1.3,2,1.7,4.3,1.1,6.8
			c-0.1,0.6-0.3,1.1-0.4,1.6l-13.2-2.8c-0.3,2.1,1.2,3.8,3.9,4.4c1.6,0.4,3.2,0.1,4.6-0.8l2.4,3.5c-2.5,1.7-5.2,2.2-8.2,1.6
			c-2.9-0.6-5-1.9-6.4-3.9c-1.4-2-1.8-4.4-1.2-7.1L151.1,20L151.1,20z M164.7,20.8c0.4-1.6-1.1-3.3-3.1-3.7c-2.2-0.5-4.3,0.4-4.8,2
			L164.7,20.8L164.7,20.8z"/>
		<path d="M172.8,28c0.6,1.4,2.2,2.6,4.2,3.2c1.7,0.5,2.7,0.3,3-0.7c0.1-0.3,0-0.7-0.3-1c-0.3-0.3-0.9-0.7-1.9-1.3
			c-1-0.5-1.7-1-2.1-1.3c-2.4-1.7-3.2-3.6-2.6-5.9c0.5-1.7,1.5-2.9,3.1-3.5c1.6-0.6,3.3-0.6,5.1-0.1c2.4,0.7,4.1,2,5.3,3.9l-3.4,2.6
			c-0.7-1.1-1.8-1.9-3.2-2.3c-1.1-0.3-1.8,0-2,0.6c-0.1,0.4,0,0.7,0.4,1.1c0.6,0.5,1.9,1.1,3.6,2.3c2.6,1.7,3.5,3.8,2.8,6.1
			c-1,3.5-4.1,5.1-9.2,3.6c-3.3-0.9-5.5-2.7-6.6-5.2L172.8,28L172.8,28z"/>
		<path d="M188.9,32.7c0.5,1.4,2,2.8,3.9,3.5c1.7,0.6,2.7,0.4,3-0.5c0.1-0.3,0-0.7-0.3-1c-0.3-0.3-0.9-0.8-1.8-1.4
			c-0.9-0.6-1.6-1.1-2-1.4c-2.2-1.8-3-3.8-2.2-6c0.6-1.7,1.7-2.8,3.3-3.3c1.6-0.5,3.3-0.4,5.1,0.2c2.4,0.8,4,2.2,5,4.2l-3.5,2.4
			c-0.6-1.1-1.7-2-3.1-2.5c-1.1-0.4-1.8-0.2-2,0.5c-0.2,0.4-0.1,0.7,0.4,1.1c0.5,0.5,1.9,1.2,3.5,2.5c2.4,1.9,3.2,4,2.4,6.2
			c-1.2,3.4-4.5,4.8-9.4,3c-3.3-1.2-5.3-3-6.3-5.6L188.9,32.7L188.9,32.7z"/>
	</g>
</g>
</svg>
