<svg xmlns="http://www.w3.org/2000/svg" fill="none" viewBox="99.84 99.84 611.44 611.43">
<path d="M152.721 496.847C164.236 440.417 211.75 410.993 211.75 410.993C211.923 410.891 212.07 410.779 212.239 410.668L266.192 375.147C286.89 361.526 304.467 330.106 305.27 305.343L307.345 240.79C308.054 218.714 321.228 210.292 337.792 219.678C337.735 219.627 297.801 186.837 240.607 193.317C178.37 200.371 148.583 240.175 147.853 241.172C93.8921 325.934 82.7951 435.537 128.01 533.573C139.247 557.936 153.295 580.111 169.575 599.913L169.603 599.9C169.603 599.9 140.036 559.004 152.721 496.847Z" fill="#EEFF00"/>
<path d="M240.612 193.303C297.802 186.815 337.74 219.614 337.797 219.665C339.819 220.802 341.887 222.205 343.991 223.878L394.438 264.207C413.799 279.681 449.104 286.7 472.901 279.799L534.946 261.821C557.239 255.361 569.465 266.659 563.74 287.172C563.849 286.836 580.238 235.338 556.457 183.084C531.543 128.325 487.159 111.386 482.637 109.772C416.575 92.5346 344.378 97.1897 277.552 128.01C222.296 153.495 178.264 193.383 147.858 241.159C148.597 240.158 178.375 200.357 240.612 193.303Z" fill="#EEFF00"/>
<path d="M661 489.289C617.186 526.665 564.783 519.966 564.783 519.966L501.022 517.03C476.27 515.892 443.579 530.969 428.385 550.53L388.758 601.546C374.418 619.999 357.773 617.885 350.423 597.555C350.423 597.555 364.149 645.845 414.266 674.235C465.997 703.544 511.429 691.786 516.929 690.197C522.514 688.006 528.074 685.662 533.586 683.12C647.894 630.4 714.167 516.03 711.185 397.701L711.159 397.691C711.159 397.691 709.274 448.116 661.013 489.294L661 489.289Z" fill="#EEFF00"/>
<path d="M414.244 674.235C364.131 645.854 350.4 597.554 350.4 597.554C349.956 596.328 349.54 595.044 349.166 593.685L332.06 531.405C325.497 507.506 301.055 481.084 277.749 472.671L216.989 450.742C193.869 442.398 191.594 424.595 211.758 411.011C211.758 411.011 164.24 440.426 152.725 496.856C140.045 558.999 169.602 599.9 169.602 599.9L169.575 599.913C252.036 700.174 392.013 739.186 516.906 690.196C511.406 691.785 465.965 703.548 414.244 674.235Z" fill="#EEFF00"/>
<path d="M482.632 109.785C487.163 111.395 531.538 128.338 556.452 183.097C580.233 235.351 563.844 286.849 563.735 287.186C563.351 288.574 562.882 289.991 562.334 291.455L539.578 351.902C530.847 375.09 535.081 410.844 548.994 431.341L585.261 484.785C599.165 505.286 590.299 521.137 565.556 519.995L564.792 519.961C564.792 519.961 617.194 526.66 661.009 489.285C709.27 448.107 711.154 397.682 711.154 397.682L711.181 397.692C710.166 357.337 701.103 316.532 683.124 277.548C643.249 191.09 568.095 132.103 482.641 109.78L482.632 109.785Z" fill="#EEFF00"/>
<path style="mix-blend-mode:multiply" opacity="0.5" d="M152.721 496.847C164.236 440.417 211.75 410.993 211.75 410.993C211.923 410.891 212.07 410.779 212.239 410.668L266.192 375.147C286.89 361.526 304.467 330.106 305.27 305.343L307.345 240.79C308.054 218.714 321.228 210.292 337.792 219.678C337.735 219.627 297.801 186.837 240.607 193.317C178.37 200.371 148.583 240.175 147.853 241.172C93.8921 325.934 82.7951 435.537 128.01 533.573C139.247 557.936 153.295 580.111 169.575 599.913L169.603 599.9C169.603 599.9 140.036 559.004 152.721 496.847Z" fill="url(#paint0_linear_4_41)"/>
<path style="mix-blend-mode:multiply" opacity="0.5" d="M240.612 193.303C297.802 186.815 337.74 219.614 337.797 219.665C339.819 220.802 341.887 222.205 343.991 223.878L394.438 264.207C413.799 279.681 449.104 286.7 472.901 279.799L534.946 261.821C557.239 255.361 569.465 266.659 563.74 287.172C563.849 286.836 580.238 235.338 556.457 183.084C531.543 128.325 487.159 111.386 482.637 109.772C416.575 92.5346 344.378 97.1897 277.552 128.01C222.296 153.495 178.264 193.383 147.858 241.159C148.597 240.158 178.375 200.357 240.612 193.303Z" fill="url(#paint1_linear_4_41)"/>
<path style="mix-blend-mode:multiply" opacity="0.5" d="M661 489.289C617.186 526.665 564.783 519.966 564.783 519.966L501.022 517.03C476.27 515.892 443.579 530.969 428.385 550.53L388.758 601.546C374.418 619.999 357.773 617.885 350.423 597.555C350.423 597.555 364.149 645.845 414.266 674.235C465.997 703.544 511.429 691.786 516.929 690.197C522.514 688.006 528.074 685.662 533.586 683.12C647.894 630.4 714.167 516.03 711.185 397.701L711.159 397.691C711.159 397.691 709.274 448.116 661.013 489.294L661 489.289Z" fill="url(#paint2_linear_4_41)"/>
<path style="mix-blend-mode:multiply" opacity="0.5" d="M414.244 674.235C364.131 645.854 350.4 597.554 350.4 597.554C349.956 596.328 349.54 595.044 349.166 593.685L332.06 531.405C325.497 507.506 301.055 481.084 277.749 472.671L216.989 450.742C193.869 442.398 191.594 424.595 211.758 411.011C211.758 411.011 164.24 440.426 152.725 496.856C140.045 558.999 169.602 599.9 169.602 599.9L169.575 599.913C252.036 700.174 392.013 739.186 516.906 690.196C511.406 691.785 465.965 703.548 414.244 674.235Z" fill="url(#paint3_linear_4_41)"/>
<path style="mix-blend-mode:multiply" opacity="0.5" d="M482.632 109.785C487.163 111.395 531.538 128.338 556.452 183.097C580.233 235.351 563.844 286.849 563.735 287.186C563.351 288.574 562.882 289.991 562.334 291.455L539.578 351.902C530.847 375.09 535.081 410.844 548.994 431.341L585.261 484.785C599.165 505.286 590.299 521.137 565.556 519.995L564.792 519.961C564.792 519.961 617.194 526.66 661.009 489.285C709.27 448.107 711.154 397.682 711.154 397.682L711.181 397.692C710.166 357.337 701.103 316.532 683.124 277.548C643.249 191.09 568.095 132.103 482.641 109.78L482.632 109.785Z" fill="url(#paint4_linear_4_41)"/>
<g style="mix-blend-mode:multiply" opacity="0.3">
<path d="M565.057 265.41C564.634 264.493 564.225 263.559 563.824 262.642C563.629 262.435 563.444 262.223 563.244 262.029C556.896 255.739 546.436 254.286 533.82 257.947L471.775 275.924C449.414 282.405 415.163 275.594 396.972 261.056L346.515 220.731C344.42 219.054 342.247 217.568 340.076 216.322C336.178 213.242 296.206 182.948 240.152 189.298C223.354 191.198 207.344 195.619 192.561 202.437C185.85 205.533 179.896 208.906 174.621 212.297C171.395 214.974 168.014 217.503 164.494 219.875C162.913 221.32 161.29 222.718 159.64 224.085C155.527 229.66 151.572 235.339 147.862 241.168C148.386 240.464 163.455 220.321 194.266 206.111C206.997 200.239 222.417 195.374 240.616 193.312C297.806 186.824 337.744 219.623 337.801 219.674C339.823 220.811 341.891 222.214 343.995 223.887L394.443 264.216C413.803 279.69 449.108 286.709 472.906 279.808L534.95 261.83C557.243 255.37 569.469 266.668 563.744 287.181C563.779 287.066 565.667 281.13 567.232 271.345C566.99 270.366 566.752 269.397 566.533 268.419C566.04 267.423 565.526 266.427 565.057 265.41Z" fill="#231F20"/>
</g>
<g style="mix-blend-mode:multiply" opacity="0.3">
<path d="M705.68 435.788C706.757 431.58 708.043 427.419 709.527 423.332C709.971 421.453 710.46 419.576 710.988 417.713C711.265 411.055 711.341 404.391 711.163 397.7L711.136 397.691C711.136 397.691 709.252 448.115 660.991 489.293C651.459 497.422 641.519 503.471 631.802 507.953C596.851 524.073 564.774 519.97 564.774 519.97L501.013 517.034C488.637 516.465 474.276 519.95 461.109 526.022C447.942 532.095 435.968 540.756 428.367 550.539L388.74 601.555C384.599 606.879 380.275 610.492 376.034 612.448C365.573 617.272 355.635 612.033 350.404 597.563C350.404 597.563 352.17 603.731 356.695 612.921C357.315 613.406 357.935 613.891 358.541 614.393C360.405 615.57 362.255 616.787 364.058 618.07C363.978 617.92 363.888 617.774 363.799 617.628C368.254 618.811 373.022 618.308 377.735 616.134C382.72 613.835 387.506 609.767 391.946 604.041L431.577 553.034C438.535 544.076 449.633 535.786 462.809 529.709C475.985 523.632 489.496 520.573 500.822 521.086L564.427 524.017C567.338 524.36 598.851 527.621 633.503 511.639C644.409 506.61 654.537 500.132 663.627 492.383C686.452 472.914 698.979 451.367 705.75 435.128C705.73 435.346 705.701 435.569 705.675 435.801L705.68 435.788Z" fill="#231F20"/>
</g>
<g style="mix-blend-mode:multiply" opacity="0.3">
<path d="M276.372 476.467C298.276 484.37 321.987 510.017 328.152 532.458L345.263 594.748C345.636 596.107 346.047 597.404 346.516 598.707C346.815 599.737 350.429 611.824 360.091 627.377C369.186 642.035 385.619 662.67 412.254 677.752C436.853 691.691 460.15 696.55 478.641 697.603C482.444 697.325 486.245 697.234 490.038 697.291C494.921 696.107 499.83 695.219 504.757 694.632C508.819 693.243 512.874 691.769 516.911 690.183C511.411 691.772 465.97 703.535 414.249 674.222C364.136 645.841 350.405 597.541 350.405 597.541C349.961 596.315 349.545 595.031 349.171 593.672L332.065 531.391C325.503 507.493 301.06 481.071 277.754 472.658L216.994 450.729C193.874 442.385 191.599 424.581 211.763 410.998C211.763 410.998 205.037 415.157 196.05 423.344C195.651 424.221 195.252 425.099 194.839 425.972C194.46 427.777 194.059 429.581 193.613 431.361C193.734 431.239 193.85 431.109 193.974 430.997C193.977 431.744 194.025 432.493 194.118 433.243C195.252 442.388 202.893 449.954 215.621 454.556L276.376 476.476L276.372 476.467Z" fill="#EEFF00"/>
</g>
<g style="mix-blend-mode:multiply" opacity="0.3">
<path d="M517.855 125.652C517.235 125.167 516.628 124.687 516.022 124.184C514.459 123.088 512.906 121.965 511.381 120.808C509.288 119.493 507.22 118.113 505.203 116.675C497.767 114.092 490.247 111.779 482.632 109.785C487.163 111.395 531.538 128.338 556.452 183.097C580.233 235.351 563.844 286.849 563.735 287.186C563.351 288.574 562.882 289.991 562.334 291.455L539.578 351.902C530.847 375.09 535.081 410.844 548.994 431.341L585.261 484.785C595.381 499.709 593.441 512.167 582.09 517.402C577.84 519.362 572.284 520.305 565.547 519.999L564.783 519.966C564.783 519.966 571.365 520.795 581.786 520.229C583.737 519.351 585.71 518.518 587.685 517.739C589.006 516.877 590.357 516.034 591.716 515.208C591.671 515.207 591.622 515.219 591.572 515.231C593.224 513.225 594.424 510.909 595.145 508.341C597.23 500.827 594.974 491.901 588.612 482.524L552.345 429.08C539.279 409.822 535.164 375.137 543.372 353.346L566.132 292.908C566.708 291.387 567.203 289.859 567.622 288.355C568.493 285.586 584.073 234.032 560.142 181.428C548.053 154.859 531.473 136.936 516.83 125.243C517.17 125.384 517.51 125.524 517.85 125.665L517.855 125.652Z" fill="#231F20"/>
</g>
<g style="mix-blend-mode:multiply" opacity="0.3">
<path d="M327.032 212.395C324.304 212.519 321.573 212.567 318.854 212.522C318.972 212.588 319.113 212.655 319.228 212.712C318.419 212.964 317.676 213.263 317.004 213.573C308.604 217.447 303.733 227.061 303.291 240.645L301.207 305.202C300.456 328.476 283.401 358.95 263.954 371.752L210.002 407.273C209.883 407.35 209.773 407.423 209.668 407.504L209.604 407.534C209.102 407.853 197.102 415.359 183.571 430.002C171.068 443.532 154.875 465.966 148.742 496.028C142.752 525.375 146.127 550.028 150.782 566.998C150.667 566.82 150.561 566.637 150.459 566.464C151.217 568.537 151.907 570.631 152.553 572.723C153.134 574.007 153.67 575.313 154.202 576.609C155.131 578.384 156.014 580.179 156.86 582.013C157.35 583.075 157.817 584.137 158.276 585.203C161.916 590.231 165.672 595.15 169.584 599.909L169.612 599.896C169.612 599.896 140.046 558.999 152.73 496.843C164.245 440.413 211.759 410.989 211.759 410.989C211.932 410.887 212.079 410.775 212.248 410.664L266.201 375.142C286.899 361.522 304.476 330.102 305.279 305.339L307.354 240.786C307.758 228.409 312.066 220.321 318.704 217.26C323.899 214.864 330.522 215.543 337.797 219.665C337.788 219.646 333.967 216.519 327.032 212.395Z" fill="#231F20"/>
</g>
<defs>
<linearGradient id="paint0_linear_4_41" x1="236.511" y1="192.673" x2="200.307" y2="412.757" gradientUnits="userSpaceOnUse">
<stop/>
<stop offset="0.05" stop-color="#1C1C1C"/>
<stop offset="0.15" stop-color="#505050"/>
<stop offset="0.26" stop-color="#7F7F7F"/>
<stop offset="0.37" stop-color="#A6A6A6"/>
<stop offset="0.48" stop-color="#C6C6C6"/>
<stop offset="0.6" stop-color="#DFDFDF"/>
<stop offset="0.72" stop-color="#F1F1F1"/>
<stop offset="0.85" stop-color="#FBFBFB"/>
<stop offset="1" stop-color="white"/>
</linearGradient>
<linearGradient id="paint1_linear_4_41" x1="556.809" y1="181.865" x2="326.154" y2="214.286" gradientUnits="userSpaceOnUse">
<stop/>
<stop offset="0.05" stop-color="#1C1C1C"/>
<stop offset="0.15" stop-color="#505050"/>
<stop offset="0.26" stop-color="#7F7F7F"/>
<stop offset="0.37" stop-color="#A6A6A6"/>
<stop offset="0.48" stop-color="#C6C6C6"/>
<stop offset="0.6" stop-color="#DFDFDF"/>
<stop offset="0.72" stop-color="#F1F1F1"/>
<stop offset="0.85" stop-color="#FBFBFB"/>
<stop offset="1" stop-color="white"/>
</linearGradient>
<linearGradient id="paint2_linear_4_41" x1="415.713" y1="675.033" x2="624.209" y2="481.722" gradientUnits="userSpaceOnUse">
<stop/>
<stop offset="0.05" stop-color="#1C1C1C"/>
<stop offset="0.15" stop-color="#505050"/>
<stop offset="0.26" stop-color="#7F7F7F"/>
<stop offset="0.37" stop-color="#A6A6A6"/>
<stop offset="0.48" stop-color="#C6C6C6"/>
<stop offset="0.6" stop-color="#DFDFDF"/>
<stop offset="0.72" stop-color="#F1F1F1"/>
<stop offset="0.85" stop-color="#FBFBFB"/>
<stop offset="1" stop-color="white"/>
</linearGradient>
<linearGradient id="paint3_linear_4_41" x1="151.383" y1="498.125" x2="386.011" y2="621.832" gradientUnits="userSpaceOnUse">
<stop/>
<stop offset="0.05" stop-color="#1C1C1C"/>
<stop offset="0.15" stop-color="#505050"/>
<stop offset="0.26" stop-color="#7F7F7F"/>
<stop offset="0.37" stop-color="#A6A6A6"/>
<stop offset="0.48" stop-color="#C6C6C6"/>
<stop offset="0.6" stop-color="#DFDFDF"/>
<stop offset="0.72" stop-color="#F1F1F1"/>
<stop offset="0.85" stop-color="#FBFBFB"/>
<stop offset="1" stop-color="white"/>
</linearGradient>
<linearGradient id="paint4_linear_4_41" x1="666.224" y1="487.914" x2="547.384" y2="237.287" gradientUnits="userSpaceOnUse">
<stop/>
<stop offset="0.05" stop-color="#1C1C1C"/>
<stop offset="0.15" stop-color="#505050"/>
<stop offset="0.26" stop-color="#7F7F7F"/>
<stop offset="0.37" stop-color="#A6A6A6"/>
<stop offset="0.48" stop-color="#C6C6C6"/>
<stop offset="0.6" stop-color="#DFDFDF"/>
<stop offset="0.72" stop-color="#F1F1F1"/>
<stop offset="0.85" stop-color="#FBFBFB"/>
<stop offset="1" stop-color="white"/>
</linearGradient>
</defs>
</svg>